P1
# ExCyber Power Style
42 15
000000000000000000000000000000000000000000
000000000000000000000000000000000000000000
000000110000000000000000000000000000000000
000001110000000000000000000000000000000000
000000000000000000000001000000000000000000
000011110001110100001110100110011011111110
000011110001110110011111000110011011111110
000000110001100110010000000110011011010110
000000110001100011001111000110011011010110
000000110001100110000011100110011011010110
000011111101100110011111100111111011010110
000111111101110100011111100011111011010110
000000000001100000000000000000000000000000
000000000001100000000000000000000000000000
000000000001100000000000000000000000000001
