P1
# ExCyber Power Style
25 28
1111111100000000000001111
1111111100000000000001111
1111100000000000000000001
1111000000000000000000000
1111000000000000000000000
1100000011111111110000000
1100000111111111111000000
1100000111111111111000000
1100000111111111111110000
1111111111111111111110000
1111111111111111111110000
1111111111111111111000000
1111111100000000000000000
1111111100000000000000000
1111100000000000000000000
1100000000000000001110000
1100000000000000001110000
1100000000111111111110000
0000000111111111111110000
0000000111111111111110000
0000000111111111111000000
0000000111111111111000000
0000000111111111111000000
0000000111111111110000000
0000000011111110000000000
0000000011111110000000000
1100000000000000000110000
1111000000000000001110000
