P1
# ExCyber Power Style
25 28
1111111100000000000111111
1111111100000000000111111
1111100000000000000000111
1111000000000000000000001
1111000000000000000000001
1111000000111111110000000
1100000011111111111000000
1100000011111111111000000
0000000111111111111110000
0000000111111111111110000
0000000111111111111110000
0000000111111111111111000
0000011111111111111111000
0000011111111111111111000
0000011111111111111111000
0000011111111111111111000
0000011111111111111111000
0000011111111111111111000
0000000111111111111111000
0000000111111111111111000
0000000111111111111110000
1100000111111111111110000
1100000111111111111110000
1100000011111111111000000
1111000000111111000000000
1111000000111111000000000
1111100000000000000000001
1111111000000000000001111
