P1
# ExCyber Power Style
25 28
0000011111111111111110000
0000011111111111111110000
0000011111111111111110000
0000011111111111111110000
0000000111111111111000000
1100000111111111111000000
1100000111111111111000000
1100000111111111111000001
1100000011111111110000001
1100000011111111110000001
1111000011111111110000111
1111000000111111110000111
1111000000111111110000111
1111000000111111000000111
1111100000111111000001111
1111100000111111000001111
1111100000011110000001111
1111100000011110000001111
1111111000011110000001111
1111111000011110000111111
1111111000011110000111111
1111111000000000000111111
1111111100000000001111111
1111111100000000001111111
1111111100000000001111111
1111111100000000001111111
1111111100000000001111111
1111111111000000111111111
