P1
# ExCyber Power Style
25 28
1111111111111111000111111
1111111111111111000111111
1111111111000000000111111
1111111111000000000111111
1111111111000000000111111
1111111111000000000111111
1111111111000000000111111
0000000000000000000000000
0000000000000000000000000
0000000000000000000000000
0000000000000000000000000
1111111111000000000111111
1111111111000000000111111
1111111111000000000111111
1111111111000000000111111
1111111111000000000111111
1111111111000000000111111
1111111111000000000111111
1111111111000000000111111
1111111111000000000111111
1111111111000000000111111
1111111111000000000111111
1111111111000000000111111
1111111111000000000111111
1111111111000000000111111
1111111111000000000111111
1111111111000000000000000
1111111111000000000000000
