P1
# Created by GIMP version 2.10.36 PNM plug-in
25 28
0000000000000000000000000000000000000000000000000000000000000000000000
0000000000000000000000000000000000000011111111000000000000000111111111
1110000000000001111111111111100000000001111000000111110000000000111000
0000011110000000000111000000000111000000000000000000000011100000000000
0000000000111100000000000000111111111110000000000001111111111111000000
0000111111111100111000000000011111000000011100000000011110000000001110
0000000011110000000011110000000001111000000001111000000000111100000001
1111000000000111110000111111110000000001111111111101111000000000011111
1111001111000000000000011100000000000000000000000000000000000000000000
0000000000000000000000000000000000000000000000000000000000000000000000