P1
# Created by GIMP version 2.10.36 PNM plug-in
25 25
0000000000000000000000000000000000001110000000000000000000000111000000
0000000000000000111000000000000000000000011100000000000000000000001110
0000000000000000000001110000000000000000000000111000000000000000000000
0111000000000000000000000011100000000000000000000001110000000000000000
0000001110000000000000000000000111000000000000000000000011100000000000
0000000000011100000000000000000000001110000000000000000000000111000000
0000000000000000111000000000000000000000011100000000000000000000001110
0000000000000000000001110000000000000000000000111000000000000000000000
01110000000000000000000000111000000000000000000000011100000000000