P1
# Created by GIMP version 2.10.36 PNM plug-in
25 25
0000000000000000000000000000000000000000000000000000000000011111110000
0000000000001111111111100000000000001111111111111000000000000111100000
1111100000000001111000000011110000000001111000000000111100000000111100
0000000111100000000111100000000001110000000011100000000000111000000001
1100000000000111000000001110000000000011100000000111000000000001110000
0000111100000000001110000000011110000000001111000000000111000000000111
1000000000111100000001111000000000001111000011111100000000000011111111
1111000000000000001111111110000000000000000001111100000000000000000000
00000000000000000000000000000000000000000000000000000000000000000