P1
# Created by GIMP version 2.10.36 PNM plug-in
25 28
0000000000000000000000000000000000000100000000000000000000001110000000
0000000000000001110000000000000000000000111000000000000000000000011100
0000000000000000000011100000000000000000001111111110000000000000000111
1111110000000000000000111111111000000000000000000011100000000000000000
0000011100000000000000000000001110000000000000000000000111000000000000
0000000000111000000000000000000000011100000000000000000000001110000000
0000000000000001110000000000000000000000111000000000000000000000011100
0000000000000000000011100000000000000000000001110000000000000000000000
1110000000000000000000000111111000000000000000000011111100000000000000
0000001111100000000000000000000000000000000000000000000000000000000000