P1
# Created by GIMP version 2.10.36 PNM plug-in
25 25
0000000000000000000000000000000000000000000000000000000000000000000000
0000000001110000000000111100000000111000000000011100000000011110000000
0111100000000001110000000011110000000000111000000001110000000000011110
0000011110000000000001110000001110000000000000111100000111000000000000
0111100001111000000000000001110000111000000000000000111100111100000000
0000000011100111100000000000000001110011100000000000000000111111110000
0000000000000011111100000000000000000001111110000000000000000000111111
0000000000000000000011110000000000000000000001111000000000000000000000
00000000000000000000000000000000000000000000000000000000000000000