P1
# ExCyber Power Style
116 21
0000000000000000000000000000000000000000000000000000000000000000000000
0000000000000000000000000000000000000000000000
0000000000111111100000000001111111100000000000111111110000000000011111
1110000000000000111111100000000000111111100000
0000000011111111110000000111111111111000000001111111111000000001111111
1111100000000011111111110000000011111111111000
0000000111111111111000001111111111111100000011111111111100000011111111
1111110000000111111111111000000111111111111100
0000001111100000111100011110000001111100000111100000011110000111100000
0111110000001111100000111100000111100000111110
0000001111000000011100011100000000111100000111000000001110000111000000
0011110000001111000000011100001111000000011110
0000011110000000011110011100000000011100000111000000001110000111000000
0001110000011110000000011110011110000000001111
0000011110000000000000000000000000011100000111100000000000000000000000
0001110000011110000000000000011110000000001111
0000011100000000000000000000000000111100000111111100000000000000000000
0011110000011100000000000000011110000000000111
0000011100000000000000000001111111111100000011111111100000000000011111
1111110000011100000000000000011100000000000111
0000011100000000000000000111111111111100000001111111111100000001111111
1111110000011100000000000000011100000000000111
0000011100000000000000011111111110011100000000011111111110000111111111
1001110000011100000000000000011100000000000111
0000011100000000000000011111000000011100000000000001111111000111110000
0001110000011100000000000000011100000000000111
0000011100000000001100111100000000011100000000000000001111001111000000
0001110000011100000000001100011110000000000111
0000011110000000011110111100000000111100000111000000001111001111000000
0011110000011110000000011110011110000000001111
0000011110000000011110111100000000111100001111000000000111001111000000
0011110000011110000000011110001110000000001111
0000001111000000111100111100000001111100000111100000001111001111000000
0111110000001111000000111100001111000000011110
0000001111100001111100111110000111111110000111110000011110001111100001
1111111000001111100001111100000111100001111110
0000000111111111111000011111111111011110000011111111111110000111111111
1101111000000111111111111000000011111111111100
0000000001111111110000001111111110011110000001111111111000000011111111
1001111000000001111111110000000001111111110000
0000000000011110000000000001110000000000000000011111100000000000011100
0000000000000000011110000000000000011111000000
