P1
# ExCyber Power Style
61 28
0000000000000000000000000000000000000000000000000000000000000
0000000000000000001110000000000000000000000000000000000000000
0000000000000000001110000000000000000000000000000000000000000
0000000000000000001110000000000000000000000000000000000000000
0000000000000000001110000000000000000000000000000000000000000
0000000000000000001110000000000000000000000000000000000000000
0000000000000000001110000000000000000000000000000000000000000
0000000000000000001110000000000000000000000000000000000000000
0000000000111111001110000000001111111000000000000111111110000
0000000011111111101110000000111111111110000000001111111111000
0000000111111111111110000001111111111111000000011111111111100
0000001111100001111110000001111000001111100000111100000011110
0000001111000000011110000011110000000111100000111000000001110
0000011110000000011110000111100000000011110000111000000001110
0000011110000000001110000111100000000011110000111100000000000
0000011110000000001110000111100000000001110000111111100000000
0000011100000000001110000111000000000001110000011111111100000
0000011100000000001110000111000000000001110000001111111111100
0000011100000000001110000111000000000001110000000011111111110
0000011100000000001110000111000000000001110000000000001111111
0000011110000000001110000111100000000001110000000000000001111
0000011110000000001110000111100000000011110000111000000001111
0000001110000000011110000011100000000011110001111000000000111
0000001111000000111110000011110000000111100000111100000001111
0000000111100001111110000001111000011111100000111110000011110
0000000111111111111110000000111111111111000000011111111111110
0000000001111111101110000000011111111100000000001111111111000
0000000000011110000000000000000111110000000000000011111100000
