P1
# ExCyber Power Style
53 28
00000000000000000000000000000000000000000000000000000
00000000000000000000000000000000000000000000111110000
00000000000000000000000000000100000000000000111100000
00000000000000000000000000011100000000000000111000000
00000000000000000000000000011100000000000001110000000
00000000000000000000000000011100000000000001110000000
00000000000000000000000000011100000000000000000000000
00000000000000000000000000011100000000000000000000000
00000000001111111100000011111111100000000111111100000
00000000111111111111000011111111100000011111111110000
00000001111111111111100011111111100000111111111111100
00000011110000001111100000011100000001111100000111100
00000011100000000111100000011100000001111000000011110
00000011100000000011100000011100000011110000000001110
00000000000000000011100000011100000011100000000001111
00000000000000000111100000011100000011100000000001111
00000000001111111111100000011100000011111111111111111
00000000111111111111100000011100000111111111111111111
00000011111111110011100000011100000011111111111111111
00000011111000000011100000011100000011100000000000000
00000111100000000011100000011100000011100000000000000
00000111100000000111100000011100000011110000000001111
00000111100000000111100000011100000011110000000001111
00000111100000001111100000011100000001111000000011110
00000111110000111111110000011111100001111100001111100
00000011111111111011110000011111100000111111111111100
00000001111111110011110000001111100000001111111110000
00000000001110000000000000000000000000000011111000000
