P1
# ExCyber Power Style
53 21
00000000000000000000000000000000000000000000000000000
00000000001111111000000001110011111000000111111110000
00000000111111111100000001110111111000011111111111100
00000001111111111111000001111111111000111111111111110
00000011111000001111000001111110010001111000000111110
00000011110000000111100001111000000001110000000011110
00000111100000000011100001111000000001110000000001110
00000111000000000011110001111000000000000000000001110
00000111000000000011110001110000000000000000000011110
00000111111111111111110001110000000000000111111111110
00001111111111111111110001110000000000011111111111110
00000111111111111111110001110000000001111111111001110
00000111000000000000000001110000000001111100000001110
00000111000000000000000001110000000011110000000001110
00000111100000000011110001110000000011110000000011110
00000111100000000011110001110000000011110000000011110
00000011110000000111100001110000000011110000000111110
00000011111000011111000001110000000011111000011111111
00000001111111111111000001110000000001111111111101111
00000000011111111100000001110000000000111111111001111
00000000000111110000000000000000000000000111000000000
