P1
# ExCyber Power Style
156 28
0000000000000000000000000000000000000000000000000000000000000000000000
0000000000000000000000000000000000000000000000000000000000000000000000
0000000000000000
0000000000000000000000000000000000000000000000000000000000000000000000
0000000000000000000000000000000000000000000000000000000000000011100000
0000000000000000
0000000000100000000000000000000000000000000000000000000000000000000000
0000000000000000000000000000000000000000000000000000000000000011100000
0000000000000000
0000000011100000000000000000000000000000000000000000000000000000000000
0000000000000000000000000000000000000000000000000000000000000011100000
0000000000000000
0000000011100000000000000000000000000000000000000000000000000000000000
0000000000000000000000000000000000000000000000000000000000000011100000
0000000000000000
0000000011100000000000000000000000000000000000000000000000000000000000
0000000000000000000000000000000000000000000000000000000000000011100000
0000000000000000
0000000011100000000000000000000000000000000000000000000000000000000000
0000000000000000000000000000000000000000000000000000000000000011100000
0000000000000000
0000000011100000000000000000000000000000000000000000000000000000000000
0000000000000000000000000000000000000000000000000000000000000011100000
0000000000000000
0000011111111100011100111110000000111111100000000111001111111000011111
1100000000000011111110000000011100111111100000000000001111110011100000
0000111111100000
0000011111111100011101111110000011111111110000000111011111111100111111
1110000000001111111111000000011101111111111000000000111111111011100000
0011111111111000
0000011111111100011111111110000111111111111100000111111111111111111111
1110000000011111111111110000011111111111111000000001111111111111100000
0111111111111100
0000000011100000011111100100001111100000111100000111110000011111100000
1111000000111110000011110000011111000001111100000011111000011111100000
0111100000111110
0000000011100000011110000000001111000000011110000111100000011111000000
1111000000111100000001111000011110000000111100000011110000000111100000
1111000000011110
0000000011100000011110000000011110000000001110000111100000001111000000
0111000001111000000000111000011110000000011100000111100000000111100001
1110000000001111
0000000011100000011110000000011100000000001111000111000000001110000000
0111000001110000000000111100011100000000011100000111100000000011100001
1110000000001111
0000000011100000011100000000011100000000001111000111000000001110000000
0111000001110000000000111100011100000000011100000111100000000011100001
1110000000000111
0000000011100000011100000000011111111111111111000111000000001110000000
0111000001111111111111111100011100000000011100000111000000000011100001
1100000000000111
0000000011100000011100000000111111111111111111000111000000001110000000
0111000011111111111111111100011100000000011100000111000000000011100001
1100000000000111
0000000011100000011100000000011111111111111111000111000000001110000000
0111000001111111111111111100011100000000011100000111000000000011100001
1100000000000111
0000000011100000011100000000011100000000000000000111000000001110000000
0111000001110000000000000000011100000000011100000111000000000011100001
1100000000000111
0000000011100000011100000000011100000000000000000111000000001110000000
0111000001110000000000000000011100000000011100000111100000000011100001
1110000000000111
0000000011100000011100000000011110000000001111000111000000001110000000
0111000001111000000000111100011100000000011100000111100000000011100001
1110000000001111
0000000011100000011100000000011110000000001111000111000000001110000000
0111000001111000000000111100011100000000011100000011100000000111100000
1110000000001111
0000000011100000011100000000001111000000011110000111000000001110000000
0111000000111100000001111000011100000000011100000011110000001111100000
1111000000011110
0000000011111100011100000000001111100001111100000111000000001110000000
0111000000111110000111110000011100000000011100000001111000011111100000
0111100001111110
0000000011111100011100000000000111111111111100000111000000001110000000
0111000000011111111111110000011100000000011100000001111111111111100000
0011111111111100
0000000001111100011100000000000001111111110000000111000000001110000000
0111000000000111111111000000011100000000011100000000011111111011100000
0001111111110000
0000000000000000000000000000000000011111000000000000000000000000000000
0000000000000001111100000000000000000000000000000000000111100000000000
0000011111000000
