P1
# ExCyber Power Style
89 25
0000000000000000000000000000000000000000000000000000000000000000000000
0000000000000000000
0000000000111111110000000011100111111100000000000011111110000000000001
1111111000000000000
0000000011111111111100000011101111111111000000001111111111100000000011
1111111100000000000
0000000111111111111110000011111111111111000000011111111111110000000111
1111111110000000000
0000001111000000111110000011111000001111100000011110000011111000001111
0000001111000000000
0000001110000000011110000011110000000111100000111100000001111000001110
0000000111000000000
0000001110000000001110000011110000000011100001111000000000111100001110
0000000111000000000
0000000000000000001110000011100000000011100001111000000000111100001111
0000000000000000000
0000000000000000011110000011100000000011100001111000000000011100001111
1110000000000000000
0000000000111111111110000011100000000011100001110000000000011100000111
1111110000000000000
0000000011111111111110000011100000000011100001110000000000011100000011
1111111110000000000
0000001111111111001110000011100000000011100001110000000000011100000000
1111111111000000000
0000001111100000001110000011100000000011100001110000000000011100000000
0000111111100000000
0000011110000000001110000011100000000011100001111000000000011100000000
0000000111100000000
0000011110000000011110000011100000000011100001111000000000111100001110
0000000111100000000
0000011110000000011110000011100000000011100000111000000000111100011110
0000000011100000000
0000011110000000111110000011100000000011100000111100000001111000001111
0000000111100001111
0000011111000011111111000011100000000011100000011110000111111000001111
1000001111000001111
0000001111111111101111000011100000000011100000001111111111110000000111
1111111111000001111
0000000111111111001111000011100000000011100000000111111111000000000011
1111111100000001111
0000000000111000000000000000000000000000000000000001111100000000000000
1111110000000000011
0000000000000000000000000000000000000000000000000000000000000000000000
0000000000000000011
0000000000000000000000000000000000000000000000000000000000000000000000
0000000000000000111
0000000000000000000000000000000000000000000000000000000000000000000000
0000000000000001110
0000000000000000000000000000000000000000000000000000000000000000000000
0000000000000001100
