P1
# ExCyber Power Style
14 27
00000000000000
00000000000011
00000000000111
00000000001111
00000000011111
00000000111111
00000011111111
00000111110111
00000111100111
00000110000111
00000000000111
00000000000111
00000000000111
00000000000111
00000000000111
00000000000111
00000000000111
00000000000111
00000000000111
00000000000111
00000000000111
00000000000111
00000000000111
00000000000111
00000000000111
00000000000111
00000000000111
