P1
# ExCyber Power Style
90 35
0000000000000000000000000000000000000000000000000000000000000000000000
00000000000000000000
0000000000000000000000000011100000000000000000000000000000000000001110
00000000000000000000
0000000000000000000000000011100000000000000000000000000000000000001110
00000000000000000000
0000000000000000000000000011100000000000000000000000000000000000001110
00000000000000000000
0000000000000000000000000011100000000000000000000000000000000000001110
00000000000000000000
0000000000000000000000000000000000000000000000000000000000000000001110
00000000000000000000
0000000000000000000000000000000000000000000000000000000000000000001110
00000000000000000000
0000000000000000000000000000000000000000000000000000000000000000001110
00000000000000000000
0000000000111111110000000011100000111000000000111000000000111111001110
00000000111111110000
0000000011111111111100000011100000111000000000111000000011111111101110
00000011111111111100
0000000111111111111110000011100000111000000000111000000111111111111110
00000111111111111110
0000001111000000111110000011100000111000000000111000001111100001111110
00001111000000111110
0000001110000000011110000011100000111000000000111000001111000000011110
00001110000000011110
0000001110000000001110000011100000111000000000111000011110000000011110
00001110000000001110
0000000000000000001110000011100000111000000000111000011110000000001110
00000000000000001110
0000000000000000011110000011100000111000000000111000011110000000001110
00000000000000011110
0000000000111111111110000011100000111000000000111000011100000000001110
00000000111111111110
0000000011111111111110000011100000111000000000111000011100000000001110
00000011111111111110
0000001111111111001110000011100000111000000000111000011100000000001110
00001111111111001110
0000001111100000001110000011100000111000000000111000011100000000001110
00001111100000001110
0000011110000000001110000011100000111000000000111000011110000000001110
00011110000000001110
0000011110000000011110000011100000111000000000111000011110000000001110
00011110000000011110
0000011110000000011110000011100000111100000001111000001110000000011110
00011110000000011110
0000011110000000111110000011100000111100000011111000001111000000111110
00011110000000111110
0000011111000011111111000011100000111110000111111000000111100001111110
00011111000011111111
0000001111111111101111000011100000011111111111111000000111111111111110
00001111111111101111
0000000111111111001111000011100000001111111110111000000001111111101110
00000111111111001111
0000000000111000000000000011100000000011111000111000000000011110000000
00000000111000000000
0000000000000000000000000011100000000000000000000000000000000000000000
00000000000000000000
0000000000000000000000000011100000000000000000000000000000000000000000
00000000000000000000
0000000000000000000000000011100000000000000000000000000000000000000000
00000000000000000000
0000000000000000000000000111100000000000000000000000000000000000000000
00000000000000000000
0000000000000000000000111111100000000000000000000000000000000000000000
00000000000000000000
0000000000000000000000111111000000000000000000000000000000000000000000
00000000000000000000
0000000000000000000000111110000000000000000000000000000000000000000000
00000000000000000000
