P1
# ExCyber Power Style
66 32
000000000000000000000000000000000000000000000000000000000000000000
000001110000011100000000000000000000000000000000000000000000000000
000001110000011100000000000000000000000000000000000000000000000000
000001110000011100000000000000000000000000000000000000000000000000
000001110000011100000000000000000000000000000000000000000000000000
000001110000000000000000000000000000000000000000000000000000000000
000001110000000000000000000000000000000000000000000000000000000000
000001110000000000000000000000000000000000000000000000000000000000
000001110000011100000111001111111000000000000011111110000000000000
000001110000011100000111011111111110000000001111111111000000000000
000001110000011100000111111111111110000000011111111111110000000000
000001110000011100000111110000011111000000111110000011110000000000
000001110000011100000111100000001111000000111100000001111000000000
000001110000011100000111100000000111000001111000000000111000000000
000001110000011100000111000000000111000001110000000000111100000000
000001110000011100000111000000000111000001110000000000111100000000
000001110000011100000111000000000111000001111111111111111100000000
000001110000011100000111000000000111000011111111111111111100000000
000001110000011100000111000000000111000001111111111111111100000000
000001110000011100000111000000000111000001110000000000000000000000
000001110000011100000111000000000111000001110000000000000000000000
000001110000011100000111000000000111000001111000000000111100000000
000001110000011100000111000000000111000001111000000000111100000000
000001110000011100000111000000000111000000111100000001111000001111
000001110000011100000111000000000111000000111110000111110000001111
000001110000011100000111000000000111000000011111111111110000001111
000001110000011100000111000000000111000000000111111111000000001111
000000000000000000000000000000000000000000000001111100000000000011
000000000000000000000000000000000000000000000000000000000000000011
000000000000000000000000000000000000000000000000000000000000000111
000000000000000000000000000000000000000000000000000000000000001110
000000000000000000000000000000000000000000000000000000000000001100
