P1
# ExCyber Power Style
135 32
0000000000000000000000000000000000000000000000000000000000000000000000
00000000000000000000000000000000000000000000000000000000000000000
0000000000000000000000000000000000000000000000000000000000000000000000
00011100000000000000000111000001110000000000000000000000000000000
0000000000000000000000000000000000000000000000000000000000000000000000
00011100000000000000000111000001110000000000000000000000000000000
0000000000000000000000000000000000000000000000000000000000000000000000
00011100000000000000000111000001110000000000000000000000000000000
0000000000000000000000000000000000000000000000000000000000000000000000
00011100000000000000000111000001110000000000000000000000000000000
0000000000000000000000000000000000000000000000000000000000000000000000
00011100000000000000000000000001110000000000000000000000000000000
0000000000000000000000000000000000000000000000000000000000000000000000
00011100000000000000000000000001110000000000000000000000000000000
0000000000000000000000000000000000000000000000000000000000000000000000
00011100000000000000000000000001110000000000000000000000000000000
0000011100111111100001111111000000000001111111000000000000001111111000
00011100111111100000000111000001110000000001111111100000000000000
0000011101111111110011111111100000000111111111110000000000111111111100
00011101111111111000000111000001110000000111111111111000000000000
0000011111111111111111111111100000001111111111111000000001111111111110
00011111111111111000000111000001110000001111111111111100000000000
0000011111000001111110000011110000001111000001111100000011111000001111
00011111100001111100000111000001110000011110000001111100000000000
0000011110000001111100000011110000011110000000111100000011110000000111
00011110000000111100000111000001110000011100000000111100000000000
0000011110000000111100000001110000111100000000011110000111100000000111
10011110000000011100000111000001110000011100000000011100000000000
0000011100000000111000000001110000111100000000011110000111100000000000
00011100000000011100000111000001110000000000000000011100000000000
0000011100000000111000000001110000111100000000001110000111000000000000
00011100000000011100000111000001110000000000000000111100000000000
0000011100000000111000000001110000111000000000001110000111000000000000
00011100000000011100000111000001110000000001111111111100000000000
0000011100000000111000000001110000111000000000001110000111000000000000
00011100000000011100000111000001110000000111111111111100000000000
0000011100000000111000000001110000111000000000001110000111000000000000
00011100000000011100000111000001110000011111111110011100000000000
0000011100000000111000000001110000111000000000001110000111000000000000
00011100000000011100000111000001110000011111000000011100000000000
0000011100000000111000000001110000111100000000001110000111000000000011
00011100000000011100000111000001110000111100000000011100000000000
0000011100000000111000000001110000111100000000011110000111100000000111
10011100000000011100000111000001110000111100000000111100000000000
0000011100000000111000000001110000011100000000011110000111100000000111
10011100000000011100000111000001110000111100000000111100000000000
0000011100000000111000000001110000011110000000111100000011110000001111
00011100000000011100000111000001110000111100000001111100000001111
0000011100000000111000000001110000001111000011111100000011111000011111
00011100000000011100000111000001110000111110000111111110000001111
0000011100000000111000000001110000000111111111111000000001111111111110
00011100000000011100000111000001110000011111111111011110000001111
0000011100000000111000000001110000000011111111100000000000011111111100
00011100000000011100000111000001110000001111111110011110000001111
0000000000000000000000000000000000000000111110000000000000000111100000
00000000000000000000000000000000000000000001110000000000000000011
0000000000000000000000000000000000000000000000000000000000000000000000
00000000000000000000000000000000000000000000000000000000000000011
0000000000000000000000000000000000000000000000000000000000000000000000
00000000000000000000000000000000000000000000000000000000000000111
0000000000000000000000000000000000000000000000000000000000000000000000
00000000000000000000000000000000000000000000000000000000000001110
0000000000000000000000000000000000000000000000000000000000000000000000
00000000000000000000000000000000000000000000000000000000000001100
