P1
# ExCyber Power Style
61 28
0000000000000000000000000000000000000000000000000000000000000
0000000000000000001110000000000000000000000000000000000000000
0000000000000000001110000000000000000000000000000000000000000
0000000000000000001110000000000000000000000000000000000000000
0000000000000000001110000000000000000000000000000000000000000
0000000000000000001110000000000000000000000000000000000000000
0000000000000000001110000000000000000000000000000000000000000
0000000000000000001110000000000000000000000000000000000000000
0000000000111111001110000000001111111100000000000111111110000
0000000011111111101110000000111111111111000000001111111111000
0000000111111111111110000001111111111111100000011111111111100
0000001111100001111110000011110000001111100000111100000011110
0000001111000000011110000011100000000111100000111000000001110
0000011110000000011110000011100000000011100000111000000001110
0000011110000000001110000000000000000011100000111100000000000
0000011110000000001110000000000000000111100000111111100000000
0000011100000000001110000000001111111111100000011111111100000
0000011100000000001110000000111111111111100000001111111111100
0000011100000000001110000011111111110011100000000011111111110
0000011100000000001110000011111000000011100000000000001111111
0000011110000000001110000111100000000011100000000000000001111
0000011110000000001110000111100000000111100000111000000001111
0000001110000000011110000111100000000111100001111000000000111
0000001111000000111110000111100000001111100000111100000001111
0000000111100001111110000111110000111111110000111110000011110
0000000111111111111110000011111111111011110000011111111111110
0000000001111111101110000001111111110011110000001111111111000
0000000000011110000000000000001110000000000000000011111100000
