P1
# ExCyber Power Style
133 34
0000000000000000000000000000000000000000000000000000000000000000000000
000000000000000000000000000000000000000000000000000000000000000
0000000000000000000000000000000000000000000000000000000000000000000000
000000000000000000011100000000000000000000000000000000000000000
0000000000000000000000000000000000000000000000000000000000000000000000
000000000000000000011100000000000000000000000000000000000000000
0000000000000000000000000000000000000000000000000000000000000000000000
000000000000000000011100000000000000000000000000000000000000000
0000000000000000000000000000000000000000000000000000000000000000000000
000000000000000000011100000000000000000000000000000000000000000
0000000000000000000000000000000000000000000000000000000000000000000000
000000000000000000011100000000000000000000000000000000000000000
0000000000000000000000000000000000000000000000000000000000000000000000
000000000000000000011100000000000000000000000000000000000000000
0000000000000000000000000000000000000000000000000000000000000000000000
000000000000000000011100000000000000000000000000000000000000000
0000011100111111100000000111001111100000001111111000000001110011111110
000000000001111110011100000000000111111100000000111000000000111
0000011111111111110000000111011111100000111111111100000001110111111111
100000000111111111011100000000011111111110000000111000000000111
0000011111110011111000000111111111100001111111111111000001111111111111
100000001111111111111100000000111111111111100000111000000000111
0000011111000000111100000111111001000011111000001111000001111100000111
110000011111000011111100000001111100000111100000111000000000111
0000011110000000011100000111100000000011110000000111100001111000000011
110000011110000000111100000001111000000011110000111000000000111
0000011110000000011110000111100000000111100000000011100001111000000001
110000111100000000111100000011110000000001110000111000000000111
0000011100000000001110000111100000000111000000000011110001110000000001
110000111100000000011100000011100000000001111000111000000000111
0000011100000000001110000111000000000111000000000011110001110000000001
110000111100000000011100000011100000000001111000111000000000111
0000011100000000001110000111000000000111111111111111110001110000000001
110000111000000000011100000011111111111111111000111000000000111
0000011100000000001110000111000000001111111111111111110001110000000001
110000111000000000011100000111111111111111111000111000000000111
0000011100000000001110000111000000000111111111111111110001110000000001
110000111000000000011100000011111111111111111000111000000000111
0000011100000000001110000111000000000111000000000000000001110000000001
110000111000000000011100000011100000000000000000111000000000111
0000011100000000011110000111000000000111000000000000000001110000000001
110000111100000000011100000011100000000000000000111000000000111
0000011110000000011110000111000000000111100000000011110001110000000001
110000111100000000011100000011110000000001111000111000000000111
0000011110000000011100000111000000000111100000000011110001110000000001
110000011100000000111100000011110000000001111000111100000001111
0000011111000000111100000111000000000011110000000111100001110000000001
110000011110000001111100000001111000000011110000111100000011111
0000011111111111111000000111000000000011111000011111000001110000000001
110000001111000011111100000001111100001111100000111110000111111
0000011111111111110000000111000000000001111111111111000001110000000001
110000001111111111111100000000111111111111100000011111111111111
0000011100111111100000000111000000000000011111111100000001110000000001
110000000011111111011100000000001111111110000000001111111110111
0000011100000000000000000000000000000000000111110000000000000000000000
000000000000111100000000000000000011111000000000000011111000111
0000011100000000000000000000000000000000000000000000000000000000000000
000000000000000000000000000000000000000000000000000000000000000
0000011100000000000000000000000000000000000000000000000000000000000000
000000000000000000000000000000000000000000000000000000000000000
0000011100000000000000000000000000000000000000000000000000000000000000
000000000000000000000000000000000000000000000000000000000000000
0000011100000000000000000000000000000000000000000000000000000000000000
000000000000000000000000000000000000000000000000000000000000000
0000011100000000000000000000000000000000000000000000000000000000000000
000000000000000000000000000000000000000000000000000000000000000
0000011100000000000000000000000000000000000000000000000000000000000000
000000000000000000000000000000000000000000000000000000000000000
