P1
# ExCyber Power Style
41 21
00000000000000000000000000000000000000000
00000000001111111000000000111000000000111
00000000111111111110000000111000000000111
00000001111111111111000000111000000000111
00000001111000001111100000111000000000111
00000011110000000111100000111000000000111
00000111100000000011110000111000000000111
00000111100000000011110000111000000000111
00000111100000000001110000111000000000111
00000111000000000001110000111000000000111
00000111000000000001110000111000000000111
00000111000000000001110000111000000000111
00000111000000000001110000111000000000111
00000111100000000001110000111000000000111
00000111100000000011110000111000000000111
00000011100000000011110000111100000001111
00000011110000000111100000111100000011111
00000001111000011111100000111110000111111
00000000111111111111000000011111111111111
00000000011111111100000000001111111110111
00000000000111110000000000000011111000111
