P1
# ExCyber Power Style
92 28
0000000000000000000000000000000000000000000000000000000000000000000000
0000000000000000000000
0000000000000000000000000000000000000000000000000111000000000000000000
0000000000000000000000
0000000000100000000000000000000000000000000000000111000000000000000000
0000000000000000000000
0000000011100000000000000000000000000000000000000111000000000000000000
0000000000000000000000
0000000011100000000000000000000000000000000000000111000000000000000000
0000000000000000000000
0000000011100000000000000000000000000000000000000111000000000000000000
0000000000000000000000
0000000011100000000000000000000000000000000000000111000000000000000000
0000000000000000000000
0000000011100000000000000000000000000000000000000111000000000000000000
0000000000000000000000
0000011111111100000001111111000000000000011111100111000000000111111110
0000000000111111110000
0000011111111100000111111111110000000001111111110111000000011111111111
1000000001111111111000
0000011111111100001111111111111000000011111111111111000000111111111111
1100000011111111111100
0000000011100000001111000001111100000111110000111111000001111000000111
1100000111100000011110
0000000011100000011110000000111100000111100000001111000001110000000011
1100000111000000001110
0000000011100000111100000000011110001111000000001111000001110000000001
1100000111000000001110
0000000011100000111100000000011110001111000000000111000000000000000001
1100000111100000000000
0000000011100000111100000000001110001111000000000111000000000000000011
1100000111111100000000
0000000011100000111000000000001110001110000000000111000000000111111111
1100000011111111100000
0000000011100000111000000000001110001110000000000111000000011111111111
1100000001111111111100
0000000011100000111000000000001110001110000000000111000001111111111001
1100000000011111111110
0000000011100000111000000000001110001110000000000111000001111100000001
1100000000000001111111
0000000011100000111100000000001110001111000000000111000011110000000001
1100000000000000001111
0000000011100000111100000000011110001111000000000111000011110000000011
1100000111000000001111
0000000011100000011100000000011110000111000000001111000011110000000011
1100001111000000000111
0000000011100000011110000000111100000111100000011111000011110000000111
1100000111100000001111
0000000011111100001111000011111100000011110000111111000011111000011111
1110000111110000011110
0000000011111100000111111111111000000011111111111111000001111111111101
1110000011111111111110
0000000001111100000011111111100000000000111111110111000000111111111001
1110000001111111111000
0000000000000000000000111110000000000000001111000000000000000111000000
0000000000011111100000
