P1
# ExCyber Power Style
132 28
0000000000000000000000000000000000000000000000000000000000000000000000
00000000000000000000000000000000000000000000000000000000000000
0000000000000000000000000000000000000000000000000000000000000000000000
00000000000000000011100000111000000000000000000000000000000000
0000000000000000000000000000000000000000000000000000000000000000000000
00000000000000000011100000111000000000000000000000000000000000
0000000000000000000000000000000000000000000000000000000000000000000000
00000000000000000011100000111000000000000000000000000000000000
0000000000000000000000000000000000000000000000000000000000000000000000
00000000000000000011100000111000000000000000000000000000000000
0000000000000000000000000000000000000000000000000000000000000000000000
00000000000000000011100000111000000000000000000000000000000000
0000000000000000000000000000000000000000000000000000000000000000000000
00000000000000000011100000111000000000000000000000000000000000
0000000000000000000000000000000000000000000000000000000000000000000000
00000000000000000011100000111000000000000000000000000000000000
0000011100111111100001111111000000011100000000011100000011100111110000
00111111110000000011100000111001111111000000000000111111110000
0000011101111111110011111111100000011100000000011100000011101111110000
11111111111100000011100000111011111111110000000011111111111100
0000011111111111111111111111100000011100000000011100000011111111110001
11111111111110000011100000111111111111110000000111111111111110
0000011111000001111110000011110000011100000000011100000011111100100011
11000000111110000011100000111111000011111000001111000000111110
0000011110000001111100000011110000011100000000011100000011110000000011
10000000011110000011100000111100000001111000001110000000011110
0000011110000000111100000001110000011100000000011100000011110000000011
10000000001110000011100000111100000000111000001110000000001110
0000011100000000111000000001110000011100000000011100000011110000000000
00000000001110000011100000111000000000111000000000000000001110
0000011100000000111000000001110000011100000000011100000011100000000000
00000000011110000011100000111000000000111000000000000000011110
0000011100000000111000000001110000011100000000011100000011100000000000
00111111111110000011100000111000000000111000000000111111111110
0000011100000000111000000001110000011100000000011100000011100000000000
11111111111110000011100000111000000000111000000011111111111110
0000011100000000111000000001110000011100000000011100000011100000000011
11111111001110000011100000111000000000111000001111111111001110
0000011100000000111000000001110000011100000000011100000011100000000011
11100000001110000011100000111000000000111000001111100000001110
0000011100000000111000000001110000011100000000011100000011100000000111
10000000001110000011100000111000000000111000011110000000001110
0000011100000000111000000001110000011100000000011100000011100000000111
10000000011110000011100000111000000000111000011110000000011110
0000011100000000111000000001110000011110000000111100000011100000000111
10000000011110000011100000111000000000111000011110000000011110
0000011100000000111000000001110000011110000001111100000011100000000111
10000000111110000011100000111000000000111000011110000000111110
0000011100000000111000000001110000011111000011111100000011100000000111
11000011111111000011100000111000000000111000011111000011111111
0000011100000000111000000001110000001111111111111100000011100000000011
11111111101111000011100000111000000000111000001111111111101111
0000011100000000111000000001110000000111111111011100000011100000000001
11111111001111000011100000111000000000111000000111111111001111
0000000000000000000000000000000000000001111100011100000000000000000000
00111000000000000000000000000000000000000000000000111000000000
