P1
# ExCyber Power Style
68 21
00000000000000000000000000000000000000000000000000000000000000000000
00000000001111111000000000011111110000000001110011111110000111111100
00000000111111111100000001111111111100000001110111111111001111111110
00000001111111111110000011111111111110000001111111111111111111111110
00000011111000001111000011110000011111000001111100000111111000001111
00000011110000000111000111100000001111000001111000000111110000001111
00000111100000000111101111000000000111100001111000000011110000000111
00000111100000000000001111000000000111100001110000000011100000000111
00000111000000000000001111000000000011100001110000000011100000000111
00000111000000000000001110000000000011100001110000000011100000000111
00000111000000000000001110000000000011100001110000000011100000000111
00000111000000000000001110000000000011100001110000000011100000000111
00000111000000000000001110000000000011100001110000000011100000000111
00000111000000000011001111000000000011100001110000000011100000000111
00000111100000000111101111000000000111100001110000000011100000000111
00000111100000000111100111000000000111100001110000000011100000000111
00000011110000001111000111100000001111000001110000000011100000000111
00000011111000011111000011110000111111000001110000000011100000000111
00000001111111111110000001111111111110000001110000000011100000000111
00000000011111111100000000111111111000000001110000000011100000000111
00000000000111100000000000001111100000000000000000000000000000000000
