P1
# ExCyber Power Style
121 28
0000000000000000000000000000000000000000000000000000000000000000000000
000000000000000000000000000000000000000000000000000
0000000000000000000000011100000111000000000001111000000000000000000000
000000000000000000000000000111000000000000000000000
0000000000000000000000011100000111000000000011111100000000000000000000
000000000000000000000000000111000000000000000000000
0000000000000000000000011100000111000000000011111110000000000000000000
000000000000000000000000000111000000000000000000000
0000000000000000000000011100000111000000000111001111000000000000000000
000000000000000000000000000111000000000000000000000
0000000000000000000000000000000111000000001111000111100000000000000000
000000000000000000000000000000000000000000000000000
0000000000000000000000000000000111000000000000000000000000000000000000
000000000000000000000000000000000000000000000000000
0000000000000000000000000000000111000000000000000000000000000000000000
000000000000000000000000000000000000000000000000000
0000000011111111000000011100000111000000000011111110000000011100111111
100000000000001111111000000111000000000111111100000
0000000111111111100000011100000111000000001111111111000000011101111111
111000000000111111111100000111000000011111111111000
0000001111111111110000011100000111000000011111111111110000011111111111
111000000001111111111110000111000000111111111111100
0000011110000001111000011100000111000000111110000011110000011111000001
111100000011111000001111000111000000111100000111110
0000011100000000111000011100000111000000111100000001111000011110000000
111100000011110000000111000111000001111000000011110
0000011100000000111000011100000111000001111000000000111000011110000000
011100000111100000000111100111000011110000000001111
0000011110000000000000011100000111000001110000000000111100011100000000
011100000111100000000000000111000011110000000001111
0000011111110000000000011100000111000001110000000000111100011100000000
011100000111000000000000000111000011110000000000111
0000001111111110000000011100000111000001111111111111111100011100000000
011100000111000000000000000111000011100000000000111
0000000111111111110000011100000111000011111111111111111100011100000000
011100000111000000000000000111000011100000000000111
0000000001111111111000011100000111000001111111111111111100011100000000
011100000111000000000000000111000011100000000000111
0000000000000111111100011100000111000001110000000000000000011100000000
011100000111000000000000000111000011100000000000111
0000000000000000111100011100000111000001110000000000000000011100000000
011100000111000000000011000111000011110000000000111
0000011100000000111100011100000111000001111000000000111100011100000000
011100000111100000000111100111000011110000000001111
0000111100000000011100011100000111000001111000000000111100011100000000
011100000111100000000111100111000001110000000001111
0000011110000000111100011100000111000000111100000001111000011100000000
011100000011110000001111000111000001111000000011110
0000011111000001111000011100000111000000111110000111110000011100000000
011100000011111000011111000111000000111100001111110
0000001111111111111000011100000111000000011111111111110000011100000000
011100000001111111111110000111000000011111111111100
0000000111111111100000011100000111000000000111111111000000011100000000
011100000000011111111100000111000000001111111110000
0000000001111110000000000000000000000000000001111100000000000000000000
000000000000000111100000000000000000000011111000000
