P1
# ExCyber Power Style
112 27
0000000000000000000000000000000000000000000000000000000000000000000000
000000000000000000000000000000000000000000
0000011100111110000001111111000000000111000000000111000001110011111110
000000000001111111100000000000111111110000
0000011101111110000111111111110000000111000000000111000001111111111111
000000000111111111111000000001111111111000
0000011111111110001111111111111000000111000000000111000001111111001111
100000001111111111111100000011111111111100
0000011111100100001111000001111100000111000000000111000001111100000011
110000011110000001111100000111100000011110
0000011110000000011110000000111100000111000000000111000001111000000001
110000011100000000111100000111000000001110
0000011110000000111100000000011110000111000000000111000001111000000001
111000011100000000011100000111000000001110
0000011110000000111100000000011110000111000000000111000001110000000000
111000000000000000011100000111100000000000
0000011100000000111100000000001110000111000000000111000001110000000000
111000000000000000111100000111111100000000
0000011100000000111000000000001110000111000000000111000001110000000000
111000000001111111111100000011111111100000
0000011100000000111000000000001110000111000000000111000001110000000000
111000000111111111111100000001111111111100
0000011100000000111000000000001110000111000000000111000001110000000000
111000011111111110011100000000011111111110
0000011100000000111000000000001110000111000000000111000001110000000000
111000011111000000011100000000000001111111
0000011100000000111100000000001110000111000000000111000001110000000001
111000111100000000011100000000000000001111
0000011100000000111100000000011110000111000000000111000001111000000001
111000111100000000111100000111000000001111
0000011100000000011100000000011110000111100000001111000001111000000001
110000111100000000111100001111000000000111
0000011100000000011110000000111100000111100000011111000001111100000011
110000111100000001111100000111100000001111
0000011100000000001111000011111100000111110000111111000001111111111111
100000111110000111111110000111110000011110
0000011100000000000111111111111000000011111111111111000001111111111111
000000011111111111011110000011111111111110
0000011100000000000011111111100000000001111111110111000001110011111110
000000001111111110011110000001111111111000
0000000000000000000000111110000000000000011111000111000001110000000000
000000000001110000000000000000011111100000
0000000000000000000000000000000000000000000000000000000001110000000000
000000000000000000000000000000000000000000
0000000000000000000000000000000000000000000000000000000001110000000000
000000000000000000000000000000000000000000
0000000000000000000000000000000000000000000000000000000001110000000000
000000000000000000000000000000000000000000
0000000000000000000000000000000000000000000000000000000001110000000000
000000000000000000000000000000000000000000
0000000000000000000000000000000000000000000000000000000001110000000000
000000000000000000000000000000000000000000
0000000000000000000000000000000000000000000000000000000001110000000000
000000000000000000000000000000000000000000
