P1
# ExCyber Power Style
92 25
0000000000000000000000000000000000000000000000000000000000000000000000
0000000000000000000000
0000011100111110000001111111100000000111001111100000011111110000000000
0011111111000000000000
0000011101111110000111111111111000000111011111100001111111111100000000
0111111111100000000000
0000011111111110001111111111111100000111111111100011111111111110000000
1111111111110000000000
0000011111100100011110000001111100000111111001000011110000011111000001
1110000001111000000000
0000011110000000011100000000111100000111100000000111100000001111000001
1100000000111000000000
0000011110000000011100000000011100000111100000001111000000000111100001
1100000000111000000000
0000011110000000000000000000011100000111100000001111000000000111100001
1110000000000000000000
0000011100000000000000000000111100000111000000001111000000000011100001
1111110000000000000000
0000011100000000000001111111111100000111000000001110000000000011100000
1111111110000000000000
0000011100000000000111111111111100000111000000001110000000000011100000
0111111111110000000000
0000011100000000011111111110011100000111000000001110000000000011100000
0001111111111000000000
0000011100000000011111000000011100000111000000001110000000000011100000
0000000111111100000000
0000011100000000111100000000011100000111000000001111000000000011100000
0000000000111100000000
0000011100000000111100000000111100000111000000001111000000000111100001
1100000000111100000000
0000011100000000111100000000111100000111000000000111000000000111100011
1100000000011100000000
0000011100000000111100000001111100000111000000000111100000001111000001
1110000000111100001111
0000011100000000111110000111111110000111000000000011110000111111000001
1111000001111000001111
0000011100000000011111111111011110000111000000000001111111111110000000
1111111111111000001111
0000011100000000001111111110011110000111000000000000111111111000000000
0111111111100000001111
0000000000000000000001110000000000000000000000000000001111100000000000
0001111110000000000011
0000000000000000000000000000000000000000000000000000000000000000000000
0000000000000000000011
0000000000000000000000000000000000000000000000000000000000000000000000
0000000000000000000111
0000000000000000000000000000000000000000000000000000000000000000000000
0000000000000000001110
0000000000000000000000000000000000000000000000000000000000000000000000
0000000000000000001100
