P1
# ExCyber Power Style
64 27
0000000000000000000000000000000000000000000000000000000000000000
0000000001111111001110000001110000000001110000000000111111100000
0000000011111111111110000001110000000001110000000011111111110000
0000000111110011111110000001110000000001110000000111111111111100
0000001111000000111110000001110000000001110000001111100000111100
0000001110000000011110000001110000000001110000001111000000011110
0000011110000000011110000001110000000001110000011110000000001110
0000011110000000001110000001110000000001110000011100000000001111
0000011100000000001110000001110000000001110000011100000000001111
0000011100000000001110000001110000000001110000011111111111111111
0000011100000000001110000001110000000001110000111111111111111111
0000011100000000001110000001110000000001110000011111111111111111
0000011110000000001110000001110000000001110000011100000000000000
0000011110000000001110000001110000000001110000011100000000000000
0000011110000000011110000001110000000001110000011110000000001111
0000001111000000011110000001111000000011110000011110000000001111
0000001111100000111110000001111000000111110000001111000000011110
0000000111111011111110000001111100001111110000001111100001111100
0000000011111111111110000000111111111111110000000111111111111100
0000000001111111001110000000011111111101110000000001111111110000
0000000000000000001110000000000111110001110000000000011111000000
0000000000000000001110000000000000000000000000000000000000000000
0000000000000000001110000000000000000000000000000000000000000000
0000000000000000001110000000000000000000000000000000000000000000
0000000000000000001110000000000000000000000000000000000000000000
0000000000000000001110000000000000000000000000000000000000000000
0000000000000000001110000000000000000000000000000000000000000000
