P1
# ExCyber Power Style
91 28
0000000000000000000000000000000000000000000000000000000000000000000000
000000000000000000000
0000000000000000000000000000000000000000000000000000000000011000001100
000000000000000000000
0000000000000000000000000000000000000000000000001000000000111111001100
000000000000000000000
0000000000000000000000000000000000000000000000111000000001111111111100
000000000000000000000
0000000000000000000000000000000000000000000000111000000001100011111100
000000000000000000000
0000000000000000000000000000000000000000000000111000000001100000110000
000000000000000000000
0000000000000000000000000000000000000000000000111000000000000000000000
000000000000000000000
0000000000000000000000000000000000000000000000111000000000000000000000
000000000000000000000
0000000000111111100000000111001111111000000111111111000000011111111000
000000000111111100000
0000000011111111110000000111011111111110000111111111000001111111111110
000000011111111111000
0000000111111111111100000111111111111110000111111111000011111111111111
000000111111111111100
0000001111100000111100000111110000011111000000111000000111100000011111
000000111100000111110
0000001111000000011110000111100000001111000000111000000111000000001111
000001111000000011110
0000011110000000001110000111100000000111000000111000000111000000000111
000011110000000001111
0000011100000000001111000111000000000111000000111000000000000000000111
000011110000000001111
0000011100000000001111000111000000000111000000111000000000000000001111
000011110000000000111
0000011111111111111111000111000000000111000000111000000000011111111111
000011100000000000111
0000111111111111111111000111000000000111000000111000000001111111111111
000011100000000000111
0000011111111111111111000111000000000111000000111000000111111111100111
000011100000000000111
0000011100000000000000000111000000000111000000111000000111110000000111
000011100000000000111
0000011100000000000000000111000000000111000000111000001111000000000111
000011110000000000111
0000011110000000001111000111000000000111000000111000001111000000001111
000011110000000001111
0000011110000000001111000111000000000111000000111000001111000000001111
000001110000000001111
0000001111000000011110000111000000000111000000111000001111000000011111
000001111000000011110
0000001111100001111100000111000000000111000000111111001111100001111111
100000111100001111110
0000000111111111111100000111000000000111000000111111000111111111110111
100000011111111111100
0000000001111111110000000111000000000111000000011111000011111111100111
100000001111111110000
0000000000011111000000000000000000000000000000000000000000011100000000
000000000011111000000
