P1
# ExCyber Power Style
100 21
0000000000000000000000000000000000000000000000000000000000000000000000
000000000000000000000000000000
0000011100000000001111000000111111100000000000001111111100000000111001
111100111000000000111111110000
0000011100000000001110000011111111111000000000111111111111000000111011
111100111000000011111111111100
0000011110000000011110000111111111111100000001111111111111100000111111
111100111000000111111111111110
0000001110000000011110000111100000111110000011110000001111100000111111
001000111000001111000000111110
0000001110000000011100001111000000011110000011100000000111100000111100
000000111000001110000000011110
0000001111000000111100011110000000001111000011100000000011100000111100
000000111000001110000000001110
0000000111000000111000011110000000001111000000000000000011100000111100
000000111000000000000000001110
0000000111100000111000011110000000000111000000000000000111100000111000
000000111000000000000000011110
0000000111100001111000011100000000000111000000001111111111100000111000
000000111000000000111111111110
0000000011100001110000011100000000000111000000111111111111100000111000
000000111000000011111111111110
0000000011110011110000011100000000000111000011111111110011100000111000
000000111000001111111111001110
0000000001110011110000011100000000000111000011111000000011100000111000
000000111000001111100000001110
0000000001110011100000011110000000000111000111100000000011100000111000
000000111000011110000000001110
0000000001111111100000011110000000001111000111100000000111100000111000
000000111000011110000000011110
0000000000111111000000001110000000001111000111100000000111100000111000
000000111000011110000000011110
0000000000111111000000001111000000011110000111100000001111100000111000
000000111000011110000000111110
0000000000111111000000000111100001111110000111110000111111110000111000
000000111000011111000011111111
0000000000011110000000000011111111111100000011111111111011110000111000
000000111000001111111111101111
0000000000011110000000000001111111110000000001111111110011110000111000
000000111000000111111111001111
0000000000000000000000000000011111000000000000001110000000000000000000
000000000000000000111000000000
