P1
# ExCyber Power Style
50 21
00000000000000000000000000000000000000000000000000
00000111000000000111000001110011111110000111111100
00000111000000000111000001110111111111001111111110
00000111000000000111000001111111111111111111111110
00000111000000000111000001111100000111111000001111
00000111000000000111000001111000000111110000001111
00000111000000000111000001111000000011110000000111
00000111000000000111000001110000000011100000000111
00000111000000000111000001110000000011100000000111
00000111000000000111000001110000000011100000000111
00000111000000000111000001110000000011100000000111
00000111000000000111000001110000000011100000000111
00000111000000000111000001110000000011100000000111
00000111000000000111000001110000000011100000000111
00000111000000000111000001110000000011100000000111
00000111100000001111000001110000000011100000000111
00000111100000011111000001110000000011100000000111
00000111110000111111000001110000000011100000000111
00000011111111111111000001110000000011100000000111
00000001111111110111000001110000000011100000000111
00000000011111000111000000000000000000000000000000
