P1
# ExCyber Power Style
62 28
00000000000000000000000000000000000000000000000000000000000000
00000000000000000011100000000000000000000000000000000000000000
00000000000000000011100000000000000000000000000000000000000000
00000000000000000011100000000000000000000000000000000000000000
00000000000000000011100000000000000000000000000000000000000000
00000000000000000011100000000000000000000000000000000000000000
00000000000000000011100000000000000000000000000000000000000000
00000000000000000011100000000000000000000000000000000000000000
00000000001111110011100000000001111111100000000000111111110000
00000000111111111011100000000111111111111000000001111111111000
00000001111111111111100000001111111111111100000011111111111100
00000011111000011111100000011110000001111100000111100000011110
00000011110000000111100000011100000000111100000111000000001110
00000111100000000111100000011100000000011100000111000000001110
00000111100000000011100000000000000000011100000111100000000000
00000111100000000011100000000000000000111100000111111100000000
00000111000000000011100000000001111111111100000011111111100000
00000111000000000011100000000111111111111100000001111111111100
00000111000000000011100000011111111110011100000000011111111110
00000111000000000011100000011111000000011100000000000001111111
00000111100000000011100000111100000000011100000000000000001111
00000111100000000011100000111100000000111100000111000000001111
00000011100000000111100000111100000000111100001111000000000111
00000011110000001111100000111100000001111100000111100000001111
00000001111000011111100000111110000111111110000111110000011110
00000001111111111111100000011111111111011110000011111111111110
00000000011111111011100000001111111110011110000001111111111000
00000000000111100000000000000001110000000000000000011111100000
