P1
# ExCyber Power Style
96 21
0000000000000000000000000000000000000000000000000000000000000000000000
00000000000000000000000000
0000000000111111100000000000111111110000000000111111110000000000011111
11100000000000111111110000
0000000011111111110000000001111111111000000001111111111000000001111111
11111000000001111111111000
0000000111111111111100000011111111111100000011111111111100000011111111
11111100000011111111111100
0000001111100000111100000111100000011110000111100000011110000111100000
01111100000111100000011110
0000001111000000011110000111000000001110000111000000001110000111000000
00111100000111000000001110
0000011110000000001110000111000000001110000111000000001110000111000000
00011100000111000000001110
0000011100000000001111000111100000000000000111100000000000000000000000
00011100000111100000000000
0000011100000000001111000111111100000000000111111100000000000000000000
00111100000111111100000000
0000011111111111111111000011111111100000000011111111100000000000011111
11111100000011111111100000
0000111111111111111111000001111111111100000001111111111100000001111111
11111100000001111111111100
0000011111111111111111000000011111111110000000011111111110000111111111
10011100000000011111111110
0000011100000000000000000000000001111111000000000001111111000111110000
00011100000000000001111111
0000011100000000000000000000000000001111000000000000001111001111000000
00011100000000000000001111
0000011110000000001111000111000000001111000111000000001111001111000000
00111100000111000000001111
0000011110000000001111001111000000000111001111000000000111001111000000
00111100001111000000000111
0000001111000000011110000111100000001111000111100000001111001111000000
01111100000111100000001111
0000001111100001111100000111110000011110000111110000011110001111100001
11111110000111110000011110
0000000111111111111100000011111111111110000011111111111110000111111111
11011110000011111111111110
0000000001111111110000000001111111111000000001111111111000000011111111
10011110000001111111111000
0000000000011111000000000000011111100000000000011111100000000000011100
00000000000000011111100000
