P1
# ExCyber Power Style
41 21
00000000000000000000000000000000000000000
00000000001111111000000000000111111110000
00000000111111111110000000001111111111000
00000001111111111111000000011111111111100
00000001111000001111100000111100000011110
00000011110000000111100000111000000001110
00000111100000000011110000111000000001110
00000111100000000011110000111100000000000
00000111100000000001110000111111100000000
00000111000000000001110000011111111100000
00000111000000000001110000001111111111100
00000111000000000001110000000011111111110
00000111000000000001110000000000001111111
00000111100000000001110000000000000001111
00000111100000000011110000111000000001111
00000011100000000011110001111000000000111
00000011110000000111100000111100000001111
00000001111000011111100000111110000011110
00000000111111111111000000011111111111110
00000000011111111100000000001111111111000
00000000000111110000000000000011111100000
