P1
# ExCyber Power Style
126 26
0000000000100000000000000000000000000000000000000000000000000000000000
00000000000000000000000000000000000000000000000000000000
0000000011100000000000000000000000000000000000000000000000000000000000
00000000000000000000000000000000000000000000000000000000
0000000011100000000000000000000000000000000000000000000000000000000000
00000000000000000000000000000000000000000000000000000000
0000000011100000000000000000000000000000000000000000000000000000000000
00000000000000000000000000000000000000000000000000000000
0000000011100000000000000000000000000000000000000000000000000000000000
00000000000000000000000000000000000000000000000000000000
0000000011100000000000000000000000000000000000000000000000000000000000
00000000000000000000000000000000000000000000000000000000
0000011111111100000000111111100000000111001111100111001111100000001111
11100000000111001111111000000000000111111100000000000000
0000011111111100000011111111110000000111011111100111011111100000111111
11110000000111011111111110000000011111111111000000000000
0000011111111100000111111111111100000111111111100111111111100001111111
11111100000111111111111110000000111111111111100000000000
0000000011100000001111100000111100000111111001000111111001000011111000
00111100000111110000011111000000111100000111110000000000
0000000011100000001111000000011110000111100000000111100000000011110000
00011110000111100000001111000001111000000011110000000000
0000000011100000011110000000001110000111100000000111100000000111100000
00001110000111100000000111000011110000000001111000000000
0000000011100000011100000000001111000111100000000111100000000111000000
00001111000111000000000111000011110000000001111000000000
0000000011100000011100000000001111000111000000000111000000000111000000
00001111000111000000000111000011110000000000111000000000
0000000011100000011111111111111111000111000000000111000000000111111111
11111111000111000000000111000011100000000000111000000000
0000000011100000111111111111111111000111000000000111000000001111111111
11111111000111000000000111000011100000000000111000000000
0000000011100000011111111111111111000111000000000111000000000111111111
11111111000111000000000111000011100000000000111000000000
0000000011100000011100000000000000000111000000000111000000000111000000
00000000000111000000000111000011100000000000111000000000
0000000011100000011100000000000000000111000000000111000000000111000000
00000000000111000000000111000011110000000000111000000000
0000000011100000011110000000001111000111000000000111000000000111100000
00001111000111000000000111000011110000000001111000000000
0000000011100000011110000000001111000111000000000111000000000111100000
00001111000111000000000111000001110000000001111000000000
0000000011100000001111000000011110000111000000000111000000000011110000
00011110000111000000000111000001111000000011110000000111
0000000011111100001111100001111100000111000000000111000000000011111000
01111100000111000000000111000000111100001111110000001111
0000000011111100000111111111111100000111000000000111000000000001111111
11111100000111000000000111000000011111111111100000001111
0000000001111100000001111111110000000111000000000111000000000000011111
11110000000111000000000111000000001111111110000000001111
0000000000000000000000011111000000000000000000000000000000000000000111
11000000000000000000000000000000000011111000000000000000
