P1
# ExCyber Power Style
152 26
0000000000000000000000000000000000000000000000100000000000000000000000
0000000000000000001000000000000000000000000000000000000000000000000000
000000000000
0000000000000000000000000000000000000000000011100000000000000000000000
0000000000000000111000000000000000000000000000000000000000000000000000
000000000000
0000000000000000000000000000000000000000000011100000000000000000000000
0000000000000000111000000000000000000000000000000000000000000000000000
000000000000
0000000000000000000000000000000000000000000011100000000000000000000000
0000000000000000111000000000000000000000000000000000000000000000000000
000000000000
0000000000000000000000000000000000000000000011100000000000000000000000
0000000000000000111000000000000000000000000000000000000000000000000000
000000000000
0000000000000000000000000000000000000000000011100000000000000000000000
0000000000000000111000000000000000000000000000000000000000000000000000
000000000000
0000000000111111100000000000111111110000011111111100011100111110011100
0000000111000111111111000111000000000111000001110011111000000111111110
000000000000
0000000011111111110000000001111111111000011111111100011101111110011100
0000000111000111111111000111000000000111000001110111111000011111111111
100000000000
0000000111111111111100000011111111111100011111111100011111111110011100
0000000111000111111111000111000000000111000001111111111000111111111111
110000000000
0000001111100000111100000111100000011110000011100000011111100100011100
0000000111000000111000000111000000000111000001111110010001111000000111
110000000000
0000001111000000011110000111000000001110000011100000011110000000011100
0000000111000000111000000111000000000111000001111000000001110000000011
110000000000
0000011110000000001110000111000000001110000011100000011110000000011100
0000000111000000111000000111000000000111000001111000000001110000000001
110000000000
0000011100000000001111000111100000000000000011100000011110000000011100
0000000111000000111000000111000000000111000001111000000000000000000001
110000000000
0000011100000000001111000111111100000000000011100000011100000000011100
0000000111000000111000000111000000000111000001110000000000000000000011
110000000000
0000011111111111111111000011111111100000000011100000011100000000011100
0000000111000000111000000111000000000111000001110000000000000111111111
110000000000
0000111111111111111111000001111111111100000011100000011100000000011100
0000000111000000111000000111000000000111000001110000000000011111111111
110000000000
0000011111111111111111000000011111111110000011100000011100000000011100
0000000111000000111000000111000000000111000001110000000001111111111001
110000000000
0000011100000000000000000000000001111111000011100000011100000000011100
0000000111000000111000000111000000000111000001110000000001111100000001
110000000000
0000011100000000000000000000000000001111000011100000011100000000011100
0000000111000000111000000111000000000111000001110000000011110000000001
110000000000
0000011110000000001111000111000000001111000011100000011100000000011100
0000000111000000111000000111000000000111000001110000000011110000000011
110000000000
0000011110000000001111001111000000000111000011100000011100000000011110
0000001111000000111000000111100000001111000001110000000011110000000011
110000000000
0000001111000000011110000111100000001111000011100000011100000000011110
0000011111000000111000000111100000011111000001110000000011110000000111
110000000111
0000001111100001111100000111110000011110000011111100011100000000011111
0000111111000000111111000111110000111111000001110000000011111000011111
111000001111
0000000111111111111100000011111111111110000011111100011100000000001111
1111111111000000111111000011111111111111000001110000000001111111111101
111000001111
0000000001111111110000000001111111111000000001111100011100000000000111
1111110111000000011111000001111111110111000001110000000000111111111001
111000001111
0000000000011111000000000000011111100000000000000000000000000000000001
1111000111000000000000000000011111000111000000000000000000000111000000
000000000000
