P1
# ExCyber Power Style
173 28
0000000000000000000000000000000000000000000000000000000000000000000000
0000000000000000000000000000000000000000000000000000000000000000000000
000000000000000000000000000000000
0000000000000000000000011100000000000000000111000000000000000000000000
0000000000000000000000000000000000000000000000000000000000000000000000
000000000000000000000000000000000
0000000000000000000000011100000000000000000111000000000000000000000000
0000000000000000000000100000000000000000000000000000000000000000000000
000000000000000000000000000000000
0000000000000000000000011100000000000000000111000000000000000000000000
0000000000000000000011100000000000000000000000000000000000000000000000
000000000000000000000000000000000
0000000000000000000000011100000000000000000111000000000000000000000000
0000000000000000000011100000000000000000000000000000000000000000000000
000000000000000000000000000000000
0000000000000000000000011100000000000000000000000000000000000000000000
0000000000000000000011100000000000000000000000000000000000000000000000
000000000000000000000000000000000
0000000000000000000000011100000000000000000000000000000000000000000000
0000000000000000000011100000000000000000000000000000000000000000000000
000000000000000000000000000000000
0000000000000000000000011100000000000000000000000000000000000000000000
0000000000000000000011100000000000000000000000000000000000000000000000
000000000000000000000000000000000
0000000000111111100000011100111111100000000111000000000011111110000000
0001111111000000011111111100000000111111100000000000011111111000000011
100000000001111000000111111110000
0000000011111111110000011101111111111000000111000000001111111111000000
0111111111110000011111111100000011111111110000000001111111111110000011
100000000001110000011111111111100
0000000111111111111000011111111111111000000111000000011111111111100000
1111111111111000011111111100000111111111111100000011111111111111000011
110000000011110000111111111111110
0000001111100000111100011111100001111100000111000000111110000011110000
1111000001111100000011100000001111100000111100000111100000011111000001
110000000011110001111000000111110
0000001111000000011100011110000000111100000111000000111100000001110001
1110000000111100000011100000001111000000011110000111000000001111000001
110000000011100001110000000011110
0000011110000000011110011110000000011100000111000001111000000001111011
1100000000011110000011100000011110000000001110000111000000000111000001
111000000111100001110000000001110
0000011110000000000000011100000000011100000111000001111000000000000011
1100000000011110000011100000011100000000001111000000000000000111000000
111000000111000000000000000001110
0000011100000000000000011100000000011100000111000001110000000000000011
1100000000001110000011100000011100000000001111000000000000001111000000
111100000111000000000000000011110
0000011100000000000000011100000000011100000111000001110000000000000011
1000000000001110000011100000011111111111111111000000011111111111000000
111100001111000000000111111111110
0000011100000000000000011100000000011100000111000001110000000000000011
1000000000001110000011100000111111111111111111000001111111111111000000
011100001110000000011111111111110
0000011100000000000000011100000000011100000111000001110000000000000011
1000000000001110000011100000011111111111111111000111111111100111000000
011110011110000001111111111001110
0000011100000000000000011100000000011100000111000001110000000000000011
1000000000001110000011100000011100000000000000000111110000000111000000
001110011110000001111100000001110
0000011100000000001100011100000000011100000111000001110000000000110011
1100000000001110000011100000011100000000000000001111000000000111000000
001110011100000011110000000001110
0000011110000000011110011100000000011100000111000001111000000001111011
1100000000011110000011100000011110000000001111001111000000001111000000
001111111100000011110000000011110
0000011110000000011110011100000000011100000111000001111000000001111001
1100000000011110000011100000011110000000001111001111000000001111000000
000111111000000011110000000011110
0000001111000000111100011100000000011100000111000000111100000011110001
1110000000111100000011100000001111000000011110001111000000011111000000
000111111000000011110000000111110
0000001111100001111100011100000000011100000111000000111110000111110000
1111000011111100000011111100001111100001111100001111100001111111100000
000111111000000011111000011111111
0000000111111111111000011100000000011100000111000000011111111111100000
0111111111111000000011111100000111111111111100000111111111110111100000
000011110000000001111111111101111
0000000001111111110000011100000000011100000111000000000111111111000000
0011111111100000000001111100000001111111110000000011111111100111100000
000011110000000000111111111001111
0000000000011110000000000000000000000000000000000000000001111000000000
0000111110000000000000000000000000011111000000000000011100000000000000
000000000000000000000111000000000
