P1
# ExCyber Power Style
93 28
0000000000000000000000000000000000000000000000000000000000000000000000
00000000000000000000000
0000000001110000000001111111000000000000011111100011100000000011111110
00000000111000000000111
0000000001110000000111111111110000000001111111111011100000001111111111
10000000111000000000111
0000000001110000001111111111111000000011111111111111100000011111111111
11000000111000000000111
0000000001110000001111000001111100000011110000011111100000011110000011
11100000111000000000111
0000000001110000011110000000111100000111100000001111100000111100000001
11100000111000000000111
0000000001110000111100000000011110000111000000000111100001111000000000
11110000111000000000111
0000000001110000111100000000011110001111000000000111100001111000000000
11110000111000000000111
0000000001110000111100000000001110001111000000000011100001111000000000
01110000111000000000111
0000000001110000111000000000001110001110000000000011100001110000000000
01110000111000000000111
0000000001110000111000000000001110001110000000000011100001110000000000
01110000111000000000111
0000000001110000111000000000001110001110000000000011100001110000000000
01110000111000000000111
0000000001110000111000000000001110001111000000000011100001110000000000
01110000111000000000111
0000000001110000111100000000001110001111000000000111100001111000000000
01110000111000000000111
0000000001110000111100000000011110001111000000000111100001111000000000
11110000111000000000111
0000000001110000011100000000011110000111100000001111100000111000000000
11110000111100000001111
0000000001110000011110000000111100000111110000011111100000111100000001
11100000111100000011111
0000000001110000001111000011111100000011111111111111100000011110000111
11100000111110000111111
0000000001110000000111111111111000000001111111111011100000001111111111
11000000011111111111111
0000000001110000000011111111100000000000011111100011100000000111111111
00000000001111111110111
0000000001110000000000111110000000000000000000000111100000000001111100
00000000000011111000111
0000000001110000000000000000000000000100000000000111100000000000000000
00000000000000000000000
0000000001110000000000000000000000000111000000000111100000000000000000
00000000000000000000000
0000000001110000000000000000000000000111100000001111000000000000000000
00000000000000000000000
0000000011110000000000000000000000000111110000011111000000000000000000
00000000000000000000000
0000011111110000000000000000000000000011111111111110000000000000000000
00000000000000000000000
0000011111100000000000000000000000000001111111111100000000000000000000
00000000000000000000000
0000011111000000000000000000000000000000001111100000000000000000000000
00000000000000000000000
