P1
# ExCyber Power Style
82 28
0000000000000000000000000000000000000000000000000000000000000000000000
000000000000
0000000000000000000000000000000000000000000000000000000001110000000000
000000000000
0000000000000000000000000000000000000000000000000000000001110000000000
000000000000
0000000000000000000000000000000000000000000000000000000001110000000000
000000000000
0000000000000000000000000000000000000000000000000000000001110000000000
000000000000
0000000000000000000000000000000000000000000000000000000001110000000000
000000000000
0000000000000000000000000000000000000000000000000000000001110000000000
000000000000
0000000000000000000000000000000000000000000000000000000001110000000000
000000000000
0000011100111111100000000000011111111000000000000111111001110000000000
111111110000
0000011101111111111000000001111111111110000000011111111101110000000011
111111111100
0000011111111111111000000011111111111111000000111111111111110000000111
111111111110
0000011111000001111100000111100000011111000001111100001111110000001111
000000111110
0000011110000000111100000111000000001111000001111000000011110000001110
000000011110
0000011110000000011100000111000000000111000011110000000011110000001110
000000001110
0000011100000000011100000000000000000111000011110000000001110000000000
000000001110
0000011100000000011100000000000000001111000011110000000001110000000000
000000011110
0000011100000000011100000000011111111111000011100000000001110000000000
111111111110
0000011100000000011100000001111111111111000011100000000001110000000011
111111111110
0000011100000000011100000111111111100111000011100000000001110000001111
111111001110
0000011100000000011100000111110000000111000011100000000001110000001111
100000001110
0000011100000000011100001111000000000111000011110000000001110000011110
000000001110
0000011100000000011100001111000000001111000011110000000001110000011110
000000011110
0000011100000000011100001111000000001111000001110000000011110000011110
000000011110
0000011100000000011100001111000000011111000001111000000111110000011110
000000111110
0000011100000000011100001111100001111111100000111100001111110000011111
000011111111
0000011100000000011100000111111111110111100000111111111111110000001111
111111101111
0000011100000000011100000011111111100111100000001111111101110000000111
111111001111
0000000000000000000000000000011100000000000000000011110000000000000000
111000000000
