P1
# ExCyber Power Style
156 28
0000000000000000000000000000000000000000000000000000000000000000000000
0000000000000000000000000000000000000000000000000000000000000000000000
0000000000000000
0000000000000000000000000111000000000000000000000000000000000000000000
0111000000000000000000000000000000000000000000000000000000000011100000
0000000000000000
0000000000000000000000000111000000000000000000000000000000000000000000
0111000000000000000000000000000000000000000000000000000000000011100000
0000000000000000
0000000000000000000000000111000000000000000000000000000000000000000000
0111000000000000000000000000000000000000000000000000000000000011100000
0000000000000000
0000000000000000000000000111000000000000000000000000000000000000000000
0111000000000000000000000000000000000000000000000000000000000011100000
0000000000000000
0000000000000000000000000000000000000000000000000000000000000000000000
0111000000000000000000000000000000000000000000000000000000000011100000
0000000000000000
0000000000000000000000000000000000000000000000000000000000000000000000
0111000000000000000000000000000000000000000000000000000000000011100000
0000000000000000
0000000000000000000000000000000000000000000000000000000000000000000000
0111000000000000000000000000000000000000000000000000000000000011100000
0000000000000000
0000011100111111100000000111000011100000000001111000000011111110000000
0111000000000111111110000000001110011111110000000000001111110011100000
0000111111100000
0000011101111111111000000111000011100000000001110000001111111111000000
0111000000011111111111100000001110111111111100000000111111111011100000
0011111111111000
0000011111111111111000000111000011110000000011110000011111111111110000
0111000000111111111111110000001111111111111100000001111111111111100000
0111111111111100
0000011111000001111100000111000001110000000011110000111110000011110000
0111000001111000000111110000001111100000111110000011111000011111100000
0111100000111110
0000011110000000111100000111000001110000000011100000111100000001111000
0111000001110000000011110000001111000000011110000011110000000111100000
1111000000011110
0000011110000000011100000111000001111000000111100001111000000000111000
0111000001110000000001110000001111000000001110000111100000000111100001
1110000000001111
0000011100000000011100000111000000111000000111000001110000000000111100
0111000000000000000001110000001110000000001110000111100000000011100001
1110000000001111
0000011100000000011100000111000000111100000111000001110000000000111100
0111000000000000000011110000001110000000001110000111100000000011100001
1110000000000111
0000011100000000011100000111000000111100001111000001111111111111111100
0111000000000111111111110000001110000000001110000111000000000011100001
1100000000000111
0000011100000000011100000111000000011100001110000011111111111111111100
0111000000011111111111110000001110000000001110000111000000000011100001
1100000000000111
0000011100000000011100000111000000011110011110000001111111111111111100
0111000001111111111001110000001110000000001110000111000000000011100001
1100000000000111
0000011100000000011100000111000000001110011110000001110000000000000000
0111000001111100000001110000001110000000001110000111000000000011100001
1100000000000111
0000011100000000011100000111000000001110011100000001110000000000000000
0111000011110000000001110000001110000000001110000111100000000011100001
1110000000000111
0000011100000000011100000111000000001111111100000001111000000000111100
0111000011110000000011110000001110000000001110000111100000000011100001
1110000000001111
0000011100000000011100000111000000000111111000000001111000000000111100
0111000011110000000011110000001110000000001110000011100000000111100000
1110000000001111
0000011100000000011100000111000000000111111000000000111100000001111000
0111000011110000000111110000001110000000001110000011110000001111100000
1111000000011110
0000011100000000011100000111000000000111111000000000111110000111110000
0111000011111000011111111000001110000000001110000001111000011111100000
0111100001111110
0000011100000000011100000111000000000011110000000000011111111111110000
0111000001111111111101111000001110000000001110000001111111111111100000
0011111111111100
0000011100000000011100000111000000000011110000000000000111111111000000
0111000000111111111001111000001110000000001110000000011111111011100000
0001111111110000
0000000000000000000000000000000000000000000000000000000001111100000000
0000000000000111000000000000000000000000000000000000000111100000000000
0000011111000000
