P1
# ExCyber Power Style
138 26
0000000000000000000000000000000000000000000000000000000000000000000100
00000000000000000000000000000000000000000000111000000000000000000000
0000000000000000000000000000000000000000000000000000000000000000011100
00000000000000000000000000000000000000000000111000000000000000000000
0000000000000000000000000000000000000000000000000000000000000000011100
00000000000000000000000000000000000000000000111000000000000000000000
0000000000000000000000000000000000000000000000000000000000000000011100
00000000000000000000000000000000000000000000000000000000000000000000
0000000000000000000000000000000000000000000000000000000000000000011100
00000000000000000000000000000000000000000000000000000000000000000000
0000000000000000000000000000000000000000000000000000000000000000011100
00000000000000000000000000000000000000000000000000000000000000000000
0000011100000000001111000000011111110000000011100111111100000011111111
10000000111111110000000011100111111100000000111000000000111111110000
0000011100000000001110000001111111111000000011101111111111000011111111
10000011111111111100000011101111111111000000111000000011111111111100
0000011110000000011110000011111111111110000011111111111111000011111111
10000111111111111110000011111111111111000000111000000111111111111110
0000001110000000011110000111110000011110000011111000001111100000011100
00001111000000111110000011111000001111100000111000001111000000111110
0000001110000000011100000111100000001111000011110000000111100000011100
00001110000000011110000011110000000111100000111000001110000000011110
0000001111000000111100001111000000000111000011110000000011100000011100
00001110000000001110000011110000000011100000111000001110000000001110
0000000111000000111000001110000000000111100011100000000011100000011100
00000000000000001110000011100000000011100000111000000000000000001110
0000000111100000111000001110000000000111100011100000000011100000011100
00000000000000011110000011100000000011100000111000000000000000011110
0000000111100001111000001111111111111111100011100000000011100000011100
00000000111111111110000011100000000011100000111000000000111111111110
0000000011100001110000011111111111111111100011100000000011100000011100
00000011111111111110000011100000000011100000111000000011111111111110
0000000011110011110000001111111111111111100011100000000011100000011100
00001111111111001110000011100000000011100000111000001111111111001110
0000000001110011110000001110000000000000000011100000000011100000011100
00001111100000001110000011100000000011100000111000001111100000001110
0000000001110011100000001110000000000000000011100000000011100000011100
00011110000000001110000011100000000011100000111000011110000000001110
0000000001111111100000001111000000000111100011100000000011100000011100
00011110000000011110000011100000000011100000111000011110000000011110
0000000000111111000000001111000000000111100011100000000011100000011100
00011110000000011110000011100000000011100000111000011110000000011110
0000000000111111000000000111100000001111000011100000000011100000011100
00011110000000111110000011100000000011100000111000011110000000111110
0000000000111111000000000111110000111110000011100000000011100000011111
10011111000011111111000011100000000011100000111000011111000011111111
0000000000011110000000000011111111111110000011100000000011100000011111
10001111111111101111000011100000000011100000111000001111111111101111
0000000000011110000000000000111111111000000011100000000011100000001111
10000111111111001111000011100000000011100000111000000111111111001111
0000000000000000000000000000001111100000000000000000000000000000000000
00000000111000000000000000000000000000000000000000000000111000000000
