P1
# ExCyber Power Style
40 21
0000000000000000000000000000000000000000
0000000011111111000000000000111111100000
0000000111111111100000000011111111110000
0000001111111111110000000111111111111100
0000011110000001111000001111100000111100
0000011100000000111000001111000000011110
0000011100000000111000011110000000001110
0000011110000000000000011100000000001111
0000011111110000000000011100000000001111
0000001111111110000000011111111111111111
0000000111111111110000111111111111111111
0000000001111111111000011111111111111111
0000000000000111111100011100000000000000
0000000000000000111100011100000000000000
0000011100000000111100011110000000001111
0000111100000000011100011110000000001111
0000011110000000111100001111000000011110
0000011111000001111000001111100001111100
0000001111111111111000000111111111111100
0000000111111111100000000001111111110000
0000000001111110000000000000011111000000
