P1
# ExCyber Power Style
62 32
00000000000000000000000000000000000000000000000000000000000000
00000000001111110000000000000111000000000000000000000000000000
00000000011111110000000000000111000000000000000000000000000000
00000000111111110000000000000111000000000000000000000000000000
00000000111100000000000000000111000000000000000000000000000000
00000000111100000000000000000000000000000000000000000000000000
00000000111000000000000000000000000000000000000000000000000000
00000000111000000000000000000000000000000000000000000000000000
00000011111111100111001111100111000000000111111100000000000000
00000111111111100111011111100111000000011111111111000000000000
00000111111111100111111111100111000000111111111111100000000000
00000000111000000111111001000111000000111100000111110000000000
00000000111000000111100000000111000001111000000011110000000000
00000000111000000111100000000111000011110000000001111000000000
00000000111000000111100000000111000011110000000001111000000000
00000000111000000111000000000111000011110000000000111000000000
00000000111000000111000000000111000011100000000000111000000000
00000000111000000111000000000111000011100000000000111000000000
00000000111000000111000000000111000011100000000000111000000000
00000000111000000111000000000111000011100000000000111000000000
00000000111000000111000000000111000011110000000000111000000000
00000000111000000111000000000111000011110000000001111000000000
00000000111000000111000000000111000001110000000001111000000000
00000000111000000111000000000111000001111000000011110000001111
00000000111000000111000000000111000000111100001111110000001111
00000000111000000111000000000111000000011111111111100000001111
00000000111000000111000000000111000000001111111110000000001111
00000000000000000000000000000000000000000011111000000000000011
00000000000000000000000000000000000000000000000000000000000011
00000000000000000000000000000000000000000000000000000000000111
00000000000000000000000000000000000000000000000000000000001110
00000000000000000000000000000000000000000000000000000000001100
