P1
# ExCyber Power Style
22 21
0000000000000000000000
0000000000111111100000
0000000011111111110000
0000000111111111111100
0000001111100000111100
0000001111000000011110
0000011110000000001110
0000011100000000001111
0000011100000000001111
0000011111111111111111
0000111111111111111111
0000011111111111111111
0000011100000000000000
0000011100000000000000
0000011110000000001111
0000011110000000001111
0000001111000000011110
0000001111100001111100
0000000111111111111100
0000000001111111110000
0000000000011111000000
