P1
# ExCyber Power Style
150 28
0000000000000000000000000000000000000000000000000000000000000000000000
0000000000000000000000000000000000000000000000000000000000000000000000
0000000000
0000000000000000000000000011100000000000000000000000000000000000000000
0000000000000000000000000000000000000000000000000000000000000000000000
0000000000
0000000000000000000000000011100000000000000000000000000000000000000000
0000000000000000000000000000000000000000000000000000000000000000000000
0000000000
0000000000000000000000000011100000000000000000000000000000000000000000
0000000000000000000000000000000000000000000000000000000000000000000000
0000000000
0000000000000000000000000011100000000000000000000000000000000000000000
0000000000000000000000000000000000000000000000000000000000000000000000
0000000000
0000000000000000000000000011100000000000000000000000000000000000000000
0000000000000000000000000000000000000000000000000000000000000000000000
0000000000
0000000000000000000000000011100000000000000000000000000000000000000000
0000000000000000000000000000000000000000000000000000000000000000000000
0000000000
0000000000000000000000000011100000000000000000000000000000000000000000
0000000000000000000000000000000000000000000000000000000000000000000000
0000000000
0000000000111111100000000011100111111000000000000111111110000000000001
1111110000000001110011111111100000000001111000000111111100000000011100
0000000111
0000000011111111111000000011101111111110000000001111111111000000000111
1111111000000001110111111011100000000001110000011111111111000000011100
0000000111
0000000111111111111100000011111111111111000000011111111111100000001111
1111111110000001111111111011110000000011110000111111111111100000011100
0000000111
0000000111100000111110000011111100001111100000111100000011110000011111
0000011110000001111110010001110000000011110000111100000111110000011100
0000000111
0000001111000000011110000011111000000111100000111000000001110000011110
0000001111000001111000000001110000000011100001111000000011110000011100
0000000111
0000011110000000001111000011110000000011110000111000000001110000111100
0000000111000001111000000001111000000111100011110000000001111000011100
0000000111
0000011110000000001111000011100000000011110000111100000000000000111000
0000000111100001111000000000111000000111000011110000000001111000011100
0000000111
0000011110000000000111000011100000000001110000111111100000000000111000
0000000111100001110000000000111100000111000011110000000000111000011100
0000000111
0000011100000000000111000011100000000001110000011111111100000000111111
1111111111100001110000000000111100001111000011100000000000111000011100
0000000111
0000011100000000000111000011100000000001110000001111111111100001111111
1111111111100001110000000000011100001110000011100000000000111000011100
0000000111
0000011100000000000111000011100000000001110000000011111111110000111111
1111111111100001110000000000011110011110000011100000000000111000011100
0000000111
0000011100000000000111000011100000000001110000000000001111111000111000
0000000000000001110000000000001110011110000011100000000000111000011100
0000000111
0000011110000000000111000011100000000001110000000000000001111000111000
0000000000000001110000000000001110011100000011110000000000111000011100
0000000111
0000011110000000001111000011100000000011110000111000000001111000111100
0000000111100001110000000000001111111100000011110000000001111000011100
0000000111
0000001110000000001111000011110000000011110001111000000000111000111100
0000000111100001110000000000000111111000000001110000000001111000011110
0000001111
0000001111000000011110000011111000000111100000111100000001111000011110
0000001111000001110000000000000111111000000001111000000011110000011110
0000011111
0000000111100001111110000011111100011111000000111110000011110000011111
0000111110000001110000000000000111111000000000111100001111110000011111
0000111111
0000000011111111111100000011111111111111000000011111111111110000001111
1111111110000001110000000000000011110000000000011111111111100000001111
1111111111
0000000001111111110000000011101111111100000000001111111111000000000011
1111111000000001110000000000000011110000000000001111111110000000000111
1111110111
0000000000011111000000000000000011110000000000000011111100000000000000
1111100000000000000000000000000000000000000000000011111000000000000001
1111000111
