P1
# ExCyber Power Style
201 35
0000000000000000000000000000000000000000000000000000000000000000000000
0000000000000000000000000000000000000000000000000000000000000000000000
0000000000000000000000000000000000000000000000000000000000000
0000000000000000001110000000000000000000000000000000000000000000000000
0000000000000001110000000000000000000000000000011100000000000000000000
0000000000000000000000000000000000000111000000000000000000000
0000000000000000001110000000000000000000000000000000000000000000000000
0000000000000001110000000000000000000000000000011100000000000000000000
0000000000000000000000000000000000000111000000000000000000000
0000000000000000001110000000000000000000000000000000000000000000000000
0000000000000001110000000000000000000000000000011100000000000000000000
0000000000000000000000000000000000000111000000000000000000000
0000000000000000001110000000000000000000000000000000000000000000000000
0000000000000001110000000000000000000000000000011100000000000000000000
0000000000000000000000000000000000000111000000000000000000000
0000000000000000001110000000000000000000000000000000000000000000000000
0000000000000001110000000000000000000000000000000000000000000000000000
0000000000000000000000000000000000000000000000000000000000000
0000000000000000001110000000000000000000000000000000000000000000000000
0000000000000001110000000000000000000000000000000000000000000000000000
0000000000000000000000000000000000000000000000000000000000000
0000000000000000001110000000000000000000000000000000000000000000000000
0000000000000001110000000000000000000000000000000000000000000000000000
0000000000000000000000000000000000000000000000000000000000000
0000000000111111001110000000000111111100000000000111111110000000000011
1111110000000001110011111100000000011100111110011100000000011111100011
1000000001111111100000000111001111100111000000000111111110000
0000000011111111101110000000011111111110000000001111111111000000001111
1111111100000001110111111111000000011101111110011100000001111111111011
1000000111111111111000000111011111100111000000011111111111100
0000000111111111111110000000111111111111100000011111111111100000011111
1111111110000001111111111111100000011111111110011100000011111111111111
1000001111111111111100000111111111100111000000111111111111110
0000001111100001111110000001111100000111100000111100000011110000111100
0000111110000001111110000111110000011111100100011100000011110000011111
1000011110000001111100000111111001000111000001111000000111110
0000001111000000011110000001111000000011110000111000000001110000111000
0000011110000001111100000011110000011110000000011100000111100000001111
1000011100000000111100000111100000000111000001110000000011110
0000011110000000011110000011110000000001110000111000000001110000111000
0000001110000001111000000001111000011110000000011100000111000000000111
1000011100000000011100000111100000000111000001110000000001110
0000011110000000001110000011100000000001111000111100000000000000000000
0000001110000001110000000001111000011110000000011100001111000000000111
1000000000000000011100000111100000000111000000000000000001110
0000011110000000001110000011100000000001111000111111100000000000000000
0000011110000001110000000000111000011100000000011100001111000000000011
1000000000000000111100000111000000000111000000000000000011110
0000011100000000001110000011111111111111111000011111111100000000000011
1111111110000001110000000000111000011100000000011100001110000000000011
1000000001111111111100000111000000000111000000000111111111110
0000011100000000001110000111111111111111111000001111111111100000001111
1111111110000001110000000000111000011100000000011100001110000000000011
1000000111111111111100000111000000000111000000011111111111110
0000011100000000001110000011111111111111111000000011111111110000111111
1111001110000001110000000000111000011100000000011100001110000000000011
1000011111111110011100000111000000000111000001111111111001110
0000011100000000001110000011100000000000000000000000001111111000111110
0000001110000001110000000000111000011100000000011100001111000000000011
1000011111000000011100000111000000000111000001111100000001110
0000011110000000001110000011100000000000000000000000000001111001111000
0000001110000001110000000000111000011100000000011100001111000000000111
1000111100000000011100000111000000000111000011110000000001110
0000011110000000001110000011110000000001111000111000000001111001111000
0000011110000001110000000001111000011100000000011100001111000000000111
1000111100000000111100000111000000000111000011110000000011110
0000001110000000011110000011110000000001111001111000000000111001111000
0000011110000001111000000001111000011100000000011100000111100000001111
1000111100000000111100000111000000000111000011110000000011110
0000001111000000111110000001111000000011110000111100000001111001111000
0000111110000001111100000011110000011100000000011100000111110000011111
1000111100000001111100000111000000000111000011110000000111110
0000000111100001111110000001111100001111100000111110000011110001111100
0011111111000001111110001111100000011100000000011100000011111111111111
1000111110000111111110000111000000000111000011111000011111111
0000000111111111111110000000111111111111100000011111111111110000111111
1111101111000001111111111111100000011100000000011100000001111111111011
1000011111111111011110000111000000000111000001111111111101111
0000000001111111101110000000001111111110000000001111111111000000011111
1111001111000001110111111110000000011100000000011100000000011111100011
1000001111111110011110000111000000000111000000111111111001111
0000000000011110000000000000000011111000000000000011111100000000000011
1000000000000000000001111000000000000000000000000000000000000000000111
1000000001110000000000000000000000000000000000000111000000000
0000000000000000000000000000000000000000000000000000000000000000000000
0000000000000000000000000000000000000000000000000000000100000000000111
1000000000000000000000000000000000000000000000000000000000000
0000000000000000000000000000000000000000000000000000000000000000000000
0000000000000000000000000000000000000000000000000000000111000000000111
1000000000000000000000000000000000000000000000000000000000000
0000000000000000000000000000000000000000000000000000000000000000000000
0000000000000000000000000000000000000000000000000000000111100000001111
0000000000000000000000000000000000000000000000000000000000000
0000000000000000000000000000000000000000000000000000000000000000000000
0000000000000000000000000000000000000000000000000000000111110000011111
0000000000000000000000000000000000000000000000000000000000000
0000000000000000000000000000000000000000000000000000000000000000000000
0000000000000000000000000000000000000000000000000000000011111111111110
0000000000000000000000000000000000000000000000000000000000000
0000000000000000000000000000000000000000000000000000000000000000000000
0000000000000000000000000000000000000000000000000000000001111111111100
0000000000000000000000000000000000000000000000000000000000000
0000000000000000000000000000000000000000000000000000000000000000000000
0000000000000000000000000000000000000000000000000000000000001111100000
0000000000000000000000000000000000000000000000000000000000000
