P1
# ExCyber Power Style
82 32
0000000000100000000000000000000000000000000000000000000000000000000000
000000000000
0000000011100000000000000000000000000000000000000000000000000000000000
000000000000
0000000011100000000000000000000000000000000000000000000000000000000000
000000000000
0000000011100000000000000000000000000000000000000000000000000000000000
000000000000
0000000011100000000000000000000000000000000000000000000000000000000000
000000000000
0000000011100000000000000000000000000000000000000000000000000000000000
000000000000
0000011111111100000001111111000000000111001111111000000000000111111100
000000000000
0000011111111100000111111111110000000111111111111100000000011111111111
000000000000
0000011111111100001111111111111000000111111100111110000000111111111111
100000000000
0000000011100000001111000001111100000111110000001111000000111100000111
110000000000
0000000011100000011110000000111100000111100000000111000001111000000011
110000000000
0000000011100000111100000000011110000111100000000111100011110000000001
111000000000
0000000011100000111100000000011110000111000000000011100011110000000001
111000000000
0000000011100000111100000000001110000111000000000011100011110000000000
111000000000
0000000011100000111000000000001110000111000000000011100011100000000000
111000000000
0000000011100000111000000000001110000111000000000011100011100000000000
111000000000
0000000011100000111000000000001110000111000000000011100011100000000000
111000000000
0000000011100000111000000000001110000111000000000011100011100000000000
111000000000
0000000011100000111100000000001110000111000000000111100011110000000000
111000000000
0000000011100000111100000000011110000111100000000111100011110000000001
111000000000
0000000011100000011100000000011110000111100000000111000001110000000001
111000000000
0000000011100000011110000000111100000111110000001111000001111000000011
110000001111
0000000011111100001111000011111100000111111111111110000000111100001111
110000001111
0000000011111100000111111111111000000111111111111100000000011111111111
100000001111
0000000001111100000011111111100000000111001111111000000000001111111110
000000001111
0000000000000000000000111110000000000111000000000000000000000011111000
000000000011
0000000000000000000000000000000000000111000000000000000000000000000000
000000000011
0000000000000000000000000000000000000111000000000000000000000000000000
000000000111
0000000000000000000000000000000000000111000000000000000000000000000000
000000001110
0000000000000000000000000000000000000111000000000000000000000000000000
000000001100
0000000000000000000000000000000000000111000000000000000000000000000000
000000000000
0000000000000000000000000000000000000111000000000000000000000000000000
000000000000
