P1
# ExCyber Power Style
116 26
0000000000000000000000000000000000000000000000000000000000000000000000
0000000001000000000000000000000000000000000000
0000000000000000000000000000000000000000000000000000000000000000000000
0000000111000000000000000000000000000000000000
0000000000000000000000000000000000000000000000000000000000000000000000
0000000111000000000000000000000000000000000000
0000000000000000000000000000000000000000000000000000000000000000000000
0000000111000000000000000000000000000000000000
0000000000000000000000000000000000000000000000000000000000000000000000
0000000111000000000000000000000000000000000000
0000000000000000000000000000000000000000000000000000000000000000000000
0000000111000000000000000000000000000000000000
0000011100111111100001111111000000000001111111100000000011100111111100
0000111111111000000001111111000000001110011111
0000011101111111110011111111100000000111111111111000000011101111111111
0000111111111000000111111111100000001110111111
0000011111111111111111111111100000001111111111111100000011111111111111
0000111111111000001111111111111000001111111111
0000011111000001111110000011110000011110000001111100000011111000001111
1000000111000000011111000001111000001111110010
0000011110000001111100000011110000011100000000111100000011110000000111
1000000111000000011110000000111100001111000000
0000011110000000111100000001110000011100000000011100000011110000000011
1000000111000000111100000000011100001111000000
0000011100000000111000000001110000000000000000011100000011100000000011
1000000111000000111000000000011110001111000000
0000011100000000111000000001110000000000000000111100000011100000000011
1000000111000000111000000000011110001110000000
0000011100000000111000000001110000000001111111111100000011100000000011
1000000111000000111111111111111110001110000000
0000011100000000111000000001110000000111111111111100000011100000000011
1000000111000001111111111111111110001110000000
0000011100000000111000000001110000011111111110011100000011100000000011
1000000111000000111111111111111110001110000000
0000011100000000111000000001110000011111000000011100000011100000000011
1000000111000000111000000000000000001110000000
0000011100000000111000000001110000111100000000011100000011100000000011
1000000111000000111000000000000000001110000000
0000011100000000111000000001110000111100000000111100000011100000000011
1000000111000000111100000000011110001110000000
0000011100000000111000000001110000111100000000111100000011100000000011
1000000111000000111100000000011110001110000000
0000011100000000111000000001110000111100000001111100000011100000000011
1000000111000000011110000000111100001110000000
0000011100000000111000000001110000111110000111111110000011100000000011
1000000111111000011111000011111000001110000000
0000011100000000111000000001110000011111111111011110000011100000000011
1000000111111000001111111111111000001110000000
0000011100000000111000000001110000001111111110011110000011100000000011
1000000011111000000011111111100000001110000000
0000000000000000000000000000000000000001110000000000000000000000000000
0000000000000000000000111110000000000000000000
