P1
# ExCyber Power Style
44 28
00000000000000000000000000000000000000000000
00000000000000000011100000000000000000000000
00000000000000000011100000000000000000000000
00000000000000000011100000000000000000000000
00000000000000000011100000000000000000000000
00000000000000000011100000000000000000000000
00000000000000000011100000000000000000000000
00000000000000000011100000000000000000000000
00000000001111110011100000000000111111100000
00000000111111111011100000000011111111110000
00000001111111111111100000000111111111111100
00000011111000011111100000001111100000111100
00000011110000000111100000001111000000011110
00000111100000000111100000011110000000001110
00000111100000000011100000011100000000001111
00000111100000000011100000011100000000001111
00000111000000000011100000011111111111111111
00000111000000000011100000111111111111111111
00000111000000000011100000011111111111111111
00000111000000000011100000011100000000000000
00000111100000000011100000011100000000000000
00000111100000000011100000011110000000001111
00000011100000000111100000011110000000001111
00000011110000001111100000001111000000011110
00000001111000011111100000001111100001111100
00000001111111111111100000000111111111111100
00000000011111111011100000000001111111110000
00000000000111100000000000000000011111000000
