P1
# ExCyber Power Style
107 28
0000000000000000000000000000000000000000000000000000000000000000000000
0000000000000000000000000000000000000
0000000000000000000000000000000000000000000111000000000000000000000000
0000000000000111000000000000000000000
0000000000000000000000000000000000000000000111000000000000000000000000
0000000000000111000000000000000000000
0000000000000000000000000000000000000000000111000000000000000000000000
0000000000000111000000000000000000000
0000000000000000000000000000000000000000000111000000000000000000000000
0000000000000111000000000000000000000
0000000000000000000000000000000000000000000111000000000000000000000000
0000000000000111000000000000000000000
0000000000000000000000000000000000000000000111000000000000000000000000
0000000000000111000000000000000000000
0000000000000000000000000000000000000000000111000000000000000000000000
0000000000000111000000000000000000000
0000000000111111100000000001111111100000000111001111110000000000000011
1111100000000111000000000111111100000
0000000011111111110000000111111111111000000111011111111100000000001111
1111110000000111000000011111111111000
0000000111111111111000001111111111111100000111111111111110000000011111
1111111100000111000000111111111111100
0000001111100000111100011110000001111100000111111000011111000000111110
0000111100000111000000111100000111110
0000001111000000011100011100000000111100000111110000001111000000111100
0000011110000111000001111000000011110
0000011110000000011110011100000000011100000111100000000111100001111000
0000001110000111000011110000000001111
0000011110000000000000000000000000011100000111000000000111100001110000
0000001111000111000011110000000001111
0000011100000000000000000000000000111100000111000000000011100001110000
0000001111000111000011110000000000111
0000011100000000000000000001111111111100000111000000000011100001111111
1111111111000111000011100000000000111
0000011100000000000000000111111111111100000111000000000011100011111111
1111111111000111000011100000000000111
0000011100000000000000011111111110011100000111000000000011100001111111
1111111111000111000011100000000000111
0000011100000000000000011111000000011100000111000000000011100001110000
0000000000000111000011100000000000111
0000011100000000001100111100000000011100000111000000000011100001110000
0000000000000111000011110000000000111
0000011110000000011110111100000000111100000111000000000111100001111000
0000001111000111000011110000000001111
0000011110000000011110111100000000111100000111100000000111100001111000
0000001111000111000001110000000001111
0000001111000000111100111100000001111100000111110000001111000000111100
0000011110000111000001111000000011110
0000001111100001111100111110000111111110000111111000111110000000111110
0001111100000111000000111100001111110
0000000111111111111000011111111111011110000111111111111110000000011111
1111111100000111000000011111111111100
0000000001111111110000001111111110011110000111011111111000000000000111
1111110000000111000000001111111110000
0000000000011110000000000001110000000000000000000111100000000000000001
1111000000000000000000000011111000000
