P1
# ExCyber Power Style
42 28
000000000000000000000000000000000000000000
000000000000000000111000000000000000000000
000000000000000000111000000000000000000000
000000000000000000111000000000000000000000
000000000000000000111000000000000000000000
000000000000000000111000000000000000000000
000000000000000000111000000000000000000000
000000000000000000111000000000000000000000
000000000011111100111000000000111111110000
000000001111111110111000000011111111111100
000000011111111111111000000111111111111110
000000111110000111111000001111000000111110
000000111100000001111000001110000000011110
000001111000000001111000001110000000001110
000001111000000000111000000000000000001110
000001111000000000111000000000000000011110
000001110000000000111000000000111111111110
000001110000000000111000000011111111111110
000001110000000000111000001111111111001110
000001110000000000111000001111100000001110
000001111000000000111000011110000000001110
000001111000000000111000011110000000011110
000000111000000001111000011110000000011110
000000111100000011111000011110000000111110
000000011110000111111000011111000011111111
000000011111111111111000001111111111101111
000000000111111110111000000111111111001111
000000000001111000000000000000111000000000
