P1
# ExCyber Power Style
173 26
0000000000000000000000000000010000000000000000000000000000000000000000
0000000000000000000000000000000000000000000000000000000000000000000000
000000000000000000000000000000000
0000000000000000000000000001110000000000000000000000000000000000000000
0000000000000000000000000000000000000000000000000000000000000000000000
000000000000000000000000000000000
0000000000000000000000000001110000000000000000000000000000000000000000
0000000000000000000000000000000000000000000000000000000000000000000000
000000000000000000000000000000000
0000000000000000000000000001110000000000000000000000000000000000000000
0000000000000000000000000000000000000000000000000000000000000000000000
000000000000000000000000000000000
0000000000000000000000000001110000000000000000000000000000000000000000
0000000000000000000000000000000000000000000000000000000000000000000000
000000000000000000000000000000000
0000000000000000000000000001110000000000000000000000000000000000000000
0000000000000000000000000000000000000000000000000000000000000000000000
000000000000000000000000000000000
0000000000111111110000001111111110001110011111000000111111110000000111
0000000000111100000001111111000000000000111111110000000000111111110000
000000011111111000000001110011111
0000000011111111111100001111111110001110111111000011111111111100000111
0000000000111000000111111111100000000001111111111000000001111111111000
000001111111111110000001110111111
0000000111111111111110001111111110001111111111000111111111111110000111
1000000001111000001111111111111000000011111111111100000011111111111100
000011111111111111000001111111111
0000001111000000111110000001110000001111110010001111000000111110000011
1000000001111000011111000001111000000111100000011110000111100000011110
000111100000011111000001111110010
0000001110000000011110000001110000001111000000001110000000011110000011
1000000001110000011110000000111100000111000000001110000111000000001110
000111000000001111000001111000000
0000001110000000001110000001110000001111000000001110000000001110000011
1100000011110000111100000000011100000111000000001110000111000000001110
000111000000000111000001111000000
0000000000000000001110000001110000001111000000000000000000001110000001
1100000011100000111000000000011110000111100000000000000111100000000000
000000000000000111000001111000000
0000000000000000011110000001110000001110000000000000000000011110000001
1110000011100000111000000000011110000111111100000000000111111100000000
000000000000001111000001110000000
0000000000111111111110000001110000001110000000000000111111111110000001
1110000111100000111111111111111110000011111111100000000011111111100000
000000011111111111000001110000000
0000000011111111111110000001110000001110000000000011111111111110000000
1110000111000001111111111111111110000001111111111100000001111111111100
000001111111111111000001110000000
0000001111111111001110000001110000001110000000001111111111001110000000
1111001111000000111111111111111110000000011111111110000000011111111110
000111111111100111000001110000000
0000001111100000001110000001110000001110000000001111100000001110000000
0111001111000000111000000000000000000000000001111111000000000001111111
000111110000000111000001110000000
0000011110000000001110000001110000001110000000011110000000001110000000
0111001110000000111000000000000000000000000000001111000000000000001111
001111000000000111000001110000000
0000011110000000011110000001110000001110000000011110000000011110000000
0111111110000000111100000000011110000111000000001111000111000000001111
001111000000001111000001110000000
0000011110000000011110000001110000001110000000011110000000011110000000
0011111100000000111100000000011110001111000000000111001111000000000111
001111000000001111000001110000000
0000011110000000111110000001110000001110000000011110000000111110000000
0011111100000000011110000000111100000111100000001111000111100000001111
001111000000011111000001110000000
0000011111000011111111000001111110001110000000011111000011111111000000
0011111100000000011111000011111000000111110000011110000111110000011110
001111100001111111100001110000000
0000001111111111101111000001111110001110000000001111111111101111000000
0001111000000000001111111111111000000011111111111110000011111111111110
000111111111110111100001110000000
0000000111111111001111000000111110001110000000000111111111001111000000
0001111000000000000011111111100000000001111111111000000001111111111000
000011111111100111100001110000000
0000000000111000000000000000000000000000000000000000111000000000000000
0000000000000000000000111110000000000000011111100000000000011111100000
000000011100000000000000000000000
