P1
# ExCyber Power Style
119 35
0000000000000000000000000000000000000000000000000000000000000000000000
0000000000000000000000000000000000000000000000000
0000000000000000000000011100000000000000000000000000000000000000000000
0000000000000000000000000000000000000000000000000
0000000000000000000000011100000000000000000000000000000000000000000000
0000000000000000000000000000000000000000000000000
0000000000000000000000011100000000000000000000000000000000000000000000
0000000000000000000000000000000000000000000000000
0000000000000000000000011100000000000000000000000000000000000000000000
0000000000000000000000000000000000000000000000000
0000000000000000000000011100000000000000000000000000000000000000000000
0000000000000000000000000000000000000000000000000
0000000000000000000000011100000000000000000000000000000000000000000000
0000000000000000000000000000000000000000000000000
0000000000000000000000011100000000000000000000000000000000000000000000
0000000000000000000000000000000000000000000000000
0000000000111111100000011100111111100000000000001111111000000000000111
1110001110000000001111111000000000111000000000111
0000000011111111110000011101111111111000000000111111111100000000011111
1111101110000000111111111110000000111000000000111
0000000111111111111000011111111111111000000001111111111111000000111111
1111111110000001111111111111000000111000000000111
0000001111100000111100011111100001111100000011111000001111000000111100
0001111110000001111000001111100000111000000000111
0000001111000000011100011110000000111100000011110000000111100001111000
0000111110000011110000000111100000111000000000111
0000011110000000011110011110000000011100000111100000000011100001110000
0000011110000111100000000011110000111000000000111
0000011110000000000000011100000000011100000111000000000011110011110000
0000011110000111100000000011110000111000000000111
0000011100000000000000011100000000011100000111000000000011110011110000
0000001110000111100000000001110000111000000000111
0000011100000000000000011100000000011100000111111111111111110011100000
0000001110000111000000000001110000111000000000111
0000011100000000000000011100000000011100001111111111111111110011100000
0000001110000111000000000001110000111000000000111
0000011100000000000000011100000000011100000111111111111111110011100000
0000001110000111000000000001110000111000000000111
0000011100000000000000011100000000011100000111000000000000000011110000
0000001110000111000000000001110000111000000000111
0000011100000000001100011100000000011100000111000000000000000011110000
0000011110000111100000000001110000111000000000111
0000011110000000011110011100000000011100000111100000000011110011110000
0000011110000111100000000011110000111000000000111
0000011110000000011110011100000000011100000111100000000011110001111000
0000111110000011100000000011110000111100000001111
0000001111000000111100011100000000011100000011110000000111100001111100
0001111110000011110000000111100000111100000011111
0000001111100001111100011100000000011100000011111000011111000000111111
1111111110000001111000011111100000111110000111111
0000000111111111111000011100000000011100000001111111111111000000011111
1111101110000000111111111111000000011111111111111
0000000001111111110000011100000000011100000000011111111100000000000111
1110001110000000011111111100000000001111111110111
0000000000011110000000000000000000000000000000000111110000000000000000
0000011110000000000111110000000000000011111000111
0000000000000000000000000000000000000000000000000000000000000001000000
0000011110000000000000000000000000000000000000000
0000000000000000000000000000000000000000000000000000000000000001110000
0000011110000000000000000000000000000000000000000
0000000000000000000000000000000000000000000000000000000000000001111000
0000111100000000000000000000000000000000000000000
0000000000000000000000000000000000000000000000000000000000000001111100
0001111100000000000000000000000000000000000000000
0000000000000000000000000000000000000000000000000000000000000000111111
1111111000000000000000000000000000000000000000000
0000000000000000000000000000000000000000000000000000000000000000011111
1111110000000000000000000000000000000000000000000
0000000000000000000000000000000000000000000000000000000000000000000011
1110000000000000000000000000000000000000000000000
