P1
# ExCyber Power Style
83 34
0000000000000000000000000000000000000000000000000000000000000000000000
0000000000000
0000000000000000000000000000000000000000000001110000000000000000000000
0000000000000
0000000000000000000000000000000000000000000001110000000000000000000000
0000000000000
0000000000000000000000000000000000000000000001110000000000000000000000
0000000000000
0000000000000000000000000000000000000000000001110000000000000000000000
0000000000000
0000000000000000000000000000000000000000000001110000000000000000000000
0000000000000
0000000000000000000000000000000000000000000001110000000000000000000000
0000000000000
0000000000000000000000000000000000000000000001110000000000000000000000
0000000000000
0000011100111111100000000111000000000111000001110000000001111111100000
0001110011111
0000011111111111110000000111000000000111000001110000000111111111111000
0001110111111
0000011111110011111000000111000000000111000001110000001111111111111100
0001111111111
0000011111000000111100000111000000000111000001110000011110000001111100
0001111110010
0000011110000000011100000111000000000111000001110000011100000000111100
0001111000000
0000011110000000011110000111000000000111000001110000011100000000011100
0001111000000
0000011100000000001110000111000000000111000001110000000000000000011100
0001111000000
0000011100000000001110000111000000000111000001110000000000000000111100
0001110000000
0000011100000000001110000111000000000111000001110000000001111111111100
0001110000000
0000011100000000001110000111000000000111000001110000000111111111111100
0001110000000
0000011100000000001110000111000000000111000001110000011111111110011100
0001110000000
0000011100000000001110000111000000000111000001110000011111000000011100
0001110000000
0000011100000000011110000111000000000111000001110000111100000000011100
0001110000000
0000011110000000011110000111000000000111000001110000111100000000111100
0001110000000
0000011110000000011100000111100000001111000001110000111100000000111100
0001110000000
0000011111000000111100000111100000011111000001110000111100000001111100
0001110000000
0000011111111111111000000111110000111111000001110000111110000111111110
0001110000000
0000011111111111110000000011111111111111000001110000011111111111011110
0001110000000
0000011100111111100000000001111111110111000001110000001111111110011110
0001110000000
0000011100000000000000000000011111000111000000000000000001110000000000
0000000000000
0000011100000000000000000000000000000000000000000000000000000000000000
0000000000000
0000011100000000000000000000000000000000000000000000000000000000000000
0000000000000
0000011100000000000000000000000000000000000000000000000000000000000000
0000000000000
0000011100000000000000000000000000000000000000000000000000000000000000
0000000000000
0000011100000000000000000000000000000000000000000000000000000000000000
0000000000000
0000011100000000000000000000000000000000000000000000000000000000000000
0000000000000
