P1
# ExCyber Power Style
73 28
0000000000000000000000000000000000000000000000000000000000000000000000
000
0000000000000000000000000000000000000000000000000111000000000000000000
000
0000000000100000000000000000000000000000000000000111000000000000000000
000
0000000011100000000000000000000000000000000000000111000000000000000000
000
0000000011100000000000000000000000000000000000000111000000000000000000
000
0000000011100000000000000000000000000000000000000111000000000000000000
000
0000000011100000000000000000000000000000000000000111000000000000000000
000
0000000011100000000000000000000000000000000000000111000000000000000000
000
0000011111111100000001111111000000000000011111100111000000000111111100
000
0000011111111100000111111111110000000001111111110111000000011111111111
000
0000011111111100001111111111111000000011111111111111000000111111111111
100
0000000011100000001111000001111100000111110000111111000000111100000111
110
0000000011100000011110000000111100000111100000001111000001111000000011
110
0000000011100000111100000000011110001111000000001111000011110000000001
111
0000000011100000111100000000011110001111000000000111000011110000000001
111
0000000011100000111100000000001110001111000000000111000011110000000000
111
0000000011100000111000000000001110001110000000000111000011100000000000
111
0000000011100000111000000000001110001110000000000111000011100000000000
111
0000000011100000111000000000001110001110000000000111000011100000000000
111
0000000011100000111000000000001110001110000000000111000011100000000000
111
0000000011100000111100000000001110001111000000000111000011110000000000
111
0000000011100000111100000000011110001111000000000111000011110000000001
111
0000000011100000011100000000011110000111000000001111000001110000000001
111
0000000011100000011110000000111100000111100000011111000001111000000011
110
0000000011111100001111000011111100000011110000111111000000111100001111
110
0000000011111100000111111111111000000011111111111111000000011111111111
100
0000000001111100000011111111100000000000111111110111000000001111111110
000
0000000000000000000000111110000000000000001111000000000000000011111000
000
