P1
# ExCyber Power Style
71 21
0000000000000000000000000000000000000000000000000000000000000000000000
0
0000011100000000011100000111001111111000011111110000000000011111111000
0
0000011100000000011100000111011111111100111111111000000001111111111110
0
0000011100000000011100000111111111111111111111111000000011111111111111
0
0000011100000000011100000111110000011111100000111100000111100000011111
0
0000011100000000011100000111100000011111000000111100000111000000001111
0
0000011100000000011100000111100000001111000000011100000111000000000111
0
0000011100000000011100000111000000001110000000011100000000000000000111
0
0000011100000000011100000111000000001110000000011100000000000000001111
0
0000011100000000011100000111000000001110000000011100000000011111111111
0
0000011100000000011100000111000000001110000000011100000001111111111111
0
0000011100000000011100000111000000001110000000011100000111111111100111
0
0000011100000000011100000111000000001110000000011100000111110000000111
0
0000011100000000011100000111000000001110000000011100001111000000000111
0
0000011100000000011100000111000000001110000000011100001111000000001111
0
0000011110000000111100000111000000001110000000011100001111000000001111
0
0000011110000001111100000111000000001110000000011100001111000000011111
0
0000011111000011111100000111000000001110000000011100001111100001111111
1
0000001111111111111100000111000000001110000000011100000111111111110111
1
0000000111111111011100000111000000001110000000011100000011111111100111
1
0000000001111100011100000000000000000000000000000000000000011100000000
0
