P1
# ExCyber Power Style
55 27
0000000000000000000000000000000000000000000000000000000
0000011100111111100000000000011111110000000001110011111
0000011111111111110000000001111111111100000001110111111
0000011111110011111000000011111111111110000001111111111
0000011111000000111100000011110000011111000001111110010
0000011110000000011100000111100000001111000001111000000
0000011110000000011110001111000000000111100001111000000
0000011100000000001110001111000000000111100001111000000
0000011100000000001110001111000000000011100001110000000
0000011100000000001110001110000000000011100001110000000
0000011100000000001110001110000000000011100001110000000
0000011100000000001110001110000000000011100001110000000
0000011100000000001110001110000000000011100001110000000
0000011100000000011110001111000000000011100001110000000
0000011110000000011110001111000000000111100001110000000
0000011110000000011100000111000000000111100001110000000
0000011111000000111100000111100000001111000001110000000
0000011111111111111000000011110000111111000001110000000
0000011111111111110000000001111111111110000001110000000
0000011100111111100000000000111111111000000001110000000
0000011100000000000000000000001111100000000000000000000
0000011100000000000000000000000000000000000000000000000
0000011100000000000000000000000000000000000000000000000
0000011100000000000000000000000000000000000000000000000
0000011100000000000000000000000000000000000000000000000
0000011100000000000000000000000000000000000000000000000
0000011100000000000000000000000000000000000000000000000
