P1
# ExCyber Power Style
96 28
0000000000000000000000000000000000000000000000000000000000000000000000
00000000000000000000000000
0000000000111111000000000000000000000000000000000000000000000000000000
00000000000000000000000000
0000000001111111000000000000000000000000000000000000000000000000000000
00100000000000000000000000
0000000011111111000000000000000000000000000000000000000000000000000000
11100000000000000000000000
0000000011110000000000000000000000000000000000000000000000000000000000
11100000000000000000000000
0000000011110000000000000000000000000000000000000000000000000000000000
11100000000000000000000000
0000000011100000000000000000000000000000000000000000000000000000000000
11100000000000000000000000
0000000011100000000000000000000000000000000000000000000000000000000000
11100000000000000000000000
0000001111111110011100111110000000111111100000000111001111111000000111
11111100000000111111100000
0000011111111110011101111110000011111111110000000111011111111110000111
11111100000011111111110000
0000011111111110011111111110000111111111111100000111111111111110000111
11111100000111111111111100
0000000011100000011111100100001111100000111100000111110000011111000000
11100000001111100000111100
0000000011100000011110000000001111000000011110000111100000001111000000
11100000001111000000011110
0000000011100000011110000000011110000000001110000111100000000111000000
11100000011110000000001110
0000000011100000011110000000011100000000001111000111000000000111000000
11100000011100000000001111
0000000011100000011100000000011100000000001111000111000000000111000000
11100000011100000000001111
0000000011100000011100000000011111111111111111000111000000000111000000
11100000011111111111111111
0000000011100000011100000000111111111111111111000111000000000111000000
11100000111111111111111111
0000000011100000011100000000011111111111111111000111000000000111000000
11100000011111111111111111
0000000011100000011100000000011100000000000000000111000000000111000000
11100000011100000000000000
0000000011100000011100000000011100000000000000000111000000000111000000
11100000011100000000000000
0000000011100000011100000000011110000000001111000111000000000111000000
11100000011110000000001111
0000000011100000011100000000011110000000001111000111000000000111000000
11100000011110000000001111
0000000011100000011100000000001111000000011110000111000000000111000000
11100000001111000000011110
0000000011100000011100000000001111100001111100000111000000000111000000
11111100001111100001111100
0000000011100000011100000000000111111111111100000111000000000111000000
11111100000111111111111100
0000000011100000011100000000000001111111110000000111000000000111000000
01111100000001111111110000
0000000000000000000000000000000000011111000000000000000000000000000000
00000000000000011111000000
