P1
# ExCyber Power Style
42 28
000000000000000000000000000000000000000000
000000000000000000111000000000000000000000
000000000000000000111000000000000000000000
000000000000000000111000000000000000000000
000000000000000000111000000000000000000000
000000000000000000111000000000000000000000
000000000000000000111000000000000000000000
000000000000000000111000000000000000000000
000000000011111100111000000000111111100000
000000001111111110111000000011111111111000
000000011111111111111000000111111111111100
000000111110000111111000000111100000111110
000000111100000001111000001111000000011110
000001111000000001111000011110000000001111
000001111000000000111000011110000000001111
000001111000000000111000011110000000000111
000001110000000000111000011100000000000111
000001110000000000111000011100000000000111
000001110000000000111000011100000000000111
000001110000000000111000011100000000000111
000001111000000000111000011110000000000111
000001111000000000111000011110000000001111
000000111000000001111000001110000000001111
000000111100000011111000001111000000011110
000000011110000111111000000111100001111110
000000011111111111111000000011111111111100
000000000111111110111000000001111111110000
000000000001111000000000000000011111000000
