P1
# ExCyber Power Style
115 35
0000000000000000000000000000000000000000000000000000000000000000000000
000000000000000000000000000000000000000000000
0000000000000000000000000000000000000000000000000000000000000000000000
000000000000000000001110000000000000000000000
0000000000000000000000000000000000000000000000000000000000000000000000
000000000000000000001110000000000000000000000
0000000000000000000000000000000000000000000000000000000000000000000000
000000000000000000001110000000000000000000000
0000000000000000000000000000000000000000000000000000000000000000000000
000000000000000000001110000000000000000000000
0000000000000000000000000000000000000000000000000000000000000000000000
000000000000000000001110000000000000000000000
0000000000000000000000000000000000000000000000000000000000000000000000
000000000000000000001110000000000000000000000
0000000000000000000000000000000000000000000000000000000000000000000000
000000000000000000001110000000000000000000000
0000000000111111000111000011100111110000001111111100000000111001111111
000000000000111111001110000000000111111100000
0000000011111111110111000011101111110000111111111111000000111011111111
110000000011111111101110000000011111111110000
0000000111111111111111000011111111110001111111111111100000111111111111
110000000111111111111110000000111111111111100
0000000111100000111111000011111100100011110000001111100000111110000011
111000001111100001111110000001111100000111100
0000001111000000011111000011110000000011100000000111100000111100000001
111000001111000000011110000001111000000011110
0000001110000000001111000011110000000011100000000011100000111100000000
111000011110000000011110000011110000000001110
0000011110000000001111000011110000000000000000000011100000111000000000
111000011110000000001110000011100000000001111
0000011110000000000111000011100000000000000000000111100000111000000000
111000011110000000001110000011100000000001111
0000011100000000000111000011100000000000001111111111100000111000000000
111000011100000000001110000011111111111111111
0000011100000000000111000011100000000000111111111111100000111000000000
111000011100000000001110000111111111111111111
0000011100000000000111000011100000000011111111110011100000111000000000
111000011100000000001110000011111111111111111
0000011110000000000111000011100000000011111000000011100000111000000000
111000011100000000001110000011100000000000000
0000011110000000001111000011100000000111100000000011100000111000000000
111000011110000000001110000011100000000000000
0000011110000000001111000011100000000111100000000111100000111000000000
111000011110000000001110000011110000000001111
0000001111000000011111000011100000000111100000000111100000111000000000
111000001110000000011110000011110000000001111
0000001111100000111111000011100000000111100000001111100000111000000000
111000001111000000111110000001111000000011110
0000000111111111111111000011100000000111110000111111110000111000000000
111000000111100001111110000001111100001111100
0000000011111111110111000011100000000011111111111011110000111000000000
111000000111111111111110000000111111111111100
0000000000111111000111000011100000000001111111110011110000111000000000
111000000001111111101110000000001111111110000
0000000000000000001111000000000000000000001110000000000000000000000000
000000000000011110000000000000000011111000000
0000001000000000001111000000000000000000000000000000000000000000000000
000000000000000000000000000000000000000000000
0000001110000000001111000000000000000000000000000000000000000000000000
000000000000000000000000000000000000000000000
0000001111000000011110000000000000000000000000000000000000000000000000
000000000000000000000000000000000000000000000
0000001111100000111110000000000000000000000000000000000000000000000000
000000000000000000000000000000000000000000000
0000000111111111111100000000000000000000000000000000000000000000000000
000000000000000000000000000000000000000000000
0000000011111111111000000000000000000000000000000000000000000000000000
000000000000000000000000000000000000000000000
0000000000011111000000000000000000000000000000000000000000000000000000
000000000000000000000000000000000000000000000
