P1
# ExCyber Power Style
139 34
0000000000000000000000000000000000000000000000000000000000000000000000
000000000000000000000000000000000000000000000000000000000000000000000
0000000000000000001110000011100000000000000000000000000000000000000000
000000000000000000110000011000000000000000000000000000000000000000000
0000000000000000001110000011100000000000000000000000000000000000000000
000000000000000001111110011000000000000000000000000000000000000000000
0000000000000000001110000011100000000000000000000000000000000000000000
000000000000000011111111111000000000000000000000000000000000000000000
0000000000000000001110000011100000000000000000000000000000000000000000
000000000000000011100111111000000000000000000000000000000000000000000
0000000000000000001110000000000000000000000000000000000000000000000000
000000000000000011000001100000000000000000000000000000000000000000000
0000000000000000001110000000000000000000000000000000000000000000000000
000000000000000000000000000000000000000000000000000000000000000000000
0000000000000000001110000000000000000000000000000000000000000000000000
000000000000000000000000000000000000000000000000000000000000000000000
0000000000111111001110000011100000111001111100000001111111000000000000
011111110000000000111111100000000000000111111100000000000111111110000
0000000011111111101110000011100000111011111100000111111111100000000001
111111111000000011111111111000000000011111111110000000001111111111000
0000000111111111111110000011100000111111111100001111111111111000000011
111111111100000111111111111100000000111111111111100000011111111111100
0000001111100001111110000011100000111111001000011111000001111000000111
110000111110000111100000111110000001111100000111100000111100000011110
0000001111000000011110000011100000111100000000011110000000111100000111
000000011110001111000000011110000001111000000011110000111000000001110
0000011110000000011110000011100000111100000000111100000000011100001111
000000001110011110000000001111000011110000000001110000111000000001110
0000011110000000001110000011100000111100000000111000000000011110001110
000000000000011110000000001111000011100000000001111000111100000000000
0000011110000000001110000011100000111000000000111000000000011110001110
000000000000011110000000000111000011100000000001111000111111100000000
0000011100000000001110000011100000111000000000111111111111111110001110
000000000000011100000000000111000011111111111111111000011111111100000
0000011100000000001110000011100000111000000001111111111111111110001110
000000000000011100000000000111000111111111111111111000001111111111100
0000011100000000001110000011100000111000000000111111111111111110001110
000000000000011100000000000111000011111111111111111000000011111111110
0000011100000000001110000011100000111000000000111000000000000000001110
000000000000011100000000000111000011100000000000000000000000001111111
0000011110000000001110000011100000111000000000111000000000000000001110
000000001111011110000000000111000011100000000000000000000000000001111
0000011110000000001110000011100000111000000000111100000000011110001111
000000001111011110000000001111000011110000000001111000111000000001111
0000001110000000011110000011100000111000000000111100000000011110001111
000000001110001110000000001111000011110000000001111001111000000000111
0000001111000000111110000011100000111000000000011110000000111100000111
100000011110001111000000011110000001111000000011110000111100000001111
0000000111100001111110000011100000111000000000011111000011111000000011
111111111100000111100001111110000001111100001111100000111110000011110
0000000111111111111110000011100000111000000000001111111111111000000001
111111111000000011111111111100000000111111111111100000011111111111110
0000000001111111101110000011100000111000000000000011111111100000000000
111111110000000001111111110000000000001111111110000000001111111111000
0000000000011110000000000000000000000000000000000000111110000000000000
001100000000000000011111000000000000000011111000000000000011111100000
0000000000000000000000000000000000000000000000000000000000000000000000
011111000000000000000000000000000000000000000000000000000000000000000
0000000000000000000000000000000000000000000000000000000000000000000000
000111100000000000000000000000000000000000000000000000000000000000000
0000000000000000000000000000000000000000000000000000000000000000000000
000011100000000000000000000000000000000000000000000000000000000000000
0000000000000000000000000000000000000000000000000000000000000000000000
000111100000000000000000000000000000000000000000000000000000000000000
0000000000000000000000000000000000000000000000000000000000000000000000
111111000000000000000000000000000000000000000000000000000000000000000
0000000000000000000000000000000000000000000000000000000000000000000000
111110000000000000000000000000000000000000000000000000000000000000000
