P1
# ExCyber Power Style
22 28
0000000000000000000000
0000000000111111100000
0000000011111111110000
0000000111111111111000
0000001111100000111100
0000001111000000011110
0000001110000000011110
0000001110000000001110
0000001110000000001110
0000001111000000011110
0000001111000000011110
0000000111110001111100
0000000011111111111000
0000000011111111110000
0000000111111111111100
0000001111100000111110
0000011110000000011110
0000011110000000001111
0000011100000000001111
0000011100000000000111
0000011100000000000111
0000011100000000001111
0000011110000000001111
0000011111000000011110
0000001111100001111110
0000000111111111111100
0000000011111111110000
0000000000011111000000
