P1
# ExCyber Power Style
70 35
0000000000000000000000000000000000000000000000000000000000000000000000
0000000000000000000000000000000000000000000000111000000000000000000000
0000000000000000000000000000000000000000000000111000000000000000000000
0000000000000000000000000000000000000000000000111000000000000000000000
0000000000000000000000000000000000000000000000111000000000000000000000
0000000000000000000000000000000000000000000000111000000000000000000000
0000000000000000000000000000000000000000000000111000000000000000000000
0000000000000000000000000000000000000000000000111000000000000000000000
0000000000111111000111000000000111111100000000111000000000111111100000
0000000011111111110111000000011111111110000000111000000011111111111000
0000000111111111111111000000111111111111100000111000000111111111111100
0000000111100000111111000001111100000111100000111000000111100000111110
0000001111000000011111000001111000000011110000111000001111000000011110
0000001110000000001111000011110000000001110000111000011110000000001111
0000011110000000001111000011100000000001111000111000011110000000001111
0000011110000000000111000011100000000001111000111000011110000000000111
0000011100000000000111000011111111111111111000111000011100000000000111
0000011100000000000111000111111111111111111000111000011100000000000111
0000011100000000000111000011111111111111111000111000011100000000000111
0000011110000000000111000011100000000000000000111000011100000000000111
0000011110000000001111000011100000000000000000111000011110000000000111
0000011110000000001111000011110000000001111000111000011110000000001111
0000001111000000011111000011110000000001111000111000001110000000001111
0000001111100000111111000001111000000011110000111000001111000000011110
0000000111111111111111000001111100001111100000111000000111100001111110
0000000011111111110111000000111111111111100000111000000011111111111100
0000000000111111000111000000001111111110000000111000000001111111110000
0000000000000000001111000000000011111000000000000000000000011111000000
0000001000000000001111000000000000000000000000000000000000000000000000
0000001110000000001111000000000000000000000000000000000000000000000000
0000001111000000011110000000000000000000000000000000000000000000000000
0000001111100000111110000000000000000000000000000000000000000000000000
0000000111111111111100000000000000000000000000000000000000000000000000
0000000011111111111000000000000000000000000000000000000000000000000000
0000000000011111000000000000000000000000000000000000000000000000000000
