P1
# ExCyber Power Style
69 34
000000000000000000000000000000000000000000000000000000000000000000000
000000000000000000000000000000000000000000000111000000000000000000000
000000000000000000000000000000000000000000000111000000000000000000000
000000000000000000000000000000000000000000000111000000000000000000000
000000000000000000000000000000000000000000000111000000000000000000000
000000000000000000000000000000000000000000000111000000000000000000000
000000000000000000000000000000000000000000000111000000000000000000000
000000000000000000000000000000000000000000000111000000000000000000000
000001110011111110000000000000111111100000000111000000000111111110000
000001111111111111000000000011111111110000000111000000011111111111100
000001111111001111100000000111111111111100000111000000111111111111110
000001111100000011110000001111100000111100000111000001111000000111110
000001111000000001110000001111000000011110000111000001110000000011110
000001111000000001111000011110000000001110000111000001110000000001110
000001110000000000111000011100000000001111000111000000000000000001110
000001110000000000111000011100000000001111000111000000000000000011110
000001110000000000111000011111111111111111000111000000000111111111110
000001110000000000111000111111111111111111000111000000011111111111110
000001110000000000111000011111111111111111000111000001111111111001110
000001110000000000111000011100000000000000000111000001111100000001110
000001110000000001111000011100000000000000000111000011110000000001110
000001111000000001111000011110000000001111000111000011110000000011110
000001111000000001110000011110000000001111000111000011110000000011110
000001111100000011110000001111000000011110000111000011110000000111110
000001111111111111100000001111100001111100000111000011111000011111111
000001111111111111000000000111111111111100000111000001111111111101111
000001110011111110000000000001111111110000000111000000111111111001111
000001110000000000000000000000011111000000000000000000000111000000000
000001110000000000000000000000000000000000000000000000000000000000000
000001110000000000000000000000000000000000000000000000000000000000000
000001110000000000000000000000000000000000000000000000000000000000000
000001110000000000000000000000000000000000000000000000000000000000000
000001110000000000000000000000000000000000000000000000000000000000000
000001110000000000000000000000000000000000000000000000000000000000000
