P1
# ExCyber Power Style
192 35
0000000000000000000000000000000000000000000000000000000000000000000000
0000000000000000000000000000000000000000000000000000000000000000000000
0000000000000000000000000000000000000000000000000000
0000000000000000000000000000000000000000000000000000000000000000000111
0000000000000000000000000000000000000000000000000000000000000000000000
0000000000000000000111000000000000000000000000000000
0000000000000000000000000000000000000000000000000000000000000000000111
0000000000000000000000000000000000000000000000000000000000000000000000
0000000000000000000111000000000000000000000000000000
0000000000000000000000000000000000000000000000000000000000000000000111
0000000000000000000000000000000000000000000000000000000000000000000000
0000000000000000000111000000000000000000000000000000
0000000000000000000000000000000000000000000000000000000000000000000111
0000000000000000000000000000000000000000000000000000000000000000000000
0000000000000000000111000000000000000000000000000000
0000000000000000000000000000000000000000000000000000000000000000000111
0000000000000000000000000000000000000000000000000000000000000000000000
0000000000000000000111000000000000000000000000000000
0000000000000000000000000000000000000000000000000000000000000000000111
0000000000000000000000000000000000000000000000000000000000000000000000
0000000000000000000111000000000000000000000000000000
0000000000000000000000000000000000000000000000000000000000000000000111
0000000000000000000000000000000000000000000000000000000000000000000000
0000000000000000000111000000000000000000000000000000
0000011100111111100001111111000000000001111111100000000000011111100111
0000011100111110011100000000011100000000011111100011100000000111111110
0000000000011111100111000000000111111110000000000000
0000011101111111110011111111100000000111111111111000000001111111110111
0000011101111110011100000000011100000001111111111011100000011111111111
1000000001111111110111000000011111111111100000000000
0000011111111111111111111111100000001111111111111100000011111111111111
0000011111111110011100000000011100000011111111111111100000111111111111
1100000011111111111111000000111111111111110000000000
0000011111000001111110000011110000011110000001111100000111110000111111
0000011111100100011100000000011100000011110000011111100001111000000111
1100000111110000111111000001111000000111110000000000
0000011110000001111100000011110000011100000000111100000111100000001111
0000011110000000011100000000011100000111100000001111100001110000000011
1100000111100000001111000001110000000011110000000000
0000011110000000111100000001110000011100000000011100001111000000001111
0000011110000000011100000000011100000111000000000111100001110000000001
1100001111000000001111000001110000000001110000000000
0000011100000000111000000001110000000000000000011100001111000000000111
0000011110000000011100000000011100001111000000000111100000000000000001
1100001111000000000111000000000000000001110000000000
0000011100000000111000000001110000000000000000111100001111000000000111
0000011100000000011100000000011100001111000000000011100000000000000011
1100001111000000000111000000000000000011110000000000
0000011100000000111000000001110000000001111111111100001110000000000111
0000011100000000011100000000011100001110000000000011100000000111111111
1100001110000000000111000000000111111111110000000000
0000011100000000111000000001110000000111111111111100001110000000000111
0000011100000000011100000000011100001110000000000011100000011111111111
1100001110000000000111000000011111111111110000000000
0000011100000000111000000001110000011111111110011100001110000000000111
0000011100000000011100000000011100001110000000000011100001111111111001
1100001110000000000111000001111111111001110000000000
0000011100000000111000000001110000011111000000011100001110000000000111
0000011100000000011100000000011100001111000000000011100001111100000001
1100001110000000000111000001111100000001110000000000
0000011100000000111000000001110000111100000000011100001111000000000111
0000011100000000011100000000011100001111000000000111100011110000000001
1100001111000000000111000011110000000001110000000000
0000011100000000111000000001110000111100000000111100001111000000000111
0000011100000000011100000000011100001111000000000111100011110000000011
1100001111000000000111000011110000000011110000000000
0000011100000000111000000001110000111100000000111100000111000000001111
0000011100000000011110000000111100000111100000001111100011110000000011
1100000111000000001111000011110000000011110000000000
0000011100000000111000000001110000111100000001111100000111100000011111
0000011100000000011110000001111100000111110000011111100011110000000111
1100000111100000011111000011110000000111110000001111
0000011100000000111000000001110000111110000111111110000011110000111111
0000011100000000011111000011111100000011111111111111100011111000011111
1110000011110000111111000011111000011111111000001111
0000011100000000111000000001110000011111111111011110000011111111111111
0000011100000000001111111111111100000001111111111011100001111111111101
1110000011111111111111000001111111111101111000001111
0000011100000000111000000001110000001111111110011110000000111111110111
0000011100000000000111111111011100000000011111100011100000111111111001
1110000000111111110111000000111111111001111000001111
0000000000000000000000000000000000000001110000000000000000001111000000
0000000000000000000001111100011100000000000000000111100000000111000000
0000000000001111000000000000000111000000000000000011
0000000000000000000000000000000000000000000000000000000000000000000000
0000000000000000000000000000000000000100000000000111100000000000000000
0000000000000000000000000000000000000000000000000011
0000000000000000000000000000000000000000000000000000000000000000000000
0000000000000000000000000000000000000111000000000111100000000000000000
0000000000000000000000000000000000000000000000000111
0000000000000000000000000000000000000000000000000000000000000000000000
0000000000000000000000000000000000000111100000001111000000000000000000
0000000000000000000000000000000000000000000000001110
0000000000000000000000000000000000000000000000000000000000000000000000
0000000000000000000000000000000000000111110000011111000000000000000000
0000000000000000000000000000000000000000000000001100
0000000000000000000000000000000000000000000000000000000000000000000000
0000000000000000000000000000000000000011111111111110000000000000000000
0000000000000000000000000000000000000000000000000000
0000000000000000000000000000000000000000000000000000000000000000000000
0000000000000000000000000000000000000001111111111100000000000000000000
0000000000000000000000000000000000000000000000000000
0000000000000000000000000000000000000000000000000000000000000000000000
0000000000000000000000000000000000000000001111100000000000000000000000
0000000000000000000000000000000000000000000000000000
