P1
# ExCyber Power Style
122 27
0000000000000000000000000000000000000000000000000000000000000000000000
0000000000000000000000000000000000000000000000000000
0000000000111111110000000011100111111100000000000001111111000000001110
0111111100000000000011111111000000000000111111110000
0000000011111111111100000011111111111110000000000111111111100000001110
1111111111000000001111111111110000000001111111111000
0000000111111111111110000011111110011111000000001111111111111000001111
1111111111000000011111111111111000000011111111111100
0000001111000000111110000011111000000111100000011111000001111000001111
1000001111100000111100000011111000000111100000011110
0000001110000000011110000011110000000011100000011110000000111100001111
0000000111100000111000000001111000000111000000001110
0000001110000000001110000011110000000011110000111100000000011100001111
0000000011100000111000000000111000000111000000001110
0000000000000000001110000011100000000001110000111000000000011110001110
0000000011100000000000000000111000000111100000000000
0000000000000000011110000011100000000001110000111000000000011110001110
0000000011100000000000000001111000000111111100000000
0000000000111111111110000011100000000001110000111111111111111110001110
0000000011100000000011111111111000000011111111100000
0000000011111111111110000011100000000001110001111111111111111110001110
0000000011100000001111111111111000000001111111111100
0000001111111111001110000011100000000001110000111111111111111110001110
0000000011100000111111111100111000000000011111111110
0000001111100000001110000011100000000001110000111000000000000000001110
0000000011100000111110000000111000000000000001111111
0000011110000000001110000011100000000011110000111000000000000000001110
0000000011100001111000000000111000000000000000001111
0000011110000000011110000011110000000011110000111100000000011110001110
0000000011100001111000000001111000000111000000001111
0000011110000000011110000011110000000011100000111100000000011110001110
0000000011100001111000000001111000001111000000000111
0000011110000000111110000011111000000111100000011110000000111100001110
0000000011100001111000000011111000000111100000001111
0000011111000011111111000011111111111111000000011111000011111000001110
0000000011100001111100001111111100000111110000011110
0000001111111111101111000011111111111110000000001111111111111000001110
0000000011100000111111111110111100000011111111111110
0000000111111111001111000011100111111100000000000011111111100000001110
0000000011100000011111111100111100000001111111111000
0000000000111000000000000011100000000000000000000000111110000000000000
0000000000000000000011100000000000000000011111100000
0000000000000000000000000011100000000000000000000000000000000000000000
0000000000000000000000000000000000000000000000000000
0000000000000000000000000011100000000000000000000000000000000000000000
0000000000000000000000000000000000000000000000000000
0000000000000000000000000011100000000000000000000000000000000000000000
0000000000000000000000000000000000000000000000000000
0000000000000000000000000011100000000000000000000000000000000000000000
0000000000000000000000000000000000000000000000000000
0000000000000000000000000011100000000000000000000000000000000000000000
0000000000000000000000000000000000000000000000000000
0000000000000000000000000011100000000000000000000000000000000000000000
0000000000000000000000000000000000000000000000000000
