P1
# ExCyber Power Style
94 28
0000000000000000000000000000000000000000000000000000000000000000000000
000000000000000000000000
0000000001110000000001111111100000000000111111100111000001110000000001
110000000000111111100000
0000000001110000000111111111111000000001111111111111000001110000000001
110000000011111111110000
0000000001110000001111111111111100000011111001111111000001110000000001
110000000111111111111100
0000000001110000011110000001111100000111100000011111000001110000000001
110000001111100000111100
0000000001110000011100000000111100000111000000001111000001110000000001
110000001111000000011110
0000000001110000011100000000011100001111000000001111000001110000000001
110000011110000000001110
0000000001110000000000000000011100001111000000000111000001110000000001
110000011100000000001111
0000000001110000000000000000111100001110000000000111000001110000000001
110000011100000000001111
0000000001110000000001111111111100001110000000000111000001110000000001
110000011111111111111111
0000000001110000000111111111111100001110000000000111000001110000000001
110000111111111111111111
0000000001110000011111111110011100001110000000000111000001110000000001
110000011111111111111111
0000000001110000011111000000011100001111000000000111000001110000000001
110000011100000000000000
0000000001110000111100000000011100001111000000000111000001110000000001
110000011100000000000000
0000000001110000111100000000111100001111000000001111000001110000000001
110000011110000000001111
0000000001110000111100000000111100000111100000001111000001111000000011
110000011110000000001111
0000000001110000111100000001111100000111110000011111000001111000000111
110000001111000000011110
0000000001110000111110000111111110000011111101111111000001111100001111
110000001111100001111100
0000000001110000011111111111011110000001111111111111000000111111111111
110000000111111111111100
0000000001110000001111111110011110000000111111100111000000011111111101
110000000001111111110000
0000000001110000000001110000000000000000000000000111000000000111110001
110000000000011111000000
0000000001110000000000000000000000000000000000000111000000000000000000
000000000000000000000000
0000000001110000000000000000000000000000000000000111000000000000000000
000000000000000000000000
0000000001110000000000000000000000000000000000000111000000000000000000
000000000000000000000000
0000000011110000000000000000000000000000000000000111000000000000000000
000000000000000000000000
0000011111110000000000000000000000000000000000000111000000000000000000
000000000000000000000000
0000011111100000000000000000000000000000000000000111000000000000000000
000000000000000000000000
0000011111000000000000000000000000000000000000000000000000000000000000
000000000000000000000000
