P1
# ExCyber Power Style
91 27
0000000000000000000000000000000000000000000000000000000000000000000000
000000000000000000000
0000011100111111100000000111001111100000011111111000000000000011111110
000000000111111110000
0000011111111111110000000111011111100001111111111110000000001111111111
000000011111111111100
0000011111110011111000000111111111100011111111111111000000011111111111
100000111111111111110
0000011111000000111100000111111001000111100000011111000000111110000111
110001111000000111110
0000011110000000011100000111100000000111000000001111000000111000000011
110001110000000011110
0000011110000000011110000111100000000111000000000111000001111000000001
110001110000000001110
0000011100000000001110000111100000000000000000000111000001110000000000
000000000000000001110
0000011100000000001110000111000000000000000000001111000001110000000000
000000000000000011110
0000011100000000001110000111000000000000011111111111000001110000000000
000000000111111111110
0000011100000000001110000111000000000001111111111111000001110000000000
000000011111111111110
0000011100000000001110000111000000000111111111100111000001110000000000
000001111111111001110
0000011100000000001110000111000000000111110000000111000001110000000000
000001111100000001110
0000011100000000011110000111000000001111000000000111000001110000000001
111011110000000001110
0000011110000000011110000111000000001111000000001111000001111000000001
111011110000000011110
0000011110000000011100000111000000001111000000001111000001111000000001
110011110000000011110
0000011111000000111100000111000000001111000000011111000000111100000011
110011110000000111110
0000011111111111111000000111000000001111100001111111100000011111111111
100011111000011111111
0000011111111111110000000111000000000111111111110111100000001111111111
000001111111111101111
0000011100111111100000000111000000000011111111100111100000000111111110
000000111111111001111
0000011100000000000000000000000000000000011100000000000000000001100000
000000000111000000000
0000011100000000000000000000000000000000000000000000000000000011111000
000000000000000000000
0000011100000000000000000000000000000000000000000000000000000000111100
000000000000000000000
0000011100000000000000000000000000000000000000000000000000000000011100
000000000000000000000
0000011100000000000000000000000000000000000000000000000000000000111100
000000000000000000000
0000011100000000000000000000000000000000000000000000000000000111111000
000000000000000000000
0000011100000000000000000000000000000000000000000000000000000111110000
000000000000000000000
