P1
# ExCyber Power Style
127 21
0000000000000000000000000000000000000000000000000000000000000000000000
000000000000000000000000000000000000000000000000000000000
0000000000111111110000000011100111111100000000111000001110011111110000
111111100000000000111111110000000011100000000111111110000
0000000011111111111100000011101111111111000000111000001110111111111001
111111110000000011111111111100000011100000001111111111000
0000000111111111111110000011111111111111000000111000001111111111111111
111111110000000111111111111110000011100000011111111111100
0000001111000000111110000011111000001111100000111000001111100000111111
000001111000001111000000111110000011100000111100000011110
0000001110000000011110000011110000000111100000111000001111000000111110
000001111000001110000000011110000011100000111000000001110
0000001110000000001110000011110000000011100000111000001111000000011110
000000111000001110000000001110000011100000111000000001110
0000000000000000001110000011100000000011100000111000001110000000011100
000000111000000000000000001110000011100000111100000000000
0000000000000000011110000011100000000011100000111000001110000000011100
000000111000000000000000011110000011100000111111100000000
0000000000111111111110000011100000000011100000111000001110000000011100
000000111000000000111111111110000011100000011111111100000
0000000011111111111110000011100000000011100000111000001110000000011100
000000111000000011111111111110000011100000001111111111100
0000001111111111001110000011100000000011100000111000001110000000011100
000000111000001111111111001110000011100000000011111111110
0000001111100000001110000011100000000011100000111000001110000000011100
000000111000001111100000001110000011100000000000001111111
0000011110000000001110000011100000000011100000111000001110000000011100
000000111000011110000000001110000011100000000000000001111
0000011110000000011110000011100000000011100000111000001110000000011100
000000111000011110000000011110000011100000111000000001111
0000011110000000011110000011100000000011100000111000001110000000011100
000000111000011110000000011110000011100001111000000000111
0000011110000000111110000011100000000011100000111000001110000000011100
000000111000011110000000111110000011100000111100000001111
0000011111000011111111000011100000000011100000111000001110000000011100
000000111000011111000011111111000011100000111110000011110
0000001111111111101111000011100000000011100000111000001110000000011100
000000111000001111111111101111000011100000011111111111110
0000000111111111001111000011100000000011100000111000001110000000011100
000000111000000111111111001111000011100000001111111111000
0000000000111000000000000000000000000000000000000000000000000000000000
000000000000000000111000000000000000000000000011111100000
