P1
# ExCyber Power Style
59 21
00000000000000000000000000000000000000000000000000000000000
00000000111111110000000111000000000111000000000111111110000
00000001111111111000000111000000000111000000011111111111100
00000011111111111100000111000000000111000000111111111111110
00000111100000011110000111000000000111000001111000000111110
00000111000000001110000111000000000111000001110000000011110
00000111000000001110000111000000000111000001110000000001110
00000111100000000000000111000000000111000000000000000001110
00000111111100000000000111000000000111000000000000000011110
00000011111111100000000111000000000111000000000111111111110
00000001111111111100000111000000000111000000011111111111110
00000000011111111110000111000000000111000001111111111001110
00000000000001111111000111000000000111000001111100000001110
00000000000000001111000111000000000111000011110000000001110
00000111000000001111000111000000000111000011110000000011110
00001111000000000111000111100000001111000011110000000011110
00000111100000001111000111100000011111000011110000000111110
00000111110000011110000111110000111111000011111000011111111
00000011111111111110000011111111111111000001111111111101111
00000001111111111000000001111111110111000000111111111001111
00000000011111100000000000011111000111000000000111000000000
