P1
# ExCyber Power Style
49 28
0000000000000000000000000000000000000000000000000
0000000000000000000000000111000000000000000000000
0000000000000000000000000111000000000000000000000
0000000000000000000000000111000000000000000000000
0000000000000000000000000111000000000000000000000
0000000000000000000000000111000000000000000000000
0000000000000000000000000111000000000000000000000
0000000000000000000000000111000000000000000000000
0000000000111111100000000111000000000111111110000
0000000011111111110000000111000000011111111111100
0000000111111111111100000111000000111111111111110
0000001111100000111100000111000001111000000111110
0000001111000000011110000111000001110000000011110
0000011110000000001110000111000001110000000001110
0000011100000000001111000111000000000000000001110
0000011100000000001111000111000000000000000011110
0000011111111111111111000111000000000111111111110
0000111111111111111111000111000000011111111111110
0000011111111111111111000111000001111111111001110
0000011100000000000000000111000001111100000001110
0000011100000000000000000111000011110000000001110
0000011110000000001111000111000011110000000011110
0000011110000000001111000111000011110000000011110
0000001111000000011110000111000011110000000111110
0000001111100001111100000111000011111000011111111
0000000111111111111100000111000001111111111101111
0000000001111111110000000111000000111111111001111
0000000000011111000000000000000000000111000000000
