P1
# ExCyber Power Style
88 28
0000000000000000000000000000000000000000000000000000000000000000000000
000000000000000000
0000011100000000000000000000000000000000000000000000000000000000111000
000000000000000000
0000011100000000000000000000000000000000000000000000000000000000111000
000000000000000000
0000011100000000000000000000000000000000000000000000000000000000111000
000000000000000000
0000011100000000000000000000000000000000000000000000000000000000111000
000000000000000000
0000011100000000000000000000000000000000000000000000000000000000000000
000000000000000000
0000011100000000000000000000000000000000000000000000000000000000000000
000000000000000000
0000011100000000000000000000000000000000000000000000000000000000000000
000000000000000000
0000011100111111100000000000011111111000000001110000000000111100111000
000000111111110000
0000011101111111111000000001111111111110000001110000000000111000111000
000011111111111100
0000011111111111111000000011111111111111000001111000000001111000111000
000111111111111110
0000011111100001111100000111100000011111000000111000000001111000111000
001111000000111110
0000011110000000111100000111000000001111000000111000000001110000111000
001110000000011110
0000011110000000011100000111000000000111000000111100000011110000111000
001110000000001110
0000011100000000011100000000000000000111000000011100000011100000111000
000000000000001110
0000011100000000011100000000000000001111000000011110000011100000111000
000000000000011110
0000011100000000011100000000011111111111000000011110000111100000111000
000000111111111110
0000011100000000011100000001111111111111000000001110000111000000111000
000011111111111110
0000011100000000011100000111111111100111000000001111001111000000111000
001111111111001110
0000011100000000011100000111110000000111000000000111001111000000111000
001111100000001110
0000011100000000011100001111000000000111000000000111001110000000111000
011110000000001110
0000011100000000011100001111000000001111000000000111111110000000111000
011110000000011110
0000011100000000011100001111000000001111000000000011111100000000111000
011110000000011110
0000011100000000011100001111000000011111000000000011111100000000111000
011110000000111110
0000011100000000011100001111100001111111100000000011111100000000111000
011111000011111111
0000011100000000011100000111111111110111100000000001111000000000111000
001111111111101111
0000011100000000011100000011111111100111100000000001111000000000111000
000111111111001111
0000000000000000000000000000011100000000000000000000000000000000000000
000000111000000000
