P1
# ExCyber Power Style
77 28
0000000000000000000000000000000000000000000000000000000000000000000000
0000000
0000011100000000000000000111000000000000000000000000011100000000000000
0000000
0000011100000000000000000111000000000000000000000000011100000000000000
0000000
0000011100000000000000000111000000000000000000000000011100000000000000
0000000
0000011100000000000000000111000000000000000000000000011100000000000000
0000000
0000000000000000000000000111000000000000000000000000000000000000000000
0000000
0000000000000000000000000111000000000000000000000000000000000000000000
0000000
0000000000000000000000000111000000000000000000000000000000000000000000
0000000
0000011100000000011111100111000000000011111110000000011100000000011111
1110000
0000011100000001111111110111000000001111111111000000011100000001111111
1111100
0000011100000011111111111111000000011111111111110000011100000011111111
1111110
0000011100000111110000111111000000111110000011110000011100000111100000
0111110
0000011100000111100000001111000000111100000001111000011100000111000000
0011110
0000011100001111000000001111000001111000000000111000011100000111000000
0001110
0000011100001111000000000111000001110000000000111100011100000000000000
0001110
0000011100001111000000000111000001110000000000111100011100000000000000
0011110
0000011100001110000000000111000001111111111111111100011100000000011111
1111110
0000011100001110000000000111000011111111111111111100011100000001111111
1111110
0000011100001110000000000111000001111111111111111100011100000111111111
1001110
0000011100001110000000000111000001110000000000000000011100000111110000
0001110
0000011100001111000000000111000001110000000000000000011100001111000000
0001110
0000011100001111000000000111000001111000000000111100011100001111000000
0011110
0000011100000111000000001111000001111000000000111100011100001111000000
0011110
0000011100000111100000011111000000111100000001111000011100001111000000
0111110
0000011100000011110000111111000000111110000111110000011100001111100001
1111111
0000011100000011111111111111000000011111111111110000011100000111111111
1101111
0000011100000000111111110111000000000111111111000000011100000011111111
1001111
0000000000000000001111000000000000000001111100000000000000000000011100
0000000
