P1
# ExCyber Power Style
73 27
0000000000000000000000000000000000000000000000000000000000000000000000
000
0000011100111111100000000000011111111000000001110011111000000111111110
000
0000011111111111110000000001111111111110000001110111111000011111111111
100
0000011111110011111000000011111111111111000001111111111000111111111111
110
0000011111000000111100000111100000011111000001111110010001111000000111
110
0000011110000000011100000111000000001111000001111000000001110000000011
110
0000011110000000011110000111000000000111000001111000000001110000000001
110
0000011100000000001110000000000000000111000001111000000000000000000001
110
0000011100000000001110000000000000001111000001110000000000000000000011
110
0000011100000000001110000000011111111111000001110000000000000111111111
110
0000011100000000001110000001111111111111000001110000000000011111111111
110
0000011100000000001110000111111111100111000001110000000001111111111001
110
0000011100000000001110000111110000000111000001110000000001111100000001
110
0000011100000000011110001111000000000111000001110000000011110000000001
110
0000011110000000011110001111000000001111000001110000000011110000000011
110
0000011110000000011100001111000000001111000001110000000011110000000011
110
0000011111000000111100001111000000011111000001110000000011110000000111
110
0000011111111111111000001111100001111111100001110000000011111000011111
111
0000011111111111110000000111111111110111100001110000000001111111111101
111
0000011100111111100000000011111111100111100001110000000000111111111001
111
0000011100000000000000000000011100000000000000000000000000000111000000
000
0000011100000000000000000000000000000000000000000000000000000000000000
000
0000011100000000000000000000000000000000000000000000000000000000000000
000
0000011100000000000000000000000000000000000000000000000000000000000000
000
0000011100000000000000000000000000000000000000000000000000000000000000
000
0000011100000000000000000000000000000000000000000000000000000000000000
000
0000011100000000000000000000000000000000000000000000000000000000000000
000
