P1
# ExCyber Power Style
54 21
000000000000000000000000000000000000000000000000000000
000000000011111110000000001110011111000000111111110000
000000001111111111000000001110111111000011111111111100
000000011111111111110000001111111111000111111111111110
000000111110000011110000001111110010001111000000111110
000000111100000001111000001111000000001110000000011110
000001111000000000111000001111000000001110000000001110
000001110000000000111100001111000000000000000000001110
000001110000000000111100001110000000000000000000011110
000001111111111111111100001110000000000000111111111110
000011111111111111111100001110000000000011111111111110
000001111111111111111100001110000000001111111111001110
000001110000000000000000001110000000001111100000001110
000001110000000000000000001110000000011110000000001110
000001111000000000111100001110000000011110000000011110
000001111000000000111100001110000000011110000000011110
000000111100000001111000001110000000011110000000111110
000000111110000111110000001110000000011111000011111111
000000011111111111110000001110000000001111111111101111
000000000111111111000000001110000000000111111111001111
000000000001111100000000000000000000000000111000000000
