P1
# ExCyber Power Style
141 34
0000000000000000000000000000000000000000000000000000000000000000000000
0000000000000000000000000000000000000000000000000000000000000000000000
0
0000000000000000000000000000000000000000000001111000000000000000000000
0000000000000000000111000000000000000000000000000000000000000000000000
0
0000000000000000000000000000000000000000000011110000000000000000000000
0000000000000000000111000000000000000000000000000000000000000000000000
0
0000000000000000000000000000000000000000000011110000000000000000000000
0000000000000000000111000000000000000000000000000000000000000000000000
0
0000000000000000000000000000000000000000000111100000000000000000000000
0000000000000000000111000000000000000000000000000000000000000000000000
0
0000000000000000000000000000000000000000000111000000000000000000000000
0000000000000000000000000000000000000000000000000000000000000000000000
0
0000000000000000000000000000000000000000000000000000000000000000000000
0000000000000000000000000000000000000000000000000000000000000000000000
0
0000000000000000000000000000000000000000000000000000000000000000000000
0000000000000000000000000000000000000000000000000000000000000000000000
0
0000011100111111100000000111001111100000011111110000000001110011111110
0000000111001111100111000000000011111111000000000001111111100000000000
0
0000011111111111110000000111011111100001111111111100000001111111111111
0000000111011111100111000000001111111111110000000011111111110000000000
0
0000011111110011111000000111111111100011111111111110000001111111001111
1000000111111111100111000000011111111111111000000111111111111000000000
0
0000011111000000111100000111111001000011110000011111000001111100000011
1100000111111001000111000000111100000011111000001111000000111100000000
0
0000011110000000011100000111100000000111100000001111000001111000000001
1100000111100000000111000000111000000001111000001110000000011100000000
0
0000011110000000011110000111100000001111000000000111100001111000000001
1110000111100000000111000000111000000000111000001110000000011100000000
0
0000011100000000001110000111100000001111000000000111100001110000000000
1110000111100000000111000000000000000000111000001111000000000000000000
0
0000011100000000001110000111000000001111000000000011100001110000000000
1110000111000000000111000000000000000001111000001111111000000000000000
0
0000011100000000001110000111000000001110000000000011100001110000000000
1110000111000000000111000000000011111111111000000111111111000000000000
0
0000011100000000001110000111000000001110000000000011100001110000000000
1110000111000000000111000000001111111111111000000011111111111000000000
0
0000011100000000001110000111000000001110000000000011100001110000000000
1110000111000000000111000000111111111100111000000000111111111100000000
0
0000011100000000001110000111000000001110000000000011100001110000000000
1110000111000000000111000000111110000000111000000000000011111110000000
0
0000011100000000011110000111000000001111000000000011100001110000000001
1110000111000000000111000001111000000000111000000000000000011110000000
0
0000011110000000011110000111000000001111000000000111100001111000000001
1110000111000000000111000001111000000001111000001110000000011110000000
0
0000011110000000011100000111000000000111000000000111100001111000000001
1100000111000000000111000001111000000001111000011110000000001110000000
0
0000011111000000111100000111000000000111100000001111000001111100000011
1100000111000000000111000001111000000011111000001111000000011110000011
1
0000011111111111111000000111000000000011110000111111000001111111111111
1000000111000000000111000001111100001111111100001111100000111100000111
1
0000011111111111110000000111000000000001111111111110000001111111111111
0000000111000000000111000000111111111110111100000111111111111100000111
1
0000011100111111100000000111000000000000111111111000000001110011111110
0000000111000000000111000000011111111100111100000011111111110000000111
1
0000011100000000000000000000000000000000001111100000000001110000000000
0000000000000000000000000000000011100000000000000000111111000000000000
0
0000011100000000000000000000000000000000000000000000000001110000000000
0000000000000000000000000000000000000000000000000000000000000000000000
0
0000011100000000000000000000000000000000000000000000000001110000000000
0000000000000000000000000000000000000000000000000000000000000000000000
0
0000011100000000000000000000000000000000000000000000000001110000000000
0000000000000000000000000000000000000000000000000000000000000000000000
0
0000011100000000000000000000000000000000000000000000000001110000000000
0000000000000000000000000000000000000000000000000000000000000000000000
0
0000011100000000000000000000000000000000000000000000000001110000000000
0000000000000000000000000000000000000000000000000000000000000000000000
0
0000011100000000000000000000000000000000000000000000000001110000000000
0000000000000000000000000000000000000000000000000000000000000000000000
0
