P1
# ExCyber Power Style
132 28
0000000000000000000000000000000000000000000000000000000000000000000000
00000000000000000000000000000000000000000000000000000000000000
0000000000000000000000000000000000000000000000000000000000000000000000
00000000000000000000000000000111000000000000000000000000000000
0000000000000000000000000000000000000000000000000000000000000000000000
00000000000000000000000000000111000000000000000000000000000000
0000000000000000000000000000000000000000000000000000000000000000000000
00000000000000000000000000000111000000000000000000000000000000
0000000000000000000000000000000000000000000000000000000000000000000000
00000000000000000000000000000111000000000000000000000000000000
0000000000000000000000000000000000000000000000000000000000000000000000
00000000000000000000000000000111000000000000000000000000000000
0000000000000000000000000000000000000000000000000000000000000000000000
00000000000000000000000000000111000000000000000000000000000000
0000000000000000000000000000000000000000000000000000000000000000000000
00000000000000000000000000000111000000000000000000000000000000
0000000011111111000000011100000000011100000111001111100111001111100000
01111111100000000000011111100111000000000111111100000000000000
0000000111111111100000011100000000011100000111011111100111011111100001
11111111111000000001111111110111000000011111111111000000000000
0000001111111111110000011100000000011100000111111111100111111111100011
11111111111100000011111111111111000000111111111111100000000000
0000011110000001111000011100000000011100000111111001000111111001000111
10000001111100000111110000111111000000111100000111110000000000
0000011100000000111000011100000000011100000111100000000111100000000111
00000000111100000111100000001111000001111000000011110000000000
0000011100000000111000011100000000011100000111100000000111100000000111
00000000011100001111000000001111000011110000000001111000000000
0000011110000000000000011100000000011100000111100000000111100000000000
00000000011100001111000000000111000011110000000001111000000000
0000011111110000000000011100000000011100000111000000000111000000000000
00000000111100001111000000000111000011110000000000111000000000
0000001111111110000000011100000000011100000111000000000111000000000000
01111111111100001110000000000111000011100000000000111000000000
0000000111111111110000011100000000011100000111000000000111000000000001
11111111111100001110000000000111000011100000000000111000000000
0000000001111111111000011100000000011100000111000000000111000000000111
11111110011100001110000000000111000011100000000000111000000000
0000000000000111111100011100000000011100000111000000000111000000000111
11000000011100001110000000000111000011100000000000111000000000
0000000000000000111100011100000000011100000111000000000111000000001111
00000000011100001111000000000111000011110000000000111000000000
0000011100000000111100011100000000011100000111000000000111000000001111
00000000111100001111000000000111000011110000000001111000000000
0000111100000000011100011110000000111100000111000000000111000000001111
00000000111100000111000000001111000001110000000001111000000000
0000011110000000111100011110000001111100000111000000000111000000001111
00000001111100000111100000011111000001111000000011110000000111
0000011111000001111000011111000011111100000111000000000111000000001111
10000111111110000011110000111111000000111100001111110000001111
0000001111111111111000001111111111111100000111000000000111000000000111
11111111011110000011111111111111000000011111111111100000001111
0000000111111111100000000111111111011100000111000000000111000000000011
11111110011110000000111111110111000000001111111110000000001111
0000000001111110000000000001111100011100000000000000000000000000000000
01110000000000000000001111000000000000000011111000000000000000
