P1
# ExCyber Power Style
60 28
000000000000000000000000000000000000000000000000000000000000
000000000000000000000000001110000000000000000000000000000000
000000000000000000000000001110000000010000000000000000000000
000000000000000000000000001110000001110000000000000000000000
000000000000000000000000001110000001110000000000000000000000
000000000000000000000000001110000001110000000000000000000000
000000000000000000000000001110000001110000000000000000000000
000000000000000000000000001110000001110000000000000000000000
000000000011111111000000001110001111111110000000111111100000
000000001111111111110000001110001111111110000011111111111000
000000011111111111111000001110001111111110000111111111111100
000000111100000011111000001110000001110000000111100000111110
000000111000000001111000001110000001110000001111000000011110
000000111000000000111000001110000001110000011110000000001111
000000000000000000111000001110000001110000011110000000001111
000000000000000001111000001110000001110000011110000000000111
000000000011111111111000001110000001110000011100000000000111
000000001111111111111000001110000001110000011100000000000111
000000111111111100111000001110000001110000011100000000000111
000000111110000000111000001110000001110000011100000000000111
000001111000000000111000001110000001110000011110000000000111
000001111000000001111000001110000001110000011110000000001111
000001111000000001111000001110000001110000001110000000001111
000001111000000011111000001110000001110000001111000000011110
000001111100001111111100001110000001111110000111100001111110
000000111111111110111100001110000001111110000011111111111100
000000011111111100111100001110000000111110000001111111110000
000000000011100000000000000000000000000000000000011111000000
