P1
# ExCyber Power Style
100 28
0000000000000000000000000000000000000000000000000000000000000000000000
000000000000000000000000000000
0000000001110000000001111111000000001110000000000111100000001111111000
000001110011111110000111111100
0000000001110000000111111111110000001110000000000111000000111111111100
000001110111111111001111111110
0000000001110000001111111111111000001111000000001111000001111111111111
000001111111111111111111111110
0000000001110000001111000001111100000111000000001111000011111000001111
000001111100000111111000001111
0000000001110000011110000000111100000111000000001110000011110000000111
100001111000000111110000001111
0000000001110000111100000000011110000111100000011110000111100000000011
100001111000000011110000000111
0000000001110000111100000000011110000011100000011100000111000000000011
110001110000000011100000000111
0000000001110000111100000000001110000011110000011100000111000000000011
110001110000000011100000000111
0000000001110000111000000000001110000011110000111100000111111111111111
110001110000000011100000000111
0000000001110000111000000000001110000001110000111000001111111111111111
110001110000000011100000000111
0000000001110000111000000000001110000001111001111000000111111111111111
110001110000000011100000000111
0000000001110000111000000000001110000000111001111000000111000000000000
000001110000000011100000000111
0000000001110000111100000000001110000000111001110000000111000000000000
000001110000000011100000000111
0000000001110000111100000000011110000000111111110000000111100000000011
110001110000000011100000000111
0000000001110000011100000000011110000000011111100000000111100000000011
110001110000000011100000000111
0000000001110000011110000000111100000000011111100000000011110000000111
100001110000000011100000000111
0000000001110000001111000011111100000000011111100000000011111000011111
000001110000000011100000000111
0000000001110000000111111111111000000000001111000000000001111111111111
000001110000000011100000000111
0000000001110000000011111111100000000000001111000000000000011111111100
000001110000000011100000000111
0000000001110000000000111110000000000000000000000000000000000111110000
000000000000000000000000000000
0000000001110000000000000000000000000000000000000000000000000000000000
000000000000000000000000000000
0000000001110000000000000000000000000000000000000000000000000000000000
000000000000000000000000000000
0000000001110000000000000000000000000000000000000000000000000000000000
000000000000000000000000000000
0000000011110000000000000000000000000000000000000000000000000000000000
000000000000000000000000000000
0000011111110000000000000000000000000000000000000000000000000000000000
000000000000000000000000000000
0000011111100000000000000000000000000000000000000000000000000000000000
000000000000000000000000000000
0000011111000000000000000000000000000000000000000000000000000000000000
000000000000000000000000000000
