P1
# ExCyber Power Style
143 28
0000000000000000000000000000000000000000000000000000000000000000000000
0000000000000000000000000000000000000000000000000000000000000000000000
000
0000000000000000000000000000000000000000000000000000000000000000000000
0000000000011100000000000000000000000000000000000000000000000000000000
000
0000000000000000000000000000000000000000000000000000000000000000000000
0000000000011100000000000000000000000000000000000000000000000000000000
000
0000000000000000000000000000000000000000000000000000000000000000000000
0000000000011100000000000000000000000000000000000000000000000000000000
000
0000000000000000000000000000000000000000000000000000000000000000000000
0000000000011100000000000000000000000000000000000000000000000000000000
000
0000000000000000000000000000000000000000000000000000000000000000000000
0000000000011100000000000000000000000000000000000000000000000000000000
000
0000000000000000000000000000000000000000000000000000000000000000000000
0000000000011100000000000000000000000000000000000000000000000000000000
000
0000000000000000000000000000000000000000000000000000000000000000000000
0000000000011100000000000000000000000000000000000000000000000000000000
000
0000000000111111100000000000111111110000000000001111111000000000011111
1110000000011100000000011111111000000011100000000001111000000111111110
000
0000000011111111110000000001111111111000000000111111111100000001111111
1111100000011100000001111111111110000011100000000001110000011111111111
100
0000000111111111111100000011111111111100000001111111111110000011111111
1111110000011100000011111111111111000011110000000011110000111111111111
110
0000001111100000111100000111100000011110000011111000001111000111100000
0111110000011100000111100000011111000001110000000011110001111000000111
110
0000001111000000011110000111000000001110000011110000000111000111000000
0011110000011100000111000000001111000001110000000011100001110000000011
110
0000011110000000001110000111000000001110000111100000000111100111000000
0001110000011100000111000000000111000001111000000111100001110000000001
110
0000011100000000001111000111100000000000000111100000000000000000000000
0001110000011100000000000000000111000000111000000111000000000000000001
110
0000011100000000001111000111111100000000000111000000000000000000000000
0011110000011100000000000000001111000000111100000111000000000000000011
110
0000011111111111111111000011111111100000000111000000000000000000011111
1111110000011100000000011111111111000000111100001111000000000111111111
110
0000111111111111111111000001111111111100000111000000000000000001111111
1111110000011100000001111111111111000000011100001110000000011111111111
110
0000011111111111111111000000011111111110000111000000000000000111111111
1001110000011100000111111111100111000000011110011110000001111111111001
110
0000011100000000000000000000000001111111000111000000000000000111110000
0001110000011100000111110000000111000000001110011110000001111100000001
110
0000011100000000000000000000000000001111000111000000000011001111000000
0001110000011100001111000000000111000000001110011100000011110000000001
110
0000011110000000001111000111000000001111000111100000000111101111000000
0011110000011100001111000000001111000000001111111100000011110000000011
110
0000011110000000001111001111000000000111000111100000000111101111000000
0011110000011100001111000000001111000000000111111000000011110000000011
110
0000001111000000011110000111100000001111000011110000001111001111000000
0111110000011100001111000000011111000000000111111000000011110000000111
110
0000001111100001111100000111110000011110000011111000011111001111100001
1111111000011100001111100001111111100000000111111000000011111000011111
111
0000000111111111111100000011111111111110000001111111111110000111111111
1101111000011100000111111111110111100000000011110000000001111111111101
111
0000000001111111110000000001111111111000000000011111111100000011111111
1001111000011100000011111111100111100000000011110000000000111111111001
111
0000000000011111000000000000011111100000000000000111100000000000011100
0000000000000000000000011100000000000000000000000000000000000111000000
000
