P1
# ExCyber Power Style
116 34
0000000000000000000000000000000000000000000000000000000000000000000000
0000000000000000000000000000000000000000000000
0000000000000000000000000000000000000000000000111000000000000011110000
0000000000000000000000111000000000000000000000
0000000000000000000000000000000000000000000000111000000000000111100000
0000000000000000000000111000000000000000000000
0000000000000000000000000000000000000000000000111000000000000111100000
0000000000000000000000111000000000000000000000
0000000000000000000000000000000000000000000000111000000000001111000000
0000000000000000000000111000000000000000000000
0000000000000000000000000000000000000000000000111000000000001110000000
0000000000000000000000000000000000000000000000
0000000000000000000000000000000000000000000000111000000000000000000000
0000000000000000000000000000000000000000000000
0000000000000000000000000000000000000000000000111000000000000000000000
0000000000000000000000000000000000000000000000
0000011100111111100000000000011111111000000000111000000000111111110000
0000000001111111000000111000000000111111100000
0000011111111111110000000001111111111110000000111000000011111111111100
0000000111111111100000111000000011111111111000
0000011111110011111000000011111111111111000000111000000111111111111110
0000001111111111110000111000000111111111111100
0000011111000000111100000111100000011111000000111000001111000000111110
0000011111000001111000111000000111100000111110
0000011110000000011100000111000000001111000000111000001110000000011110
0000011110000000111000111000001111000000011110
0000011110000000011110000111000000000111000000111000001110000000001110
0000111100000000111100111000011110000000001111
0000011100000000001110000000000000000111000000111000000000000000001110
0000111100000000000000111000011110000000001111
0000011100000000001110000000000000001111000000111000000000000000011110
0000111000000000000000111000011110000000000111
0000011100000000001110000000011111111111000000111000000000111111111110
0000111000000000000000111000011100000000000111
0000011100000000001110000001111111111111000000111000000011111111111110
0000111000000000000000111000011100000000000111
0000011100000000001110000111111111100111000000111000001111111111001110
0000111000000000000000111000011100000000000111
0000011100000000001110000111110000000111000000111000001111100000001110
0000111000000000000000111000011100000000000111
0000011100000000011110001111000000000111000000111000011110000000001110
0000111000000000011000111000011110000000000111
0000011110000000011110001111000000001111000000111000011110000000011110
0000111100000000111100111000011110000000001111
0000011110000000011100001111000000001111000000111000011110000000011110
0000111100000000111100111000001110000000001111
0000011111000000111100001111000000011111000000111000011110000000111110
0000011110000001111000111000001111000000011110
0000011111111111111000001111100001111111100000111000011111000011111111
0000011111000011111000111000000111100001111110
0000011111111111110000000111111111110111100000111000001111111111101111
0000001111111111110000111000000011111111111100
0000011100111111100000000011111111100111100000111000000111111111001111
0000000011111111100000111000000001111111110000
0000011100000000000000000000011100000000000000000000000000111000000000
0000000000111100000000000000000000011111000000
0000011100000000000000000000000000000000000000000000000000000000000000
0000000000000000000000000000000000000000000000
0000011100000000000000000000000000000000000000000000000000000000000000
0000000000000000000000000000000000000000000000
0000011100000000000000000000000000000000000000000000000000000000000000
0000000000000000000000000000000000000000000000
0000011100000000000000000000000000000000000000000000000000000000000000
0000000000000000000000000000000000000000000000
0000011100000000000000000000000000000000000000000000000000000000000000
0000000000000000000000000000000000000000000000
0000011100000000000000000000000000000000000000000000000000000000000000
0000000000000000000000000000000000000000000000
