P1
# ExCyber Power Style
138 35
0000000000000000000000000000000000000000000000000000000000000000000000
00000000000000000000000000000000000000000000000000000000000000000000
0000000000000000000000000111000000000000000000000000000000000000000000
00000000000000000000000000000001111100000000000000000000000000000000
0000000000000000000000000111000000000000000000000000000000000000000000
00000000000000000000000000000001111000000000000000000000000000000000
0000000000000000000000000111000000000000000000000000000000000000000000
00000000000000000000000000000001110000000000000000000000000000000000
0000000000000000000000000111000000000000000000000000000000000000000000
00000000000000000000000000000011100000000000000000000000000000000000
0000000000000000000000000000000000000000000000000000000000000000000000
00000000000000000000000000000011100000000000000000000000000000000000
0000000000000000000000000000000000000000000000000000000000000000000000
00000000000000000000000000000000000000000000000000000000000000000000
0000000000000000000000000000000000000000000000000000000000000000000000
00000000000000000000000000000000000000000000000000000000000000000000
0000011100111111100000000111000001110011111110000000000001111110001110
00011100000000011100000000001111111000000001110011111110000111111100
0000011101111111111000000111000001110111111111100000000111111111101110
00011100000000011100000000111111111100000001110111111111001111111110
0000011111111111111000000111000001111111111111100000001111111111111110
00011100000000011100000001111111111111000001111111111111111111111110
0000011111000001111100000111000001111100000111110000001111000001111110
00011100000000011100000011111000001111000001111100000111111000001111
0000011110000000111100000111000001111000000011110000011110000000111110
00011100000000011100000011110000000111100001111000000111110000001111
0000011110000000011100000111000001111000000001110000011100000000011110
00011100000000011100000111100000000011100001111000000011110000000111
0000011100000000011100000111000001110000000001110000111100000000011110
00011100000000011100000111000000000011110001110000000011100000000111
0000011100000000011100000111000001110000000001110000111100000000001110
00011100000000011100000111000000000011110001110000000011100000000111
0000011100000000011100000111000001110000000001110000111000000000001110
00011100000000011100000111111111111111110001110000000011100000000111
0000011100000000011100000111000001110000000001110000111000000000001110
00011100000000011100001111111111111111110001110000000011100000000111
0000011100000000011100000111000001110000000001110000111000000000001110
00011100000000011100000111111111111111110001110000000011100000000111
0000011100000000011100000111000001110000000001110000111100000000001110
00011100000000011100000111000000000000000001110000000011100000000111
0000011100000000011100000111000001110000000001110000111100000000011110
00011100000000011100000111000000000000000001110000000011100000000111
0000011100000000011100000111000001110000000001110000111100000000011110
00011100000000011100000111100000000011110001110000000011100000000111
0000011100000000011100000111000001110000000001110000011110000000111110
00011110000000111100000111100000000011110001110000000011100000000111
0000011100000000011100000111000001110000000001110000011111000001111110
00011110000001111100000011110000000111100001110000000011100000000111
0000011100000000011100000111000001110000000001110000001111111111111110
00011111000011111100000011111000011111000001110000000011100000000111
0000011100000000011100000111000001110000000001110000000111111111101110
00001111111111111100000001111111111111000001110000000011100000000111
0000011100000000011100000111000001110000000001110000000001111110001110
00000111111111011100000000011111111100000001110000000011100000000111
0000000000000000000000000000000000000000000000000000000000000000011110
00000001111100011100000000000111110000000000000000000000000000000000
0000000000000000000000000000000000000000000000000000010000000000011110
00000000000000000000000000000000000000000000000000000000000000000000
0000000000000000000000000000000000000000000000000000011100000000011110
00000000000000000000000000000000000000000000000000000000000000000000
0000000000000000000000000000000000000000000000000000011110000000111100
00000000000000000000000000000000000000000000000000000000000000000000
0000000000000000000000000000000000000000000000000000011111000001111100
00000000000000000000000000000000000000000000000000000000000000000000
0000000000000000000000000000000000000000000000000000001111111111111000
00000000000000000000000000000000000000000000000000000000000000000000
0000000000000000000000000000000000000000000000000000000111111111110000
00000000000000000000000000000000000000000000000000000000000000000000
0000000000000000000000000000000000000000000000000000000000111110000000
00000000000000000000000000000000000000000000000000000000000000000000
