P1
# ExCyber Power Style
129 32
0000000000000000000000000000000000000000000000000000000000000000000000
00000000000000000000000000000000000000000000000000000000000
0000011100000000000000000000000000000000000000000000000000000000000000
00000001110000000000000000000000000000000000000000000000000
0000011100000000000000000000000000000000000000000000000000000000000000
00000001110000000000000000000000000000000000000000000000000
0000011100000000000000000000000000000000000000000000000000000000000000
00000001110000000000000000000000000000000000000000000000000
0000011100000000000000000000000000000000000000000000000000000000000000
00000001110000000000000000000000000000000000000000000000000
0000011100000000000000000000000000000000000000000000000000000000000000
00000001110000000000000000000000000000000000000000000000000
0000011100000000000000000000000000000000000000000000000000000000000000
00000001110000000000000000000000000000000000000000000000000
0000011100000000000000000000000000000000000000000000000000000000000000
00000001110000000000000000000000000000000000000000000000000
0000011100111111000000000000011111111000000001110011111110000000000001
11111001110000000001111111100000000000111111110000000000000
0000011101111111110000000001111111111110000001110111111111100000000111
11111101110000000111111111111000000001111111111000000000000
0000011111111111111000000011111111111111000001111111111111100000001111
11111111110000001111111111111100000011111111111100000000000
0000011111100001111100000111100000011111000001111100000111110000011111
00001111110000011110000001111100000111100000011110000000000
0000011111000000111100000111000000001111000001111000000011110000011110
00000011110000011100000000111100000111000000001110000000000
0000011110000000011110000111000000000111000001111000000001110000111100
00000011110000011100000000011100000111000000001110000000000
0000011100000000011110000000000000000111000001110000000001110000111100
00000001110000000000000000011100000111100000000000000000000
0000011100000000001110000000000000001111000001110000000001110000111100
00000001110000000000000000111100000111111100000000000000000
0000011100000000001110000000011111111111000001110000000001110000111000
00000001110000000001111111111100000011111111100000000000000
0000011100000000001110000001111111111111000001110000000001110000111000
00000001110000000111111111111100000001111111111100000000000
0000011100000000001110000111111111100111000001110000000001110000111000
00000001110000011111111110011100000000011111111110000000000
0000011100000000001110000111110000000111000001110000000001110000111000
00000001110000011111000000011100000000000001111111000000000
0000011100000000001110001111000000000111000001110000000001110000111100
00000001110000111100000000011100000000000000001111000000000
0000011100000000011110001111000000001111000001110000000001110000111100
00000001110000111100000000111100000111000000001111000000000
0000011110000000011110001111000000001111000001110000000001110000011100
00000011110000111100000000111100001111000000000111000000000
0000011111000000111100001111000000011111000001110000000001110000011110
00000111110000111100000001111100000111100000001111000001111
0000011111100011111000001111100001111111100001110000000001110000001111
00001111110000111110000111111110000111110000011110000001111
0000011111111111111000000111111111110111100001110000000001110000001111
11111111110000011111111111011110000011111111111110000001111
0000011101111111100000000011111111100111100001110000000001110000000011
11111101110000001111111110011110000001111111111000000001111
0000000000011110000000000000011100000000000000000000000000000000000000
11110000000000000001110000000000000000011111100000000000011
0000000000000000000000000000000000000000000000000000000000000000000000
00000000000000000000000000000000000000000000000000000000011
0000000000000000000000000000000000000000000000000000000000000000000000
00000000000000000000000000000000000000000000000000000000111
0000000000000000000000000000000000000000000000000000000000000000000000
00000000000000000000000000000000000000000000000000000001110
0000000000000000000000000000000000000000000000000000000000000000000000
00000000000000000000000000000000000000000000000000000001100
