P1
# ExCyber Power Style
177 33
0000000000000000000000000001110000000000000000000000000000000000000000
0000000000000000000000000000100000000000000000000000000000000000000000
0000000000000000000000000000000000000
0000000000000000000000000001110000000000000000000000000000000000000000
0000000000000000000000000011100000000000000000000000000000000000000000
0000000000000000000000000000000000000
0000000000000000000000000001110000000000000000000000000000000000000000
0000000000000000000000000011100000000000000000000000000000000000000000
0000000000000000000000000000000000000
0000000000000000000000000000000000000000000000000000000000000000000000
0000000000000000000000000011100000000000000000000000000000000000000000
0000000000000000000000000000000000000
0000000000000000000000000000000000000000000000000000000000000000000000
0000000000000000000000000011100000000000000000000000000000000000000000
0000000000000000000000000000000000000
0000000000000000000000000000000000000000000000000000000000000000000000
0000000000000000000000000011100000000000000000000000000000000000000000
0000000000000000000000000000000000000
0000000000111111000111000001110000000001111110001110000000011111111000
0000011100111111100000011111111100000000111111100000000000111111110000
0000000011111110000000000111111110000
0000000011111111110111000001110000000111111111101110000001111111111110
0000011101111111111000011111111100000011111111110000000001111111111000
0000001111111111000000011111111111100
0000000111111111111111000001110000001111111111111110000011111111111111
0000011111111111111000011111111100000111111111111100000011111111111100
0000011111111111100000111111111111110
0000000111100000111111000001110000001111000001111110000111100000011111
0000011111000001111100000011100000001111100000111100000111100000011110
0000111110000011110001111000000111110
0000001111000000011111000001110000011110000000111110000111000000001111
0000011110000000111100000011100000001111000000011110000111000000001110
0000111100000001110001110000000011110
0000001110000000001111000001110000011100000000011110000111000000000111
0000011110000000011100000011100000011110000000001110000111000000001110
0001111000000001111001110000000001110
0000011110000000001111000001110000111100000000011110000000000000000111
0000011100000000011100000011100000011100000000001111000111100000000000
0001111000000000000000000000000001110
0000011110000000000111000001110000111100000000001110000000000000001111
0000011100000000011100000011100000011100000000001111000111111100000000
0001110000000000000000000000000011110
0000011100000000000111000001110000111000000000001110000000011111111111
0000011100000000011100000011100000011111111111111111000011111111100000
0001110000000000000000000111111111110
0000011100000000000111000001110000111000000000001110000001111111111111
0000011100000000011100000011100000111111111111111111000001111111111100
0001110000000000000000011111111111110
0000011100000000000111000001110000111000000000001110000111111111100111
0000011100000000011100000011100000011111111111111111000000011111111110
0001110000000000000001111111111001110
0000011110000000000111000001110000111100000000001110000111110000000111
0000011100000000011100000011100000011100000000000000000000000001111111
0001110000000000000001111100000001110
0000011110000000001111000001110000111100000000011110001111000000000111
0000011100000000011100000011100000011100000000000000000000000000001111
0001110000000000110011110000000001110
0000011110000000001111000001110000111100000000011110001111000000001111
0000011100000000011100000011100000011110000000001111000111000000001111
0001111000000001111011110000000011110
0000001111000000011111000001110000011110000000111110001111000000001111
0000011100000000011100000011100000011110000000001111001111000000000111
0001111000000001111011110000000011110
0000001111100000111111000001110000011111000001111110001111000000011111
0000011100000000011100000011100000001111000000011110000111100000001111
0000111100000011110011110000000111110
0000000111111111111111000001110000001111111111111110001111100001111111
1000011100000000011100000011111100001111100001111100000111110000011110
0000111110000111110011111000011111111
0000000011111111110111000001110000000111111111101110000111111111110111
1000011100000000011100000011111100000111111111111100000011111111111110
0000011111111111100001111111111101111
0000000000111111000111000001110000000001111110001110000011111111100111
1000011100000000011100000001111100000001111111110000000001111111111000
0000000111111111000000111111111001111
0000000000000000001111000000000000000000000000011110000000011100000000
0000000000000000000000000000000000000000011111000000000000011111100000
0000000001111000000000000111000000000
0000001000000000001111000000000000010000000000011110000000000000000000
0000000000000000000000000000000000000000000000000000000000000000000000
0000000000000000000000000000000000000
0000001110000000001111000000000000011100000000011110000000000000000000
0000000000000000000000000000000000000000000000000000000000000000000000
0000000000000000000000000000000000000
0000001111000000011110000000000000011110000000111100000000000000000000
0000000000000000000000000000000000000000000000000000000000000000000000
0000000000000000000000000000000000000
0000001111100000111110000000000000011111000001111100000000000000000000
0000000000000000000000000000000000000000000000000000000000000000000000
0000000000000000000000000000000000000
0000000111111111111100000000000000001111111111111000000000000000000000
0000000000000000000000000000000000000000000000000000000000000000000000
0000000000000000000000000000000000000
0000000011111111111000000000000000000111111111110000000000000000000000
0000000000000000000000000000000000000000000000000000000000000000000000
0000000000000000000000000000000000000
0000000000011111000000000000000000000000111110000000000000000000000000
0000000000000000000000000000000000000000000000000000000000000000000000
0000000000000000000000000000000000000
