P1
# ExCyber Power Style
87 28
0000000000000000000000000000000000000000000000000000000000000000000000
00000000000000000
0000000000000000000000001110000000000000000000000000000110000011000000
00000000000000000
0000000000000000000000001110000000000000000000000000001111110011000000
00000000000000000
0000000000000000000000001110000000000000000000000000011111111111000000
00000000000000000
0000000000000000000000001110000000000000000000000000011000111111000000
00000000000000000
0000000000000000000000000000000000000000000000000000011000001100000000
00000000000000000
0000000000000000000000000000000000000000000000000000000000000000000000
00000000000000000
0000000000000000000000000000000000000000000000000000000000000000000000
00000000000000000
0000011100000000001111001110000000011111111000000000000111111110000000
00000111111100000
0000011100000000001110001110000000111111111100000000011111111111100000
00011111111111000
0000011110000000011110001110000001111111111110000000111111111111110000
00111111111111100
0000001110000000011110001110000011110000001111000001111000000111110000
00111100000111110
0000001110000000011100001110000011100000000111000001110000000011110000
01111000000011110
0000001111000000111100001110000011100000000111000001110000000001110000
11110000000001111
0000000111000000111000001110000011110000000000000000000000000001110000
11110000000001111
0000000111100000111000001110000011111110000000000000000000000011110000
11110000000000111
0000000111100001111000001110000001111111110000000000000111111111110000
11100000000000111
0000000011100001110000001110000000111111111110000000011111111111110000
11100000000000111
0000000011110011110000001110000000001111111111000001111111111001110000
11100000000000111
0000000001110011110000001110000000000000111111100001111100000001110000
11100000000000111
0000000001110011100000001110000000000000000111100011110000000001110000
11110000000000111
0000000001111111100000001110000011100000000111100011110000000011110000
11110000000001111
0000000000111111000000001110000111100000000011100011110000000011110000
01110000000001111
0000000000111111000000001110000011110000000111100011110000000111110000
01111000000011110
0000000000111111000000001110000011111000001111000011111000011111111000
00111100001111110
0000000000011110000000001110000001111111111111000001111111111101111000
00011111111111100
0000000000011110000000001110000000111111111100000000111111111001111000
00001111111110000
0000000000000000000000000000000000001111110000000000000111000000000000
00000011111000000
