P1
# ExCyber Power Style
137 34
0000000000000000000000000000000000000000000000000000000000000000000000
0000000000000000000000000000000000000000000000000000000000000000000
0000000000000000000000000000000000000000000000000000000000000000000000
0000011100000000000000000000000000011000001100000000000000000000000
0000000000000000000000000000000000000000000000000000000000000000000000
0000011100000000000000000000000000111111001100000000000000000000000
0000000000000000000000000000000000000000000000000000000000000000000000
0000011100000000000000000000000001111111111100000000000000000000000
0000000000000000000000000000000000000000000000000000000000000000000000
0000011100000000000000000000000001100011111100000000000000000000000
0000000000000000000000000000000000000000000000000000000000000000000000
0000000000000000000000000000000001100000110000000000000000000000000
0000000000000000000000000000000000000000000000000000000000000000000000
0000000000000000000000000000000000000000000000000000000000000000000
0000000000000000000000000000000000000000000000000000000000000000000000
0000000000000000000000000000000000000000000000000000000000000000000
0000011100111111100000000111001111100000001111111000000000000011111110
0000011100000000111111110000000000011111111000000000000111111100000
0000011111111111110000000111011111100000111111111100000000001111111111
0000011100000001111111111000000001111111111110000000011111111111000
0000011111110011111000000111111111100001111111111111000000011111111111
1000011100000011111111111100000011111111111111000000111111111111100
0000011111000000111100000111111001000011111000001111000000111110000011
1100011100000111100000011110000111100000011111000000111100000111110
0000011110000000011100000111100000000011110000000111100000111100000001
1100011100000111000000001110000111000000001111000001111000000011110
0000011110000000011110000111100000000111100000000011100001111000000001
1110011100000111000000001110000111000000000111000011110000000001111
0000011100000000001110000111100000000111000000000011110001111000000000
0000011100000111100000000000000000000000000111000011110000000001111
0000011100000000001110000111000000000111000000000011110001110000000000
0000011100000111111100000000000000000000001111000011110000000000111
0000011100000000001110000111000000000111111111111111110001110000000000
0000011100000011111111100000000000011111111111000011100000000000111
0000011100000000001110000111000000001111111111111111110001110000000000
0000011100000001111111111100000001111111111111000011100000000000111
0000011100000000001110000111000000000111111111111111110001110000000000
0000011100000000011111111110000111111111100111000011100000000000111
0000011100000000001110000111000000000111000000000000000001110000000000
0000011100000000000001111111000111110000000111000011100000000000111
0000011100000000011110000111000000000111000000000000000001110000000000
1100011100000000000000001111001111000000000111000011110000000000111
0000011110000000011110000111000000000111100000000011110001111000000001
1110011100000111000000001111001111000000001111000011110000000001111
0000011110000000011100000111000000000111100000000011110001111000000001
1110011100001111000000000111001111000000001111000001110000000001111
0000011111000000111100000111000000000011110000000111100000111100000011
1100011100000111100000001111001111000000011111000001111000000011110
0000011111111111111000000111000000000011111000011111000000111110000111
1100011100000111110000011110001111100001111111100000111100001111110
0000011111111111110000000111000000000001111111111111000000011111111111
1000011100000011111111111110000111111111110111100000011111111111100
0000011100111111100000000111000000000000011111111100000000000111111111
0000011100000001111111111000000011111111100111100000001111111110000
0000011100000000000000000000000000000000000111110000000000000001111000
0000000000000000011111100000000000011100000000000000000011111000000
0000011100000000000000000000000000000000000000000000000000000000000000
0000000000000000000000000000000000000000000000000000000000000000000
0000011100000000000000000000000000000000000000000000000000000000000000
0000000000000000000000000000000000000000000000000000000000000000000
0000011100000000000000000000000000000000000000000000000000000000000000
0000000000000000000000000000000000000000000000000000000000000000000
0000011100000000000000000000000000000000000000000000000000000000000000
0000000000000000000000000000000000000000000000000000000000000000000
0000011100000000000000000000000000000000000000000000000000000000000000
0000000000000000000000000000000000000000000000000000000000000000000
0000011100000000000000000000000000000000000000000000000000000000000000
0000000000000000000000000000000000000000000000000000000000000000000
