P1
# ExCyber Power Style
57 28
000000000000000000000000000000000000000000000000000000000
000000000000000000111000000000000000000000000011100000111
000000000000000000111000000000000000000000000011100000111
000000000000000000111000000000000000000000000011100000111
000000000000000000111000000000000000000000000011100000111
000000000000000000111000000000000000000000000011100000000
000000000000000000111000000000000000000000000011100000000
000000000000000000111000000000000000000000000011100000000
000000000011111100111000000000111111110000000011100000111
000000001111111110111000000011111111111100000011100000111
000000011111111111111000000111111111111110000011100000111
000000111110000111111000001111000000111110000011100000111
000000111100000001111000001110000000011110000011100000111
000001111000000001111000001110000000001110000011100000111
000001111000000000111000000000000000001110000011100000111
000001111000000000111000000000000000011110000011100000111
000001110000000000111000000000111111111110000011100000111
000001110000000000111000000011111111111110000011100000111
000001110000000000111000001111111111001110000011100000111
000001110000000000111000001111100000001110000011100000111
000001111000000000111000011110000000001110000011100000111
000001111000000000111000011110000000011110000011100000111
000000111000000001111000011110000000011110000011100000111
000000111100000011111000011110000000111110000011100000111
000000011110000111111000011111000011111111000011100000111
000000011111111111111000001111111111101111000011100000111
000000000111111110111000000111111111001111000011100000111
000000000001111000000000000000111000000000000000000000000
