P1
# ExCyber Power Style
74 27
0000000000000000000000000000000000000000000000000000000000000000000000
0000
0000011100111111100000000000001111111100000000111001111100000011111111
0000
0000011111111111110000000000111111111111000000111011111100001111111111
1100
0000011111110011111000000001111111111111100000111111111100011111111111
1110
0000011111000000111100000011110000001111100000111111001000111100000011
1110
0000011110000000011100000011100000000111100000111100000000111000000001
1110
0000011110000000011110000011100000000011100000111100000000111000000000
1110
0000011100000000001110000000000000000011100000111100000000000000000000
1110
0000011100000000001110000000000000000111100000111000000000000000000001
1110
0000011100000000001110000000001111111111100000111000000000000011111111
1110
0000011100000000001110000000111111111111100000111000000000001111111111
1110
0000011100000000001110000011111111110011100000111000000000111111111100
1110
0000011100000000001110000011111000000011100000111000000000111110000000
1110
0000011100000000011110000111100000000011100000111000000001111000000000
1110
0000011110000000011110000111100000000111100000111000000001111000000001
1110
0000011110000000011100000111100000000111100000111000000001111000000001
1110
0000011111000000111100000111100000001111100000111000000001111000000011
1110
0000011111111111111000000111110000111111110000111000000001111100001111
1111
0000011111111111110000000011111111111011110000111000000000111111111110
1111
0000011100111111100000000001111111110011110000111000000000011111111100
1111
0000011100000000000000000000001110000000000000000000000000000011100000
0000
0000011100000000000000000000000000000000000000000000000000000000000000
0000
0000011100000000000000000000000000000000000000000000000000000000000000
0000
0000011100000000000000000000000000000000000000000000000000000000000000
0000
0000011100000000000000000000000000000000000000000000000000000000000000
0000
0000011100000000000000000000000000000000000000000000000000000000000000
0000
0000011100000000000000000000000000000000000000000000000000000000000000
0000
