P1
# ExCyber Power Style
121 28
0000000000000000000000000000000000000000000000000000000000000000000000
000000000000000000000000000000000000000000000000000
0000000000000000000000000000000000000000000111000000000000000000000000
000000000000000000000000000000000000000000000000000
0000000000000000000000000000000000000000000111000000000000000000000000
000000000000000000000000000010000000000000000000000
0000000000000000000000000000000000000000000111000000000000000000000000
000000000000000000000000001110000000000000000000000
0000000000000000000000000000000000000000000111000000000000000000000000
000000000000000000000000001110000000000000000000000
0000000000000000000000000000000000000000000111000000000000000000000000
000000000000000000000000001110000000000000000000000
0000000000000000000000000000000000000000000111000000000000000000000000
000000000000000000000000001110000000000000000000000
0000000000000000000000000000000000000000000111000000000000000000000000
000000000000000000000000001110000000000000000000000
0000000000111111100000000001111111000000000111001111110000000000000011
111110000000011100111111111111110000000111111100000
0000000011111111110000000111111111110000000111011111111100000000001111
111111000000011101111111111111110000011111111111000
0000000111111111111000001111111111111000000111111111111110000000011111
111111110000011111111111111111110000111111111111100
0000001111100000111100001111000001111100000111111000011111000000111110
000011110000011111100100001110000000111100000111110
0000001111000000011100011110000000111100000111110000001111000000111100
000001111000011110000000001110000001111000000011110
0000011110000000011110111100000000011110000111100000000111100001111000
000000111000011110000000001110000011110000000001111
0000011110000000000000111100000000011110000111000000000111100001110000
000000111100011110000000001110000011110000000001111
0000011100000000000000111100000000001110000111000000000011100001110000
000000111100011100000000001110000011110000000000111
0000011100000000000000111000000000001110000111000000000011100001111111
111111111100011100000000001110000011100000000000111
0000011100000000000000111000000000001110000111000000000011100011111111
111111111100011100000000001110000011100000000000111
0000011100000000000000111000000000001110000111000000000011100001111111
111111111100011100000000001110000011100000000000111
0000011100000000000000111000000000001110000111000000000011100001110000
000000000000011100000000001110000011100000000000111
0000011100000000001100111100000000001110000111000000000011100001110000
000000000000011100000000001110000011110000000000111
0000011110000000011110111100000000011110000111000000000111100001111000
000000111100011100000000001110000011110000000001111
0000011110000000011110011100000000011110000111100000000111100001111000
000000111100011100000000001110000001110000000001111
0000001111000000111100011110000000111100000111110000001111000000111100
000001111000011100000000001110000001111000000011110
0000001111100001111100001111000011111100000111111000111110000000111110
000111110000011100000000001111110000111100001111110
0000000111111111111000000111111111111000000111111111111110000000011111
111111110000011100000000001111110000011111111111100
0000000001111111110000000011111111100000000111011111111000000000000111
111111000000011100000000000111110000001111111110000
0000000000011110000000000000111110000000000000000111100000000000000001
111100000000000000000000000000000000000011111000000
