P1
# ExCyber Power Style
60 21
000000000000000000000000000000000000000000000000000000000000
000001110011111110000000000001111111000000000000111111110000
000001110111111111100000000111111111110000000001111111111000
000001111111111111100000001111111111111000000011111111111100
000001111100000111110000001111000001111100000111100000011110
000001111000000011110000011110000000111100000111000000001110
000001111000000001110000111100000000011110000111000000001110
000001110000000001110000111100000000011110000111100000000000
000001110000000001110000111100000000001110000111111100000000
000001110000000001110000111000000000001110000011111111100000
000001110000000001110000111000000000001110000001111111111100
000001110000000001110000111000000000001110000000011111111110
000001110000000001110000111000000000001110000000000001111111
000001110000000001110000111100000000001110000000000000001111
000001110000000001110000111100000000011110000111000000001111
000001110000000001110000011100000000011110001111000000000111
000001110000000001110000011110000000111100000111100000001111
000001110000000001110000001111000011111100000111110000011110
000001110000000001110000000111111111111000000011111111111110
000001110000000001110000000011111111100000000001111111111000
000000000000000000000000000000111110000000000000011111100000
