P1
# ExCyber Power Style
41 21
00000000000000000000000000000000000000000
00000111001111111000000000000111111100000
00000111011111111110000000011111111111000
00000111111111111110000000111111111111100
00000111110000011111000000111100000111110
00000111100000001111000001111000000011110
00000111100000000111000011110000000001111
00000111000000000111000011110000000001111
00000111000000000111000011110000000000111
00000111000000000111000011100000000000111
00000111000000000111000011100000000000111
00000111000000000111000011100000000000111
00000111000000000111000011100000000000111
00000111000000000111000011110000000000111
00000111000000000111000011110000000001111
00000111000000000111000001110000000001111
00000111000000000111000001111000000011110
00000111000000000111000000111100001111110
00000111000000000111000000011111111111100
00000111000000000111000000001111111110000
00000000000000000000000000000011111000000
