P1
# ExCyber Power Style
22 28
0000000000000000000000
0000000000111100000000
0000000000011110000000
0000000000011110000000
0000000000001111000000
0000000000000111000000
0000000000000000000000
0000000000000000000000
0000000000111111110000
0000000011111111111100
0000000111111111111110
0000001111000000111110
0000001110000000011110
0000001110000000001110
0000000000000000001110
0000000000000000011110
0000000000111111111110
0000000011111111111110
0000001111111111001110
0000001111100000001110
0000011110000000001110
0000011110000000011110
0000011110000000011110
0000011110000000111110
0000011111000011111111
0000001111111111101111
0000000111111111001111
0000000000111000000000
