P1
# ExCyber Power Style
147 28
0000000000000000000000000000000000000000000000000000000000000000000000
0000000000000000000000000000000000000000000000000000000000000000000000
0000000
0000000000000000000000000000000000000000000000000000000000000000000000
0000000000000000000000000000000001110000000000000000011100000000000000
0000000
0000000000000000000000000000000000000000000000000000000000000000000000
0000000000000000000000000010000001110000000000000000011100000000000000
0000000
0000000000000000000000000000000000000000000000000000000000000000000000
0000000000000000000000001110000001110000000000000000011100000000000000
0000000
0000000000000000000000000000000000000000000000000000000000000000000000
0000000000000000000000001110000001110000000000000000011100000000000000
0000000
0000000000000000000000000000000000000000000000000000000000000000000000
0000000000000000000000001110000000000000000000000000011100000000000000
0000000
0000000000000000000000000000000000000000000000000000000000000000000000
0000000000000000000000001110000000000000000000000000011100000000000000
0000000
0000000000000000000000000000000000000000000000000000000000000000000000
0000000000000000000000001110000000000000000000000000011100000000000000
0000000
0000011100111110000000111111100000001110000000000111100000001111111000
0000000011111111000001111111110001110000000001111110011100000000011111
1110000
0000011101111110000011111111110000001110000000000111000000111111111100
0000000111111111100001111111110001110000000111111111011100000001111111
1111100
0000011111111110000111111111111100001111000000001111000001111111111111
0000001111111111110001111111110001110000001111111111111100000011111111
1111110
0000011111100100001111100000111100000111000000001111000011111000001111
0000011110000001111000001110000001110000011111000011111100000111100000
0111110
0000011110000000001111000000011110000111000000001110000011110000000111
1000011100000000111000001110000001110000011110000000111100000111000000
0011110
0000011110000000011110000000001110000111100000011110000111100000000011
1000011100000000111000001110000001110000111100000000111100000111000000
0001110
0000011110000000011100000000001111000011100000011100000111000000000011
1100011110000000000000001110000001110000111100000000011100000000000000
0001110
0000011100000000011100000000001111000011110000011100000111000000000011
1100011111110000000000001110000001110000111100000000011100000000000000
0011110
0000011100000000011111111111111111000011110000111100000111111111111111
1100001111111110000000001110000001110000111000000000011100000000011111
1111110
0000011100000000111111111111111111000001110000111000001111111111111111
1100000111111111110000001110000001110000111000000000011100000001111111
1111110
0000011100000000011111111111111111000001111001111000000111111111111111
1100000001111111111000001110000001110000111000000000011100000111111111
1001110
0000011100000000011100000000000000000000111001111000000111000000000000
0000000000000111111100001110000001110000111000000000011100000111110000
0001110
0000011100000000011100000000000000000000111001110000000111000000000000
0000000000000000111100001110000001110000111100000000011100001111000000
0001110
0000011100000000011110000000001111000000111111110000000111100000000011
1100011100000000111100001110000001110000111100000000011100001111000000
0011110
0000011100000000011110000000001111000000011111100000000111100000000011
1100111100000000011100001110000001110000011100000000111100001111000000
0011110
0000011100000000001111000000011110000000011111100000000011110000000111
1000011110000000111100001110000001110000011110000001111100001111000000
0111110
0000011100000000001111100001111100000000011111100000000011111000011111
0000011111000001111000001111110001110000001111000011111100001111100001
1111111
0000011100000000000111111111111100000000001111000000000001111111111111
0000001111111111111000001111110001110000001111111111111100000111111111
1101111
0000011100000000000001111111110000000000001111000000000000011111111100
0000000111111111100000000111110001110000000011111111011100000011111111
1001111
0000000000000000000000011111000000000000000000000000000000000111110000
0000000001111110000000000000000000000000000000111100000000000000011100
0000000
