P1
# ExCyber Power Style
87 28
0000000000000000000000000000000000000000000000000000000000000000000000
00000000000000000
0000011100000000000000000000000000000000000001110000000000000000000000
00000000000000000
0000011100000000000000000000000000000000000001110000000000000000000000
00000000000000000
0000011100000000000000000000000000000000000001110000000000000000000000
00000000000000000
0000011100000000000000000000000000000000000001110000000000000000000000
00000000000000000
0000011100000000000000000000000000000000000000000000000000000000000000
00000000000000000
0000011100000000000000000000000000000000000000000000000000000000000000
00000000000000000
0000011100000000000000000000000000000000000000000000000000000000000000
00000000000000000
0000011100111111000000000000011111111000000001110000111100000000111100
00000111111100000
0000011101111111110000000001111111111110000001110000111110000001111100
00011111111111000
0000011111111111111000000011111111111111000001110000011110000001111000
00111111111111100
0000011111100001111100000111100000011111000001110000001111000011110000
00111100000111110
0000011111000000111100000111000000001111000001110000000111100111100000
01111000000011110
0000011110000000011110000111000000000111000001110000000111100111100000
11110000000001111
0000011100000000011110000000000000000111000001110000000011111111000000
11110000000001111
0000011100000000001110000000000000001111000001110000000001111110000000
11110000000000111
0000011100000000001110000000011111111111000001110000000001111100000000
11100000000000111
0000011100000000001110000001111111111111000001110000000000111100000000
11100000000000111
0000011100000000001110000111111111100111000001110000000001111110000000
11100000000000111
0000011100000000001110000111110000000111000001110000000011111111000000
11100000000000111
0000011100000000001110001111000000000111000001110000000011111111000000
11110000000000111
0000011100000000011110001111000000001111000001110000000111100111100000
11110000000001111
0000011110000000011110001111000000001111000001110000001111000011110000
01110000000001111
0000011111000000111100001111000000011111000001110000001111000011110000
01111000000011110
0000011111100011111000001111100001111111100001110000011110000001111000
00111100001111110
0000011111111111111000000111111111110111100001110000111100000000111100
00011111111111100
0000011101111111100000000011111111100111100001110001111100000000111110
00001111111110000
0000000000011110000000000000011100000000000000000000000000000000000000
00000011111000000
