P1
# ExCyber Power Style
123 34
0000000000000000000000000000000000000000000000000000000000000000000000
00000000000000000000000000000000000000000000000000000
0000000000000000000000000000000000000000000000000000000000000000000000
00000000000000000000000000000111000000000000000000000
0000000000000000000000000000000000000000000000000000000000000000000000
00000000000000000000000000000111000000000000000000000
0000000000000000000000000000000000000000000000000000000000000000000000
00000000000000000000000000000111000000000000000000000
0000000000000000000000000000000000000000000000000000000000000000000000
00000000000000000000000000000111000000000000000000000
0000000000000000000000000000000000000000000000000000000000000000000000
00000000000000000000000000000111000000000000000000000
0000000000000000000000000000000000000000000000000000000000000000000000
00000000000000000000000000000111000000000000000000000
0000000000000000000000000000000000000000000000000000000000000000000000
00000000000000000000000000000111000000000000000000000
0000000001111111001110000011100000000011100000000011111111000000001110
01111111000000000000011111100111000000000111111100000
0000000011111111111110000011100000000011100000001111111111110000001110
11111111110000000001111111110111000000011111111111000
0000000111110011111110000011100000000011100000011111111111111000001111
11111111110000000011111111111111000000111111111111100
0000001111000000111110000011100000000011100000111100000011111000001111
10000011111000000111110000111111000000111100000111110
0000001110000000011110000011100000000011100000111000000001111000001111
00000001111000000111100000001111000001111000000011110
0000011110000000011110000011100000000011100000111000000000111000001111
00000000111000001111000000001111000011110000000001111
0000011110000000001110000011100000000011100000000000000000111000001110
00000000111000001111000000000111000011110000000001111
0000011100000000001110000011100000000011100000000000000001111000001110
00000000111000001111000000000111000011110000000000111
0000011100000000001110000011100000000011100000000011111111111000001110
00000000111000001110000000000111000011100000000000111
0000011100000000001110000011100000000011100000001111111111111000001110
00000000111000001110000000000111000011100000000000111
0000011100000000001110000011100000000011100000111111111100111000001110
00000000111000001110000000000111000011100000000000111
0000011110000000001110000011100000000011100000111110000000111000001110
00000000111000001110000000000111000011100000000000111
0000011110000000001110000011100000000011100001111000000000111000001110
00000000111000001111000000000111000011110000000000111
0000011110000000011110000011100000000011100001111000000001111000001110
00000000111000001111000000000111000011110000000001111
0000001111000000011110000011110000000111100001111000000001111000001110
00000000111000000111000000001111000001110000000001111
0000001111100000111110000011110000001111100001111000000011111000001110
00000000111000000111100000011111000001111000000011110
0000000111111011111110000011111000011111100001111100001111111100001110
00000000111000000011110000111111000000111100001111110
0000000011111111111110000001111111111111100000111111111110111100001110
00000000111000000011111111111111000000011111111111100
0000000001111111001110000000111111111011100000011111111100111100001110
00000000111000000000111111110111000000001111111110000
0000000000000000001110000000001111100011100000000011100000000000000000
00000000000000000000001111000000000000000011111000000
0000000000000000001110000000000000000000000000000000000000000000000000
00000000000000000000000000000000000000000000000000000
0000000000000000001110000000000000000000000000000000000000000000000000
00000000000000000000000000000000000000000000000000000
0000000000000000001110000000000000000000000000000000000000000000000000
00000000000000000000000000000000000000000000000000000
0000000000000000001110000000000000000000000000000000000000000000000000
00000000000000000000000000000000000000000000000000000
0000000000000000001110000000000000000000000000000000000000000000000000
00000000000000000000000000000000000000000000000000000
0000000000000000001110000000000000000000000000000000000000000000000000
00000000000000000000000000000000000000000000000000000
