P1
# ExCyber Power Style
139 34
0000000000000000000000000000000000000000000000000000000000000000000000
000000000000000000000000000000000000000000000000000000000000000000000
0000000000000000000000000000000000000000000000000000000000000000000000
000000000000000000000000011100000000000000000000000000000000000000000
0000000000000000000000000000000000000000000000000000000000000000000000
000000000000000000000000011100000000000000000000000000000000000000000
0000000000000000000000000000000000000000000000000000000000000000000000
000000000000000000000000011100000000000000000000000000000000000000000
0000000000000000000000000000000000000000000000000000000000000000000000
000000000000000000000000011100000000000000000000000000000000000000000
0000000000000000000000000000000000000000000000000000000000000000000000
000000000000000000000000011100000000000000000000000000000000000000000
0000000000000000000000000000000000000000000000000000000000000000000000
000000000000000000000000011100000000000000000000000000000000000000000
0000000000000000000000000000000000000000000000000000000000000000000000
000000000000000000000000011100000000000000000000000000000000000000000
0000011100111111100000000000001111111000000000001111111100000000000111
111110000000000001111110011100000000001111111100000000000111111110000
0000011111111111110000000000111111111100000000011111111110000000011111
111111100000000111111111011100000000111111111111000000001111111111000
0000011111110011111000000001111111111111000000111111111111000000111111
111111110000001111111111111100000001111111111111100000011111111111100
0000011111000000111100000011111000001111000001111000000111100001111000
000111110000011111000011111100000011110000001111100000111100000011110
0000011110000000011100000011110000000111100001110000000011100001110000
000011110000011110000000111100000011100000000111100000111000000001110
0000011110000000011110000111100000000011100001110000000011100001110000
000001110000111100000000111100000011100000000011100000111000000001110
0000011100000000001110000111000000000011110001111000000000000000000000
000001110000111100000000011100000000000000000011100000111100000000000
0000011100000000001110000111000000000011110001111111000000000000000000
000011110000111100000000011100000000000000000111100000111111100000000
0000011100000000001110000111111111111111110000111111111000000000000111
111111110000111000000000011100000000001111111111100000011111111100000
0000011100000000001110001111111111111111110000011111111111000000011111
111111110000111000000000011100000000111111111111100000001111111111100
0000011100000000001110000111111111111111110000000111111111100001111111
111001110000111000000000011100000011111111110011100000000011111111110
0000011100000000001110000111000000000000000000000000011111110001111100
000001110000111000000000011100000011111000000011100000000000001111111
0000011100000000011110000111000000000000000000000000000011110011110000
000001110000111100000000011100000111100000000011100000000000000001111
0000011110000000011110000111100000000011110001110000000011110011110000
000011110000111100000000011100000111100000000111100000111000000001111
0000011110000000011100000111100000000011110011110000000001110011110000
000011110000011100000000111100000111100000000111100001111000000000111
0000011111000000111100000011110000000111100001111000000011110011110000
000111110000011110000001111100000111100000001111100000111100000001111
0000011111111111111000000011111000011111000001111100000111100011111000
011111111000001111000011111100000111110000111111110000111110000011110
0000011111111111110000000001111111111111000000111111111111100001111111
111101111000001111111111111100000011111111111011110000011111111111110
0000011100111111100000000000011111111100000000011111111110000000111111
111001111000000011111111011100000001111111110011110000001111111111000
0000011100000000000000000000000111110000000000000111111000000000000111
000000000000000000111100000000000000001110000000000000000011111100000
0000011100000000000000000000000000000000000000000000000000000000000000
000000000000000000000000000000000000000000000000000000000000000000000
0000011100000000000000000000000000000000000000000000000000000000000000
000000000000000000000000000000000000000000000000000000000000000000000
0000011100000000000000000000000000000000000000000000000000000000000000
000000000000000000000000000000000000000000000000000000000000000000000
0000011100000000000000000000000000000000000000000000000000000000000000
000000000000000000000000000000000000000000000000000000000000000000000
0000011100000000000000000000000000000000000000000000000000000000000000
000000000000000000000000000000000000000000000000000000000000000000000
0000011100000000000000000000000000000000000000000000000000000000000000
000000000000000000000000000000000000000000000000000000000000000000000
