P1
# ExCyber Power Style
118 27
0000000000000000000000000000000000000000000000000000000000000000000000
000000000000000000000000000000000000000000000000
0000000000111111100000000000111111110000000111001111111000000000000111
111110000000000000011111110000000000111111100000
0000000011111111110000000001111111111000000111111111111100000000011111
111111100000000001111111111000000011111111111000
0000000111111111111100000011111111111100000111111100111110000000111111
111111110000000011111111111100000111111111111100
0000001111100000111100000111100000011110000111110000001111000001111000
000111110000000111110000111110000111100000111110
0000001111000000011110000111000000001110000111100000000111000001110000
000011110000000111000000011110001111000000011110
0000011110000000001110000111000000001110000111100000000111100001110000
000001110000001111000000001110011110000000001111
0000011100000000001111000111100000000000000111000000000011100000000000
000001110000001110000000000000011110000000001111
0000011100000000001111000111111100000000000111000000000011100000000000
000011110000001110000000000000011110000000000111
0000011111111111111111000011111111100000000111000000000011100000000111
111111110000001110000000000000011100000000000111
0000111111111111111111000001111111111100000111000000000011100000011111
111111110000001110000000000000011100000000000111
0000011111111111111111000000011111111110000111000000000011100001111111
111001110000001110000000000000011100000000000111
0000011100000000000000000000000001111111000111000000000011100001111100
000001110000001110000000000000011100000000000111
0000011100000000000000000000000000001111000111000000000111100011110000
000001110000001110000000001111011110000000000111
0000011110000000001111000111000000001111000111100000000111100011110000
000011110000001111000000001111011110000000001111
0000011110000000001111001111000000000111000111100000000111000011110000
000011110000001111000000001110001110000000001111
0000001111000000011110000111100000001111000111110000001111000011110000
000111110000000111100000011110001111000000011110
0000001111100001111100000111110000011110000111111111111110000011111000
011111111000000011111111111100000111100001111110
0000000111111111111100000011111111111110000111111111111100000001111111
111101111000000001111111111000000011111111111100
0000000001111111110000000001111111111000000111001111111000000000111111
111001111000000000111111110000000001111111110000
0000000000011111000000000000011111100000000111000000000000000000000111
000000000000000000001100000000000000011111000000
0000000000000000000000000000000000000000000111000000000000000000000000
000000000000000000011111000000000000000000000000
0000000000000000000000000000000000000000000111000000000000000000000000
000000000000000000000111100000000000000000000000
0000000000000000000000000000000000000000000111000000000000000000000000
000000000000000000000011100000000000000000000000
0000000000000000000000000000000000000000000111000000000000000000000000
000000000000000000000111100000000000000000000000
0000000000000000000000000000000000000000000111000000000000000000000000
000000000000000000111111000000000000000000000000
0000000000000000000000000000000000000000000111000000000000000000000000
000000000000000000111110000000000000000000000000
