P1
# ExCyber Power Style
63 27
000000000000000000000000000000000000000000000000000000000000000
000000000111111100111000001110000000001110000000000111111100000
000000001111111111111000001110000000001110000000011111111110000
000000011111001111111000001110000000001110000000111111111111100
000000111100000011111000001110000000001110000001111100000111100
000000111000000001111000001110000000001110000001111000000011110
000001111000000001111000001110000000001110000011110000000001110
000001111000000000111000001110000000001110000011100000000001111
000001110000000000111000001110000000001110000011100000000001111
000001110000000000111000001110000000001110000011111111111111111
000001110000000000111000001110000000001110000111111111111111111
000001110000000000111000001110000000001110000011111111111111111
000001111000000000111000001110000000001110000011100000000000000
000001111000000000111000001110000000001110000011100000000000000
000001111000000001111000001110000000001110000011110000000001111
000000111100000001111000001111000000011110000011110000000001111
000000111110000011111000001111000000111110000001111000000011110
000000011111101111111000001111100001111110000001111100001111100
000000001111111111111000000111111111111110000000111111111111100
000000000111111100111000000011111111101110000000001111111110000
000000000000000000111000000000111110001110000000000011111000000
000000000000000000111000000000000000000000000000000000000000000
000000000000000000111000000000000000000000000000000000000000000
000000000000000000111000000000000000000000000000000000000000000
000000000000000000111000000000000000000000000000000000000000000
000000000000000000111000000000000000000000000000000000000000000
000000000000000000111000000000000000000000000000000000000000000
