P1
# ExCyber Power Style
99 21
0000000000000000000000000000000000000000000000000000000000000000000000
00000000000000000000000000000
0000011100000000001111000000011111110000000000000111111110000000111000
00000001111000000111111110000
0000011100000000001110000001111111111100000000011111111111100000111000
00000001110000011111111111100
0000011110000000011110000011111111111110000000111111111111110000111100
00000011110000111111111111110
0000001110000000011110000011110000011111000001111000000111110000011100
00000011110001111000000111110
0000001110000000011100000111100000001111000001110000000011110000011100
00000011100001110000000011110
0000001111000000111100001111000000000111100001110000000001110000011110
00000111100001110000000001110
0000000111000000111000001111000000000111100000000000000001110000001110
00000111000000000000000001110
0000000111100000111000001111000000000011100000000000000011110000001111
00000111000000000000000011110
0000000111100001111000001110000000000011100000000111111111110000001111
00001111000000000111111111110
0000000011100001110000001110000000000011100000011111111111110000000111
00001110000000011111111111110
0000000011110011110000001110000000000011100001111111111001110000000111
10011110000001111111111001110
0000000001110011110000001110000000000011100001111100000001110000000011
10011110000001111100000001110
0000000001110011100000001111000000000011100011110000000001110000000011
10011100000011110000000001110
0000000001111111100000001111000000000111100011110000000011110000000011
11111100000011110000000011110
0000000000111111000000000111000000000111100011110000000011110000000001
11111000000011110000000011110
0000000000111111000000000111100000001111000011110000000111110000000001
11111000000011110000000111110
0000000000111111000000000011110000111111000011111000011111111000000001
11111000000011111000011111111
0000000000011110000000000001111111111110000001111111111101111000000000
11110000000001111111111101111
0000000000011110000000000000111111111000000000111111111001111000000000
11110000000000111111111001111
0000000000000000000000000000001111100000000000000111000000000000000000
00000000000000000111000000000
