P1
# ExCyber Power Style
132 34
0000000000000000000000000000000000000000000000000000000000000000000000
00000000000000000000000000000000000000000000000000000000000000
0000000000000000000000000000000000000000000000000000000000000000000000
00000000000000000001110000000000000000000000000000000000000000
0000000000000000000000000000000000000000000000000000000000000000000000
00000000000000000001110000000000000000000000000000000000000000
0000000000000000000000000000000000000000000000000000000000000000000000
00000000000000000001110000000000000000000000000000000000000000
0000000000000000000000000000000000000000000000000000000000000000000000
00000000000000000001110000000000000000000000000000000000000000
0000000000000000000000000000000000000000000000000000000000000000000000
00000000000000000001110000000000000000000000000000000000000000
0000000000000000000000000000000000000000000000000000000000000000000000
00000000000000000001110000000000000000000000000000000000000000
0000000000000000000000000000000000000000000000000000000000000000000000
00000000000000000001110000000000000000000000000000000000000000
0000011100111111100000000000011111111000000001110011111000000011111110
00000000000111111001110000000000111111100000000000111111110000
0000011111111111110000000001111111111110000001110111111000001111111111
00000000011111111101110000000011111111110000000001111111111000
0000011111110011111000000011111111111111000001111111111000011111111111
11000000111111111111110000000111111111111100000011111111111100
0000011111000000111100000111100000011111000001111110010000111110000011
11000001111100001111110000001111100000111100000111100000011110
0000011110000000011100000111000000001111000001111000000000111100000001
11100001111000000011110000001111000000011110000111000000001110
0000011110000000011110000111000000000111000001111000000001111000000000
11100011110000000011110000011110000000001110000111000000001110
0000011100000000001110000000000000000111000001111000000001110000000000
11110011110000000001110000011100000000001111000111100000000000
0000011100000000001110000000000000001111000001110000000001110000000000
11110011110000000001110000011100000000001111000111111100000000
0000011100000000001110000000011111111111000001110000000001111111111111
11110011100000000001110000011111111111111111000011111111100000
0000011100000000001110000001111111111111000001110000000011111111111111
11110011100000000001110000111111111111111111000001111111111100
0000011100000000001110000111111111100111000001110000000001111111111111
11110011100000000001110000011111111111111111000000011111111110
0000011100000000001110000111110000000111000001110000000001110000000000
00000011100000000001110000011100000000000000000000000001111111
0000011100000000011110001111000000000111000001110000000001110000000000
00000011110000000001110000011100000000000000000000000000001111
0000011110000000011110001111000000001111000001110000000001111000000000
11110011110000000001110000011110000000001111000111000000001111
0000011110000000011100001111000000001111000001110000000001111000000000
11110001110000000011110000011110000000001111001111000000000111
0000011111000000111100001111000000011111000001110000000000111100000001
11100001111000000111110000001111000000011110000111100000001111
0000011111111111111000001111100001111111100001110000000000111110000111
11000000111100001111110000001111100001111100000111110000011110
0000011111111111110000000111111111110111100001110000000000011111111111
11000000111111111111110000000111111111111100000011111111111110
0000011100111111100000000011111111100111100001110000000000000111111111
00000000001111111101110000000001111111110000000001111111111000
0000011100000000000000000000011100000000000000000000000000000001111100
00000000000011110000000000000000011111000000000000011111100000
0000011100000000000000000000000000000000000000000000000000000000000000
00000000000000000000000000000000000000000000000000000000000000
0000011100000000000000000000000000000000000000000000000000000000000000
00000000000000000000000000000000000000000000000000000000000000
0000011100000000000000000000000000000000000000000000000000000000000000
00000000000000000000000000000000000000000000000000000000000000
0000011100000000000000000000000000000000000000000000000000000000000000
00000000000000000000000000000000000000000000000000000000000000
0000011100000000000000000000000000000000000000000000000000000000000000
00000000000000000000000000000000000000000000000000000000000000
0000011100000000000000000000000000000000000000000000000000000000000000
00000000000000000000000000000000000000000000000000000000000000
