P1
# ExCyber Power Style
78 28
0000000000000000000000000000000000000000000000000000000000000000000000
00000000
0000000000000000000000000000000000000000000011100000000000000000000000
00000000
0000000000000000000000000000000000000000000011100000000100000000000000
00000000
0000000000000000000000000000000000000000000011100000011100000000000000
00000000
0000000000000000000000000000000000000000000011100000011100000000000000
00000000
0000000000000000000000000000000000000000000011100000011100000000000000
00000000
0000000000000000000000000000000000000000000011100000011100000000000000
00000000
0000000000000000000000000000000000000000000011100000011100000000000000
00000000
0000011100000000001111000000111111100000000011100011111111100000001111
11110000
0000011100000000001110000011111111111000000011100011111111100000111111
11111100
0000011110000000011110000111111111111100000011100011111111100001111111
11111110
0000001110000000011110000111100000111110000011100000011100000011110000
00111110
0000001110000000011100001111000000011110000011100000011100000011100000
00011110
0000001111000000111100011110000000001111000011100000011100000011100000
00001110
0000000111000000111000011110000000001111000011100000011100000000000000
00001110
0000000111100000111000011110000000000111000011100000011100000000000000
00011110
0000000111100001111000011100000000000111000011100000011100000000001111
11111110
0000000011100001110000011100000000000111000011100000011100000000111111
11111110
0000000011110011110000011100000000000111000011100000011100000011111111
11001110
0000000001110011110000011100000000000111000011100000011100000011111000
00001110
0000000001110011100000011110000000000111000011100000011100000111100000
00001110
0000000001111111100000011110000000001111000011100000011100000111100000
00011110
0000000000111111000000001110000000001111000011100000011100000111100000
00011110
0000000000111111000000001111000000011110000011100000011100000111100000
00111110
0000000000111111000000000111100001111110000011100000011111100111110000
11111111
0000000000011110000000000011111111111100000011100000011111100011111111
11101111
0000000000011110000000000001111111110000000011100000001111100001111111
11001111
0000000000000000000000000000011111000000000000000000000000000000001110
00000000
