P1
# ExCyber Power Style
98 21
0000000000000000000000000000000000000000000000000000000000000000000000
0000000000000000000000000000
0000011100111111100000000000001111111000000000001111111100000000001111
1111000000000000111111100000
0000011101111111111000000000111111111100000000011111111110000000011111
1111100000000011111111110000
0000011111111111111000000001111111111111000000111111111111000000111111
1111110000000111111111111100
0000011111000001111100000011111000001111000001111000000111100001111000
0001111000001111100000111100
0000011110000000111100000011110000000111100001110000000011100001110000
0000111000001111000000011110
0000011110000000011100000111100000000011100001110000000011100001110000
0000111000011110000000001110
0000011100000000011100000111000000000011110001111000000000000001111000
0000000000011100000000001111
0000011100000000011100000111000000000011110001111111000000000001111111
0000000000011100000000001111
0000011100000000011100000111111111111111110000111111111000000000111111
1110000000011111111111111111
0000011100000000011100001111111111111111110000011111111111000000011111
1111110000111111111111111111
0000011100000000011100000111111111111111110000000111111111100000000111
1111111000011111111111111111
0000011100000000011100000111000000000000000000000000011111110000000000
0111111100011100000000000000
0000011100000000011100000111000000000000000000000000000011110000000000
0000111100011100000000000000
0000011100000000011100000111100000000011110001110000000011110001110000
0000111100011110000000001111
0000011100000000011100000111100000000011110011110000000001110011110000
0000011100011110000000001111
0000011100000000011100000011110000000111100001111000000011110001111000
0000111100001111000000011110
0000011100000000011100000011111000011111000001111100000111100001111100
0001111000001111100001111100
0000011100000000011100000001111111111111000000111111111111100000111111
1111111000000111111111111100
0000011100000000011100000000011111111100000000011111111110000000011111
1111100000000001111111110000
0000000000000000000000000000000111110000000000000111111000000000000111
1110000000000000011111000000
